<svg width="200" height="200" viewBox="0 0 200 200" fill="none" xmlns="http://www.w3.org/2000/svg">
<path d="M45.9445 104.011V65.0556C45.9474 63.8315 46.4334 62.658 47.2969 61.7903C48.1604 60.9227 49.3315 60.431 50.5556 60.4222H183.944C185.172 60.4252 186.349 60.9143 187.217 61.7825C188.086 62.6508 188.575 63.8276 188.578 65.0556V148.656C188.575 149.883 188.086 151.06 187.217 151.929C186.349 152.797 185.172 153.286 183.944 153.289H50.5556C49.3286 153.284 48.1532 152.795 47.2861 151.927C46.4191 151.058 45.9307 149.883 45.9278 148.656V138.728" fill="#F6F8F9"/>
<path fill-rule="evenodd" clip-rule="evenodd" d="M43.8281 61.5981C44.8539 60.101 46.8992 59.7189 48.3963 60.7448L117.167 107.866L185.937 60.7448C187.434 59.7189 189.479 60.101 190.505 61.5981C191.531 63.0952 191.149 65.1405 189.652 66.1663L119.024 114.561C117.905 115.328 116.429 115.328 115.309 114.561L44.6814 66.1663C43.1843 65.1405 42.8022 63.0952 43.8281 61.5981Z" fill="#373F47"/>
<path fill-rule="evenodd" clip-rule="evenodd" d="M8.00836 126.556C8.00836 124.741 9.4796 123.269 11.2945 123.269H76.6223C78.4371 123.269 79.9084 124.741 79.9084 126.556C79.9084 128.37 78.4371 129.842 76.6223 129.842H11.2945C9.4796 129.842 8.00836 128.37 8.00836 126.556Z" fill="#373F47"/>
<path fill-rule="evenodd" clip-rule="evenodd" d="M22.425 105.65C22.425 103.835 23.8962 102.364 25.7111 102.364H76.6222C78.4371 102.364 79.9083 103.835 79.9083 105.65C79.9083 107.465 78.4371 108.936 76.6222 108.936H25.7111C23.8962 108.936 22.425 107.465 22.425 105.65Z" fill="#373F47"/>
<path fill-rule="evenodd" clip-rule="evenodd" d="M45.9444 114.308C47.7593 114.308 49.2305 115.78 49.2305 117.594V125.633C49.2305 127.448 47.7593 128.919 45.9444 128.919C44.1296 128.919 42.6583 127.448 42.6583 125.633V117.594C42.6583 115.78 44.1296 114.308 45.9444 114.308Z" fill="#373F47"/>
<path fill-rule="evenodd" clip-rule="evenodd" d="M50.2778 63.8416C49.6381 63.8416 49.1195 64.3602 49.1195 65V104.722C49.1195 106.537 47.6482 108.008 45.8334 108.008C44.0185 108.008 42.5472 106.537 42.5472 104.722V65C42.5472 60.7305 46.0083 57.2694 50.2778 57.2694H184.167C188.436 57.2694 191.897 60.7305 191.897 65V148.889C191.897 153.158 188.436 156.619 184.167 156.619H50.2778C46.0083 156.619 42.5472 153.158 42.5472 148.889V138.611C42.5472 136.796 44.0185 135.325 45.8334 135.325C47.6482 135.325 49.1195 136.796 49.1195 138.611V148.889C49.1195 149.529 49.6381 150.047 50.2778 150.047H184.167C184.806 150.047 185.325 149.529 185.325 148.889V65C185.325 64.3602 184.806 63.8416 184.167 63.8416H50.2778Z" fill="#373F47"/>
<path fill-rule="evenodd" clip-rule="evenodd" d="M116.844 37.9083C104.92 37.9083 95.2528 47.5752 95.2528 59.5C95.2528 71.4247 104.92 81.0917 116.844 81.0917C128.769 81.0917 138.436 71.4247 138.436 59.5C138.436 47.5752 128.769 37.9083 116.844 37.9083ZM88.6805 59.5C88.6805 43.9455 101.29 31.3361 116.844 31.3361C132.399 31.3361 145.008 43.9455 145.008 59.5C145.008 75.0545 132.399 87.6639 116.844 87.6639C101.29 87.6639 88.6805 75.0545 88.6805 59.5Z" fill="#373F47"/>
<path d="M116.844 84.3778C130.584 84.3778 141.722 73.2396 141.722 59.5C141.722 45.7604 130.584 34.6222 116.844 34.6222C103.105 34.6222 91.9667 45.7604 91.9667 59.5C91.9667 73.2396 103.105 84.3778 116.844 84.3778Z" fill="#94CBE8"/>
<path fill-rule="evenodd" clip-rule="evenodd" d="M116.844 37.2444C104.553 37.2444 94.5889 47.2086 94.5889 59.5C94.5889 71.7914 104.553 81.7556 116.844 81.7556C129.136 81.7556 139.1 71.7914 139.1 59.5C139.1 47.2086 129.136 37.2444 116.844 37.2444ZM89.3444 59.5C89.3444 44.3122 101.657 32 116.844 32C132.032 32 144.344 44.3122 144.344 59.5C144.344 74.6878 132.032 87 116.844 87C101.657 87 89.3444 74.6878 89.3444 59.5Z" fill="#373F47"/>
<path fill-rule="evenodd" clip-rule="evenodd" d="M145.669 28.3082C147.113 29.408 147.392 31.4699 146.292 32.9136L118.964 68.7858C118.37 69.5656 117.459 70.0395 116.479 70.078C115.5 70.1166 114.554 69.7157 113.9 68.985L104.223 58.1627C103.013 56.8099 103.129 54.7325 104.482 53.5227C105.835 52.3129 107.912 52.4289 109.122 53.7817L116.147 61.638L141.064 28.9309C142.164 27.4872 144.226 27.2084 145.669 28.3082Z" fill="#373F47"/>
</svg>
