<svg fill="none" xmlns="http://www.w3.org/2000/svg" viewBox="0 0 240 240"><path d="M115.035 151.063c2.79 3.561.551 8.8-3.951 9.244l-32.0674 3.16c.6065-14.197 7.9441-26.647 18.9043-34.244l17.1141 21.84Z" fill="#EAEDEF"/><path d="M125.96 121.779c1.937.125 3.84.375 5.701.743l-.096.488c1.878.372 3.711.864 5.493 1.469l.16-.474c1.827.621 3.6 1.36 5.31 2.205l-.219.446c1.706.843 3.349 1.796 4.92 2.847l.277-.415c1.597 1.07 3.12 2.241 4.56 3.505l-.328.374c1.426 1.252 2.769 2.595 4.021 4.021l.374-.328c1.263 1.439 2.435 2.962 3.504 4.559l-.413.278c1.051 1.571 2.003 3.214 2.846 4.92l.446-.22c.845 1.711 1.583 3.484 2.204 5.311h.001l-.473.16c.605 1.782 1.096 3.616 1.468 5.494l.487-.098c.368 1.861.618 3.764.743 5.702l-.495.032c.061.941.092 1.89.092 2.846 0 .956-.031 1.905-.092 2.846l.495.031c-.125 1.937-.375 3.84-.743 5.701l-.487-.096c-.372 1.877-.863 3.711-1.468 5.493l.472.16c-.62 1.827-1.359 3.6-2.204 5.31l-.446-.219c-.843 1.706-1.795 3.35-2.846 4.921l.413.276c-1.07 1.597-2.241 3.12-3.505 4.56l-.373-.328c-1.252 1.426-2.595 2.769-4.021 4.021l.328.373c-1.44 1.264-2.963 2.435-4.56 3.505l-.277-.413c-1.57 1.051-3.214 2.003-4.92 2.846l.219.446c-1.71.845-3.483 1.584-5.31 2.204l-.16-.472c-1.782.605-3.616 1.097-5.493 1.468l.096.487c-1.861.368-3.764.618-5.701.743l-.031-.495c-.941.061-1.89.092-2.846.092-.956 0-1.905-.031-2.846-.092l-.032.495c-1.938-.125-3.841-.375-5.702-.743l.098-.487c-1.878-.372-3.712-.863-5.494-1.468l-.16.472c-1.827-.621-3.6-1.359-5.311-2.204l.22-.446c-1.706-.843-3.35-1.795-4.9205-2.846l-.2773.413c-1.597-1.069-3.1198-2.24-4.5596-3.504l.3282-.374c-1.4258-1.252-2.7692-2.595-4.0206-4.021l-.374.328c-1.2639-1.44-2.4355-2.963-3.5049-4.56l.4151-.276c-1.0518-1.571-2.0045-3.215-2.8477-4.921l-.4453.219c-.8452-1.71-1.5848-3.483-2.2051-5.31l.4737-.16c-.6047-1.782-1.0974-3.615-1.4688-5.493l-.4883.096c-.3681-1.861-.6179-3.764-.7431-5.701l.4961-.031c-.0456-.706-.0744-1.416-.086-2.13l-.0058-.716c0-.956.031-1.905.0918-2.846l-.4961-.032c.1252-1.938.3749-3.841.7431-5.702l.4883.098c.3714-1.878.8641-3.712 1.4688-5.494l-.4737-.16c.6204-1.828 1.3598-3.6 2.2051-5.311l.4453.22c.8432-1.706 1.7959-3.349 2.8477-4.92l-.4151-.278c1.0692-1.597 2.2403-3.12 3.5039-4.559l.375.328c1.2515-1.426 2.5947-2.769 4.0206-4.021l-.3282-.375c1.4398-1.263 2.9626-2.434 4.5596-3.504l.2773.415c1.5715-1.051 3.2145-2.004 4.9205-2.847l-.22-.446c1.403-.693 2.848-1.316 4.332-1.859l.979-.346.16.474c1.782-.605 3.616-1.097 5.494-1.469l-.098-.488c1.861-.368 3.764-.618 5.702-.743l.032.496c.941-.061 1.89-.092 2.846-.092.956 0 1.905.031 2.846.092l.031-.496Z" stroke="#797A7B" stroke-dasharray="6 6"/><rect x="151.252" y="30.6024" width="81.1871" height="81.1871" rx="2.5" transform="rotate(13.416 151.252 30.6024)" stroke="#797A7B" stroke-dasharray="6 6"/><path d="m87.2683 113.561 3.858 5.083-.3981.302 3.8579 5.081.3971-.302 3.8578 5.082-.3979.303 3.8579 5.083.397-.303 3.857 5.082h.001l-.398.303 3.858 5.082.397-.302 3.857 5.082-.397.302 1.928 2.542c.602.793.935 1.666 1.038 2.541l.494-.057c.24 2.047-.66 4.108-2.325 5.323l-.293-.402c-.712.519-1.578.87-2.569.967l-2.909.287.049.498-5.817.573-.049-.498-5.8179.574.0491.497-5.8166.574-.049-.498-5.8175.573.049.498-5.8175.573-.0491-.497-5.8175.573.0491.498-5.8175.573-.0491-.497-5.8165.573.049.497-5.8175.574-.049-.498-5.8176.574.0491.497-5.8175.574-.0491-.498-5.8165.573.049.498-5.8175.573-.049-.497-5.8175.573.049.498-5.8175.573-.0491-.498-2.9087.287c-.9908.098-1.9091-.077-2.7083-.447l-.2097.451c-1.8702-.867-3.156-2.712-3.3195-4.767l.4965-.04c-.061-.768.0506-1.57.3711-2.358l.1503-.337 1.3952-2.869-.4494-.219 2.7906-5.737.4504.219 2.7905-5.738-.4494-.219 2.7905-5.738.4495.22 2.7914-5.738-.4504-.22 2.7915-5.737.4494.219 2.7916-5.737-.4505-.22 2.7916-5.737.4494.219 2.7914-5.738-.4503-.218 2.7915-5.737.4494.218 2.7915-5.738-.4504-.218 2.7915-5.7383.4494.2186 2.7906-5.7369-.4494-.2187 2.7904-5.7388.4505.2195 1.3952-2.8684c.4159-.855 1.0131-1.5268 1.7114-2.0116l-.2838-.4106c1.6261-1.1285 3.7592-1.3385 5.5745-.5495l-.1972.4581c.7795.3391 1.4963.8814 2.0711 1.6387l1.9284 2.5409.398-.3032 3.8571 5.0837.0009-.0001-.398.3022 3.8569 5.0818.3971-.3021 3.8579 5.0826-.3971.3021 3.857 5.083.3971-.302 3.8579 5.081-.3981.302 3.8579 5.083.3971-.302Z" stroke="#797A7B" stroke-dasharray="6 6"/></svg>