<svg xmlns="http://www.w3.org/2000/svg" fill="none" viewBox="0 0 24 24" aria-hidden="true" focusable="false"><defs><linearGradient id="kl-intelligence-gradient-base" x1="19" y1="22" x2="4" y2="-2" gradientUnits="userSpaceOnUse">
      <stop stop-color="#3A42AC" stop-opacity="1"></stop>
      <stop offset=".2" stop-color="#3A42AC" stop-opacity="1"></stop>
      <stop offset=".840545" stop-color="#E467AC" stop-opacity="1"></stop>
    </linearGradient></defs><path fill="url(#kl-intelligence-gradient-base)" d="M11.707 10.193 12 9.565l.293.628a3.133 3.133 0 0 0 1.514 1.514l.629.293-.629.293a3.133 3.133 0 0 0-1.514 1.514l-.293.628-.293-.628a3.133 3.133 0 0 0-1.514-1.514L9.565 12l.628-.293a3.133 3.133 0 0 0 1.514-1.514Z"></path><path fill="url(#kl-intelligence-gradient-base)" fill-rule="evenodd" d="M2 12C2 6.477 6.477 2 12 2s10 4.477 10 10-4.477 10-10 10S2 17.523 2 12Zm10.906-5.223a1 1 0 0 0-1.812 0l-1.2 2.57a1.133 1.133 0 0 1-.547.547l-2.57 1.2a1 1 0 0 0 0 1.812l2.57 1.2c.241.112.435.306.548.547l1.199 2.57a1 1 0 0 0 1.812 0l1.2-2.57c.112-.241.306-.435.547-.548l2.57-1.199a1 1 0 0 0 0-1.812l-2.57-1.2a1.133 1.133 0 0 1-.547-.547l-1.2-2.57Z" clip-rule="evenodd"></path></svg>