<svg width="124" height="124" viewBox="0 0 164 142" fill="none" xmlns="http://www.w3.org/2000/svg"><g clip-path="url(#Welcome-Image_svg__clip0)"><path d="M-16 252c99.411 0 180-80.589 180-180S83.411-108-16-108-196-27.411-196 72s80.589 180 180 180Z" fill="#F2F4F5"></path><path d="M125.888 119.205H38.004V25.004h87.884v94.201Z" fill="#fff"></path><path d="M83.693 25H38.004v31.591h45.69V25Z" fill="#F2F4F5"></path><path fill-rule="evenodd" clip-rule="evenodd" d="M36 25.005c0-1.107.898-2.005 2.005-2.005h87.884c1.107 0 2.004.898 2.004 2.005v94.2a2.004 2.004 0 0 1-2.004 2.005H38.004A2.004 2.004 0 0 1 36 119.205v-94.2Zm4.01 2.004v90.192h83.874V27.009H40.009Z" fill="#373F47"></path><path fill-rule="evenodd" clip-rule="evenodd" d="M36.173 56.594c0-1.107.897-2.004 2.004-2.004h85.529a2.005 2.005 0 0 1 0 4.009H38.177a2.005 2.005 0 0 1-2.004-2.005Z" fill="#373F47"></path><path fill-rule="evenodd" clip-rule="evenodd" d="M83.694 23.488c1.107 0 2.004.898 2.004 2.005v25.87l9.931-11.055a2.005 2.005 0 0 1 2.306-.492l8.828 3.925 8.869-10.655a2.004 2.004 0 1 1 3.081 2.565l-9.838 11.82a2.004 2.004 0 0 1-2.355.55l-8.882-3.95-12.453 13.861a2.004 2.004 0 0 1-3.496-1.34v-31.1c0-1.106.897-2.004 2.005-2.004ZM51.221 39.496c1.107 0 2.005.898 2.005 2.005v5.564a2.005 2.005 0 0 1-4.01 0v-5.564c0-1.107.898-2.005 2.005-2.005ZM60.71 35.742c1.107 0 2.005.898 2.005 2.005v9.32a2.005 2.005 0 0 1-4.01 0v-9.32c0-1.107.898-2.005 2.005-2.005ZM70.199 31.988c1.107 0 2.004.898 2.004 2.005v13.07a2.005 2.005 0 0 1-4.009 0v-13.07c0-1.107.898-2.005 2.005-2.005ZM102.815 71.43c0-1.107.898-2.004 2.005-2.004h20.13a2.004 2.004 0 0 1 0 4.009h-20.13a2.005 2.005 0 0 1-2.005-2.005ZM102.815 95.426c0-1.107.898-2.004 2.005-2.004h20.13a2.004 2.004 0 0 1 0 4.009h-20.13a2.005 2.005 0 0 1-2.005-2.005ZM102.815 88.508c0-1.107.898-2.004 2.005-2.004h20.13a2.004 2.004 0 0 1 0 4.009h-20.13a2.005 2.005 0 0 1-2.005-2.005Z" fill="#373F47"></path><path d="M71.714 110.582c12.386 0 22.427-10.041 22.427-22.428 0-12.386-10.04-22.427-22.427-22.427s-22.428 10.04-22.428 22.427 10.041 22.428 22.428 22.428Z" fill="#F2F4F5"></path><path d="m88.8 74.079-8.783-7.808-7.249-.556.278 21.468h21.75L88.8 74.08Z" fill="#fff"></path><path fill-rule="evenodd" clip-rule="evenodd" d="M71.714 67.728c-11.28 0-20.423 9.144-20.423 20.423 0 11.28 9.144 20.423 20.423 20.423 11.28 0 20.423-9.144 20.423-20.423 0-11.28-9.144-20.423-20.423-20.423ZM47.282 88.15c0-13.494 10.938-24.432 24.432-24.432 13.493 0 24.432 10.938 24.432 24.432 0 13.493-10.939 24.432-24.432 24.432-13.494 0-24.432-10.939-24.432-24.432Z" fill="#373F47"></path><path fill-rule="evenodd" clip-rule="evenodd" d="M71.713 63.715c1.108 0 2.005.897 2.005 2.004v20.424h20.423a2.005 2.005 0 0 1 0 4.009H71.713a2.005 2.005 0 0 1-2.004-2.005V65.719c0-1.107.897-2.004 2.004-2.004Z" fill="#373F47"></path></g></svg>