<svg width="48" height="48" viewBox="0 0 48 48" fill="none" xmlns="http://www.w3.org/2000/svg">
<path d="M36.952 35.2001H35.276V41.9201L23.784 35.2001H9.94002C9.21687 35.2001 8.50081 35.0576 7.83271 34.7809C7.16461 34.5042 6.55756 34.0985 6.04621 33.5872C5.53487 33.0759 5.12926 32.4688 4.85252 31.8007C4.57578 31.1326 4.43335 30.4165 4.43335 29.6934V11.0494C4.43335 9.58893 5.01351 8.18829 6.04621 7.15559C7.07892 6.12289 8.47956 5.54272 9.94002 5.54272H36.952C38.4125 5.54272 39.8131 6.12289 40.8458 7.15559C41.8785 8.18829 42.4587 9.58893 42.4587 11.0494V29.6961C42.458 31.1561 41.8775 32.556 40.8449 33.5881C39.8123 34.6203 38.412 35.2001 36.952 35.2001Z" fill="#EDEDEA"/>
<path d="M36.952 35.2001H35.276V41.9201L23.784 35.2001H9.94002C9.21687 35.2001 8.50081 35.0576 7.83271 34.7809C7.16461 34.5042 6.55756 34.0985 6.04621 33.5872C5.53487 33.0759 5.12926 32.4688 4.85252 31.8007C4.57578 31.1326 4.43335 30.4165 4.43335 29.6934V11.0494C4.43335 9.58893 5.01351 8.18829 6.04621 7.15559C7.07892 6.12289 8.47956 5.54272 9.94002 5.54272H36.952C38.4125 5.54272 39.8131 6.12289 40.8458 7.15559C41.8785 8.18829 42.4587 9.58893 42.4587 11.0494V29.6961C42.458 31.1561 41.8775 32.556 40.8449 33.5881C39.8123 34.6203 38.412 35.2001 36.952 35.2001V35.2001Z" stroke="#333C44" stroke-width="1.57733" stroke-linecap="round" stroke-linejoin="round"/>
<path d="M23.24 28.236L16.1627 21.6306C15.2609 20.7897 14.7302 19.625 14.6872 18.3928C14.6442 17.1606 15.0924 15.9617 15.9333 15.06C16.7742 14.1582 17.9389 13.6275 19.1712 13.5845C20.4034 13.5415 21.6023 13.9897 22.504 14.8306L23.324 15.5946L24.3067 14.7013C25.2188 13.8724 26.4229 13.4398 27.654 13.4987C28.8851 13.5576 30.0424 14.1031 30.8713 15.0153C31.7002 15.9275 32.1328 17.1316 32.0739 18.3627C32.015 19.5938 31.4695 20.7511 30.5573 21.58L23.24 28.236Z" fill="white"/>
<path d="M23.24 28.236L16.1627 21.6306C15.2609 20.7897 14.7302 19.625 14.6872 18.3928C14.6442 17.1606 15.0924 15.9617 15.9333 15.06C16.7742 14.1582 17.9389 13.6275 19.1712 13.5845C20.4034 13.5415 21.6023 13.9897 22.504 14.8306L23.324 15.5946L24.3067 14.7013C25.2188 13.8724 26.4229 13.4398 27.654 13.4987C28.8851 13.5576 30.0424 14.1031 30.8713 15.0153C31.7002 15.9275 32.1328 17.1316 32.0739 18.3627C32.015 19.5938 31.4695 20.7511 30.5573 21.58L23.24 28.236Z" stroke="#333C44" stroke-width="1.57733" stroke-linecap="round" stroke-linejoin="round"/>
</svg>
