<svg fill="none" xmlns="http://www.w3.org/2000/svg" viewBox="0 0 282 160"><g clip-path="url(#custom_catalogs_svg__a)"><path fill="#EBEEEF" d="M0 0h282v160H0z"></path><g opacity="0.25" clip-path="url(#custom_catalogs_svg__b)" fill="#B4BBC3"><path d="M70.773 118c.14.135.29.257.451.366 1.36.773 2.03 1.983 1.933 3.497-.092 1.445-.9 2.497-2.267 3.068-2.025.85-3.889-.445-4.481-1.627-.896-1.788-.387-3.642 1.275-4.76.246-.16.457-.361.68-.544h2.41ZM53.627 118c.47.398.964.769 1.403 1.199 1.01.992 1.165 2.192.782 3.498-.37 1.264-1.262 2.014-2.488 2.363-1.877.534-3.294-.508-3.95-1.568-.896-1.445-.746-3.068.398-4.36.3-.341.75-.547 1.126-.825.114-.095.22-.197.32-.307h2.41ZM36.23 131.036c-2.07.097-3.534-1.714-3.556-3.517-.024-1.942 1.559-3.603 3.704-3.604 1.75 0 3.517 1.606 3.516 3.57 0 1.827-1.57 3.693-3.664 3.551ZM56.32 156.202c.117 1.984-1.65 3.618-3.635 3.574-1.814-.041-3.433-1.455-3.494-3.684-.051-1.825 1.842-3.579 3.555-3.543 1.856.039 3.716 1.6 3.574 3.653ZM72.757 156.134c.088 2.231-1.655 3.642-3.632 3.642-1.778 0-3.542-1.594-3.471-3.613.075-2.063 1.551-3.543 3.629-3.604 1.646-.049 3.743 1.685 3.474 3.575ZM32.514 150.449c1.873-.343 3.633 1.895 3.568 3.476-.086 2.063-1.573 3.607-3.647 3.611a3.629 3.629 0 0 1-3.578-3.633c0-1.911 1.65-3.716 3.657-3.454ZM44.495 145.348c-2.154.112-3.585-1.751-3.596-3.479-.015-1.956 1.708-3.712 3.72-3.626 1.952.085 3.485 1.597 3.482 3.602-.003 2.005-1.533 3.503-3.606 3.503ZM111.016 153.519a3.591 3.591 0 0 1-2.258 3.333 3.59 3.59 0 0 1-1.392.257c-1.932 0-3.602-1.744-3.577-3.722.026-2.004 1.672-3.293 4.047-3.391 1.42-.058 3.333 1.838 3.18 3.523ZM102.372 138.596c.087 2.126-1.594 3.582-3.542 3.591a3.592 3.592 0 0 1-2.559-1.095 3.58 3.58 0 0 1-1.002-2.596c.078-1.972 1.577-3.492 3.588-3.492s3.515 1.522 3.515 3.592ZM19.62 138.522c-.256-1.968 1.946-3.619 3.591-3.542 1.97.093 3.45 1.579 3.508 3.588.056 2.009-1.658 3.63-3.557 3.619-1.956-.011-3.664-1.472-3.543-3.665ZM77.433 145.348c-2 .261-3.632-1.958-3.558-3.571a3.63 3.63 0 0 1 3.558-3.528c1.902-.061 3.653 1.559 3.643 3.618-.004 1.792-1.412 3.603-3.643 3.481ZM89.194 127.484c.26 2.059-1.842 3.671-3.498 3.579-2.032-.113-3.564-1.558-3.594-3.578-.027-1.842 1.642-3.67 3.663-3.559 2.056.112 3.43 1.442 3.43 3.558ZM93.02 153.924c0 2.069-1.49 3.612-3.488 3.61-2.055 0-3.6-1.558-3.597-3.63 0-2.023 1.559-3.455 3.768-3.455 1.975 0 3.317 1.406 3.317 3.475ZM64.538 137.46c.195 1.835-1.8 3.528-3.542 3.531-1.637 0-3.636-1.593-3.592-3.672.035-1.652 1.558-3.534 3.59-3.534 2.004.002 3.795 1.843 3.544 3.675ZM18.06 153.499c0 2.067-1.488 3.61-3.485 3.61a3.61 3.61 0 0 1-3.335-2.243 3.598 3.598 0 0 1-.264-1.387c0-1.994 1.568-3.455 3.702-3.455 2.035 0 3.383 1.383 3.383 3.475Z"></path></g><g opacity="0.25" clip-path="url(#custom_catalogs_svg__c)" fill="#B4BBC3"><path d="M119.364 42c-.453-.381-.932-.737-1.354-1.15-1.1-1.075-1.328-2.45-.696-3.951.509-1.21 1.74-1.888 3.134-2.007 1.919-.164 3.326 1.35 3.624 2.704a3.699 3.699 0 0 1-1.913 4.071 2.027 2.027 0 0 0-.386.333h-2.409ZM102.219 42a2.796 2.796 0 0 0-.45-.364c-1.251-.656-2.091-2.16-1.96-3.555.133-1.396 1.156-2.701 2.472-3.053 2.308-.615 4.411.654 4.632 2.89.157 1.592-.399 2.82-1.842 3.702a3.548 3.548 0 0 0-.443.38h-2.409ZM83.459 2.466c2.057 0 3.6 1.558 3.598 3.631 0 1.957-1.678 3.594-3.684 3.595-1.82 0-3.597-1.78-3.535-3.63.073-2.103 1.787-3.626 3.62-3.596ZM162.016 6.51c0 1.951-1.682 3.6-3.675 3.607-1.784 0-3.551-1.758-3.551-3.542a3.708 3.708 0 0 1 3.684-3.684c1.938 0 3.542 1.64 3.542 3.619ZM87.289 36.049c-2.02.107-3.6-1.56-3.616-3.517-.017-1.773 1.452-3.663 3.647-3.585 2.02.072 3.543 1.558 3.568 3.585.02 1.891-1.706 3.724-3.599 3.517ZM144.02 6.083c.257 1.832-1.472 3.56-3.525 3.604-1.884.04-3.564-1.708-3.56-3.648 0-2.043 1.58-3.573 3.663-3.573 1.936 0 3.422 1.578 3.422 3.617ZM95.594 14.652c1.951-.251 3.61 1.941 3.529 3.602-.097 1.954-1.597 3.436-3.601 3.498-1.924.061-3.657-1.682-3.623-3.648.03-1.725 1.454-3.607 3.695-3.452ZM70.62 21.41c-.091-2.126 1.575-3.583 3.542-3.597a3.58 3.58 0 0 1 3.567 3.684c-.083 1.974-1.583 3.499-3.588 3.499s-3.522-1.52-3.522-3.586ZM153.372 21.497c.248 1.937-1.938 3.605-3.612 3.522-1.961-.1-3.433-1.589-3.487-3.608-.054-2.02 1.701-3.628 3.581-3.598 1.994.031 3.65 1.523 3.518 3.684ZM103.832.34c1.894-.272 3.615 1.842 3.517 3.493-.123 2.065-1.558 3.543-3.645 3.608-1.571.05-3.645-1.6-3.502-3.659.145-2.09 1.438-3.442 3.63-3.442ZM123.757 3.914c.254 1.804-1.788 3.542-3.459 3.534-1.894 0-3.717-1.593-3.644-3.676.076-2.168 1.456-3.408 3.916-3.442 1.701-.023 3.397 1.742 3.187 3.584ZM69.06 6.537c.253 1.792-1.47 3.542-3.542 3.575-1.849.025-3.542-1.72-3.542-3.604a3.632 3.632 0 0 1 3.55-3.617c1.758-.034 3.818 1.565 3.535 3.646ZM128.481 14.652c2.154-.097 3.575 1.644 3.599 3.466.029 2.039-1.707 3.712-3.695 3.636-1.958-.075-3.496-1.586-3.494-3.585 0-2.03 1.523-3.517 3.59-3.517ZM140.194 32.541c0 2.126-1.387 3.433-3.527 3.532-1.842.085-3.586-1.638-3.57-3.584.015-1.8 1.567-3.625 3.698-3.542 2.036.079 3.399 1.45 3.399 3.595ZM108.453 22.577c-.209-1.882 1.818-3.585 3.577-3.567 1.634.016 3.581 1.619 3.559 3.634-.019 1.743-1.622 3.599-3.624 3.57-2.042-.03-3.751-1.898-3.512-3.637Z"></path></g><g opacity="0.25" clip-path="url(#custom_catalogs_svg__d)" fill="#B4BBC3"><path d="M283.773 14c.14.135.29.257.451.366 1.36.773 2.029 1.983 1.933 3.497-.092 1.445-.9 2.497-2.267 3.068-2.025.85-3.889-.445-4.481-1.627-.896-1.788-.387-3.642 1.275-4.76.245-.16.457-.361.68-.544h2.409ZM266.627 14c.469.398.964.77 1.403 1.199 1.011.992 1.165 2.192.782 3.498-.371 1.264-1.262 2.014-2.488 2.363-1.877.534-3.294-.508-3.95-1.568-.896-1.445-.746-3.068.398-4.36.3-.341.751-.547 1.126-.825.114-.095.221-.197.32-.307h2.409ZM221 65.296c.381-.454.737-.933 1.151-1.355 1.055-1.08 2.448-1.338 3.888-.719 1.024.442 2.016 1.681 2.094 3.166.116 2.243-1.924 3.88-3.785 3.722-1.364-.116-2.37-.802-3.014-2.02a2.217 2.217 0 0 0-.334-.386v-2.408ZM281.364 119c-.453-.381-.932-.737-1.354-1.151-1.1-1.074-1.328-2.45-.696-3.95.509-1.21 1.74-1.888 3.134-2.007 1.919-.164 3.326 1.351 3.624 2.704a3.7 3.7 0 0 1-1.913 4.071 2.01 2.01 0 0 0-.386.333h-2.409ZM264.219 119a2.758 2.758 0 0 0-.45-.364c-1.251-.656-2.091-2.16-1.959-3.555.132-1.396 1.155-2.701 2.471-3.053 2.308-.615 4.411.654 4.632 2.89.157 1.592-.399 2.821-1.842 3.702a3.653 3.653 0 0 0-.443.38h-2.409ZM261.101 66.494c0 2.05-1.535 3.622-3.542 3.618-2.089 0-3.661-1.627-3.648-3.554.014-2.17 1.502-3.564 3.618-3.656 1.944-.085 3.572 1.608 3.572 3.592ZM245.459 79.466c2.057 0 3.601 1.558 3.598 3.631 0 1.957-1.678 3.594-3.684 3.595-1.82 0-3.597-1.78-3.534-3.63.072-2.103 1.786-3.626 3.62-3.596ZM277.538 66.629c.142 1.887-1.785 3.528-3.571 3.498-1.785-.03-3.617-1.572-3.531-3.698.08-1.967 1.586-3.558 3.556-3.531 2.158.027 3.716 1.794 3.546 3.73ZM249.23 27.036c-2.069.097-3.534-1.714-3.556-3.517-.024-1.942 1.559-3.603 3.704-3.604 1.75 0 3.517 1.606 3.516 3.57 0 1.827-1.57 3.693-3.664 3.551ZM249.289 113.049c-2.021.107-3.599-1.559-3.616-3.517-.017-1.773 1.452-3.663 3.647-3.585 2.021.072 3.543 1.558 3.568 3.585.02 1.891-1.706 3.723-3.599 3.517ZM269.32 52.202c.118 1.984-1.651 3.618-3.635 3.574-1.813-.041-3.433-1.455-3.494-3.684-.051-1.825 1.842-3.58 3.555-3.543 1.856.039 3.716 1.6 3.574 3.653ZM285.757 52.134c.088 2.23-1.655 3.642-3.632 3.642-1.778 0-3.542-1.594-3.471-3.613.075-2.063 1.551-3.543 3.629-3.604 1.646-.05 3.743 1.685 3.474 3.575ZM245.514 46.45c1.874-.344 3.633 1.894 3.568 3.475-.086 2.063-1.573 3.607-3.647 3.61a3.624 3.624 0 0 1-3.578-3.632c0-1.91 1.649-3.716 3.657-3.454ZM257.495 41.348c-2.154.112-3.585-1.751-3.596-3.479-.015-1.956 1.708-3.712 3.721-3.626 1.951.085 3.484 1.597 3.481 3.602-.003 2.005-1.533 3.503-3.606 3.503ZM257.594 91.652c1.951-.251 3.611 1.941 3.529 3.602-.097 1.954-1.597 3.436-3.601 3.498-1.924.061-3.657-1.682-3.623-3.648.029-1.725 1.454-3.607 3.695-3.452ZM232.619 34.523c-.255-1.969 1.947-3.62 3.593-3.543 1.969.093 3.45 1.579 3.507 3.588.056 2.01-1.658 3.63-3.557 3.619-1.956-.011-3.664-1.472-3.543-3.664ZM232.62 98.41c-.091-2.126 1.575-3.583 3.542-3.597a3.573 3.573 0 0 1 2.56 1.09 3.575 3.575 0 0 1 1.007 2.594c-.083 1.974-1.583 3.499-3.588 3.499s-3.521-1.521-3.521-3.587ZM265.832 77.34c1.894-.272 3.615 1.842 3.517 3.493-.123 2.064-1.558 3.542-3.645 3.608-1.571.05-3.645-1.6-3.502-3.66.145-2.09 1.438-3.441 3.63-3.441ZM285.757 80.914c.254 1.804-1.788 3.542-3.459 3.534-1.894 0-3.717-1.593-3.644-3.676.076-2.168 1.456-3.408 3.916-3.442 1.701-.022 3.397 1.742 3.187 3.584ZM231.061 83.537c.252 1.792-1.471 3.542-3.543 3.575-1.849.025-3.542-1.72-3.542-3.604a3.63 3.63 0 0 1 3.551-3.618c1.757-.033 3.817 1.567 3.534 3.647ZM244.664 66.489c0 1.924-1.682 3.624-3.599 3.624-1.889 0-3.646-1.676-3.619-3.527.028-1.998 1.397-3.634 3.592-3.657 2.166-.021 3.569 1.685 3.626 3.56ZM277.538 33.46c.195 1.835-1.801 3.528-3.542 3.53-1.637 0-3.636-1.592-3.592-3.67.035-1.653 1.558-3.535 3.589-3.535 2.005.002 3.796 1.843 3.545 3.675ZM270.453 99.577c-.209-1.882 1.818-3.585 3.577-3.567 1.634.016 3.581 1.619 3.559 3.634-.019 1.743-1.622 3.599-3.624 3.571-2.042-.03-3.751-1.899-3.512-3.638ZM231.061 49.499c0 2.067-1.49 3.61-3.486 3.61a3.602 3.602 0 0 1-3.335-2.243 3.584 3.584 0 0 1-.264-1.387c0-1.994 1.568-3.455 3.702-3.455 2.035 0 3.383 1.383 3.383 3.475Z"></path></g><path d="m140.683 107.864-.651-.267c-14.688-5.848-28.643-5.848-43.33 0l-.651.267v-52.69c14.634-6.014 28.602-6.19 43.362-.489l1.27.488" fill="#fff"></path><path d="m185.469 107.864-.648-.267c-14.688-5.848-28.645-5.848-43.333 0l-.648.267v-52.69c14.635-6.014 28.603-6.19 43.36-.489l1.267.488.002 52.691Z" fill="#94CBE8"></path><path d="M162.544 61.91h-11.803v11.802h11.803V61.909ZM162.544 81.704h-11.803v11.803h11.803V81.704Z" fill="#fff"></path><path d="m185.469 107.864-.648-.267c-14.688-5.848-28.645-5.848-43.333 0l-.648.267v-52.69c14.635-6.014 28.603-6.19 43.36-.489l1.267.488.002 52.691ZM140.683 107.864l-.651-.267c-14.688-5.848-28.643-5.848-43.33 0l-.651.267v-52.69c14.634-6.014 28.602-6.19 43.362-.489l1.27.488" stroke="#333C44" stroke-width="3" stroke-linecap="round" stroke-linejoin="round"></path><path d="M116.92 61.91h-11.803v11.802h11.803V61.909ZM116.92 81.704h-11.803v11.803h11.803V81.704Z" fill="#94CBE8"></path><path d="M116.92 61.91h-11.803v11.802h11.803V61.909ZM116.92 81.704h-11.803v11.803h11.803V81.704ZM162.544 61.91h-11.803v11.802h11.803V61.909ZM162.544 81.704h-11.803v11.803h11.803V81.704ZM123.2 67.81h9.299M123.2 87.605h9.299M169.067 67.81h9.296M169.067 87.605h9.296" stroke="#333C44" stroke-width="3" stroke-linecap="round" stroke-linejoin="round"></path></g><defs><clipPath id="custom_catalogs_svg__a"><path fill="#fff" d="M0 0h282v160H0z"></path></clipPath><clipPath id="custom_catalogs_svg__b"><path fill="#fff" transform="translate(8 118)" d="M0 0h105.992v105H0z"></path></clipPath><clipPath id="custom_catalogs_svg__c"><path fill="#fff" transform="translate(59 -63)" d="M0 0h105.992v105H0z"></path></clipPath><clipPath id="custom_catalogs_svg__d"><path fill="#fff" transform="translate(221 14)" d="M0 0h105.992v105H0z"></path></clipPath></defs></svg>