<svg fill="none" xmlns="http://www.w3.org/2000/svg" viewBox="0 0 282 160"><g clip-path="url(#update_svg__a)"><path fill="#EBEEEF" d="M0 0h282v160H0z"></path><g opacity="0.25" fill="#B4BBC3"><path d="M6.177 97.127a3.535 3.535 0 0 1 3.64-3.487 3.6 3.6 0 0 1 3.505 3.528c.028 1.877-1.712 3.619-3.6 3.6a3.683 3.683 0 0 1-3.545-3.64ZM50.063 97.19c-.026 1.92-1.723 3.612-3.614 3.576-1.891-.036-3.518-1.697-3.53-3.543a3.583 3.583 0 0 1 3.686-3.583 3.54 3.54 0 0 1 3.458 3.55ZM6.177 133a3.58 3.58 0 0 1 3.559-3.583 3.67 3.67 0 0 1 3.586 3.6c-.015 1.838-1.68 3.516-3.526 3.549-1.903.034-3.61-1.646-3.62-3.566ZM86.8 132.957a3.578 3.578 0 0 1-3.547 3.6c-1.882.017-3.617-1.733-3.581-3.6a3.685 3.685 0 0 1 3.657-3.533 3.544 3.544 0 0 1 3.47 3.533ZM50.063 133c-.014 1.92-1.728 3.6-3.629 3.55-1.845-.039-3.508-1.721-3.515-3.56a3.673 3.673 0 0 1 3.6-3.583A3.573 3.573 0 0 1 50.063 133ZM9.76 118.6a3.51 3.51 0 0 1-3.6-3.526c.012-1.881 1.64-3.564 3.47-3.588 1.92-.024 3.658 1.644 3.675 3.526A3.574 3.574 0 0 1 9.76 118.6ZM46.557 118.6a3.564 3.564 0 0 1-3.639-3.509c-.04-1.869 1.64-3.552 3.6-3.6 1.863-.045 3.562 1.68 3.55 3.622a3.503 3.503 0 0 1-3.511 3.487ZM61.36 132.981a3.507 3.507 0 0 1 3.545-3.564c1.886.024 3.561 1.665 3.569 3.492 0 1.92-1.669 3.65-3.55 3.65a3.548 3.548 0 0 1-2.527-1.047 3.567 3.567 0 0 1-1.037-2.531ZM24.616 132.916a3.504 3.504 0 0 1 1.06-2.511 3.506 3.506 0 0 1 2.54-.988c1.973.06 3.444 1.656 3.406 3.696a3.507 3.507 0 1 1-7.008-.197h.002ZM9.671 154.384a3.493 3.493 0 0 1-3.494-3.487c0-2.014 1.615-3.562 3.7-3.519a3.506 3.506 0 0 1-.206 7.006ZM46.48 154.384a3.505 3.505 0 1 1 3.58-3.521 3.524 3.524 0 0 1-2.216 3.268c-.433.174-.897.26-1.364.253ZM86.8 115.127a3.487 3.487 0 0 1-1.07 2.505 3.48 3.48 0 0 1-2.547.968 3.582 3.582 0 0 1-3.511-3.631c.053-1.819 1.754-3.459 3.6-3.478 1.846-.019 3.542 1.697 3.528 3.636ZM86.8 97.154a3.655 3.655 0 0 1-3.547 3.6c-1.774.021-3.545-1.716-3.581-3.512-.038-1.941 1.68-3.636 3.665-3.614a3.483 3.483 0 0 1 3.463 3.526ZM61.36 97.149a3.477 3.477 0 0 1 3.578-3.509c1.875.026 3.536 1.68 3.533 3.506 0 1.896-1.68 3.584-3.588 3.6-1.908.017-3.523-1.586-3.523-3.597ZM64.847 154.382a3.438 3.438 0 0 1-3.487-3.6c.034-1.935 1.586-3.408 3.576-3.399a3.494 3.494 0 0 1 2.463 1.057 3.502 3.502 0 0 1-2.552 5.946v-.004ZM64.862 118.6a3.468 3.468 0 0 1-3.24-2.146 3.462 3.462 0 0 1-.262-1.341 3.555 3.555 0 0 1 3.555-3.6c1.888-.015 3.6 1.742 3.556 3.643-.043 1.901-1.709 3.444-3.61 3.444ZM24.618 115a3.505 3.505 0 1 1 7.004.149 3.442 3.442 0 0 1-2.174 3.21 3.444 3.444 0 0 1-1.342.241c-2.007 0-3.51-1.558-3.488-3.6ZM83.26 154.382a3.5 3.5 0 0 1-2.476-5.978 3.5 3.5 0 1 1 4.952 4.952 3.5 3.5 0 0 1-2.476 1.026ZM24.619 97.163a3.502 3.502 0 1 1 7.003.041 3.502 3.502 0 0 1-7.003-.04ZM31.622 151c-.041 2.011-1.604 3.446-3.682 3.382-1.946-.063-3.36-1.606-3.322-3.622.039-2.016 1.604-3.446 3.682-3.382 1.946.063 3.362 1.606 3.322 3.622Z"></path></g><g opacity="0.25" fill="#B4BBC3"><path d="M253.578 86.12a3.546 3.546 0 0 1-3.401-3.6c.06-1.932 1.802-3.6 3.67-3.518 1.92.086 3.588 1.862 3.472 3.717a3.598 3.598 0 0 1-3.741 3.401ZM253.714 50.343a3.575 3.575 0 0 1-3.537-3.6c.019-1.92 1.745-3.6 3.641-3.538 1.848.049 3.504 1.736 3.504 3.572a3.671 3.671 0 0 1-3.608 3.566ZM216.908 50.34a3.533 3.533 0 0 1-3.468-3.657 3.6 3.6 0 0 1 3.549-3.482c1.882-.015 3.617 1.735 3.581 3.612a3.682 3.682 0 0 1-3.662 3.528ZM213.44 11.046a3.539 3.539 0 0 1 3.499-3.63 3.69 3.69 0 0 1 3.631 3.562c0 1.839-1.641 3.533-3.494 3.581a3.602 3.602 0 0 1-3.636-3.513ZM250.177 11a3.575 3.575 0 0 1 3.559-3.583 3.674 3.674 0 0 1 3.586 3.6c-.015 1.838-1.68 3.516-3.526 3.55-1.903.033-3.61-1.647-3.619-3.567ZM253.729 61.16a3.564 3.564 0 0 1 3.32 2.184c.183.433.278.898.28 1.368 0 1.872-1.707 3.552-3.639 3.56-1.872 0-3.544-1.743-3.506-3.673a3.508 3.508 0 0 1 3.545-3.439ZM238.88 46.76a3.494 3.494 0 0 1-1.006 2.538 3.506 3.506 0 0 1-2.522 1.045c-1.882-.014-3.564-1.644-3.586-3.475-.024-1.92 1.652-3.655 3.531-3.667a3.555 3.555 0 0 1 3.31 2.191c.18.434.273.898.273 1.368ZM238.88 10.957a3.555 3.555 0 0 1-3.54 3.6c-1.87.019-3.554-1.695-3.571-3.627-.015-1.87 1.733-3.547 3.66-3.513a3.5 3.5 0 0 1 3.451 3.54ZM268.616 10.916a3.505 3.505 0 0 1 2.23-3.262c.436-.17.902-.25 1.37-.237 1.973.06 3.444 1.656 3.406 3.696a3.514 3.514 0 0 1-1.067 2.505 3.508 3.508 0 0 1-5.941-2.702h.002ZM253.671 32.384a3.494 3.494 0 0 1-3.494-3.487c0-2.014 1.615-3.562 3.701-3.519a3.502 3.502 0 0 1 3.399 3.607 3.51 3.51 0 0 1-3.606 3.4ZM268.616 46.693a3.5 3.5 0 0 1 2.275-3.14 3.505 3.505 0 0 1 4.438 4.695 3.504 3.504 0 0 1-3.262 2.095c-1.975-.033-3.475-1.617-3.451-3.65ZM216.956 61.16a3.576 3.576 0 0 1 3.612 3.53c.034 1.83-1.74 3.579-3.626 3.579-1.822.002-3.478-1.659-3.502-3.538a3.473 3.473 0 0 1 3.516-3.571ZM217.011 86.12a3.491 3.491 0 0 1-3.571-3.403 3.663 3.663 0 0 1 3.559-3.723c1.776-.014 3.543 1.728 3.569 3.521.029 1.899-1.634 3.583-3.557 3.605ZM238.88 82.609a3.467 3.467 0 0 1-1.04 2.515 3.484 3.484 0 0 1-2.534.996c-1.876-.024-3.537-1.668-3.537-3.502 0-1.9 1.68-3.583 3.585-3.614 1.906-.031 3.526 1.596 3.526 3.605ZM235.254 32.382a3.51 3.51 0 0 1-2.509-1.061 3.499 3.499 0 0 1-.99-2.537 3.497 3.497 0 0 1 2.312-3.202 3.501 3.501 0 0 1 1.374-.204 3.44 3.44 0 0 1 3.439 3.536c0 2.006-1.574 3.494-3.626 3.468ZM235.345 61.16a3.468 3.468 0 0 1 3.535 3.451 3.556 3.556 0 0 1-3.518 3.634c-1.884.04-3.6-1.695-3.6-3.6.024-1.858 1.689-3.485 3.583-3.485ZM275.622 64.782a3.496 3.496 0 0 1-2.224 3.267 3.502 3.502 0 0 1-4.575-2.07 3.5 3.5 0 0 1-.205-1.375 3.438 3.438 0 0 1 3.531-3.444c2.011 0 3.499 1.57 3.473 3.622ZM216.961 32.382a3.504 3.504 0 0 1-3.479-3.525 3.502 3.502 0 1 1 3.479 3.525ZM268.618 82.48a3.512 3.512 0 0 1 2.234-3.255 3.501 3.501 0 0 1 4.566 2.075c.159.44.228.907.204 1.374a3.474 3.474 0 0 1-1.047 2.464 3.459 3.459 0 0 1-2.491.982c-1.992-.014-3.494-1.594-3.466-3.64ZM275.622 29c-.041 2.011-1.604 3.447-3.682 3.382-1.946-.063-3.36-1.606-3.322-3.622.039-2.016 1.604-3.446 3.682-3.382 1.946.063 3.362 1.606 3.322 3.622Z"></path></g><path d="M136.861 54.928h40.091v59.021h-73.395V56.664" fill="#EBF9F9"></path><path d="M136.861 54.928h40.091v59.021h-73.395V56.664" stroke="#333C44" stroke-width="3" stroke-linecap="round" stroke-linejoin="round"></path><path d="M127.541 65.565h-14.368v14.368h14.368V65.565Z" fill="#EDEDEA"></path><path d="M127.541 65.565h-14.368v14.368h14.368V65.565Z" fill="#80D3D1" stroke="#333C44" stroke-width="3" stroke-linecap="round" stroke-linejoin="round"></path><path d="M127.541 89.608h-14.368v14.368h14.368V89.608Z" fill="#EDEDEA"></path><path d="M127.541 89.608h-14.368v14.368h14.368V89.608ZM136.36 68.528h25.315M136.36 77.061h31.976M120.285 58.11l-.242-14.18M107.611 47.864l6.256 10.245M133.109 46.97l-6.466 11.14M136.36 92.795h25.315M136.36 101.328h31.976" stroke="#333C44" stroke-width="3" stroke-linecap="round" stroke-linejoin="round"></path></g><defs><clipPath id="update_svg__a"><path fill="#fff" d="M0 0h282v160H0z"></path></clipPath></defs></svg>