<svg fill="none" xmlns="http://www.w3.org/2000/svg" viewBox="0 0 282 160"><g clip-path="url(#integration_svg__a)"><path fill="#EBEEEF" d="M0 0h282v160H0z"></path><g clip-path="url(#integration_svg__b)"><g opacity="0.25" clip-path="url(#integration_svg__c)" fill="#B4BBC3"><path d="M5.137 150.32a3.626 3.626 0 0 1 3.583-3.56 3.607 3.607 0 0 1 3.562 3.648 3.605 3.605 0 0 1-3.648 3.561 3.616 3.616 0 0 1-3.497-3.649ZM30.857 150.305a3.618 3.618 0 0 1-3.482 3.661 3.602 3.602 0 0 1-3.675-4.21 3.607 3.607 0 0 1 4.864-2.75 3.606 3.606 0 0 1 2.293 3.299ZM5.137 132.247a3.611 3.611 0 0 1 3.506-3.622 3.66 3.66 0 0 1 3.67 3.643 3.597 3.597 0 0 1-3.616 3.522 3.56 3.56 0 0 1-3.56-3.543ZM30.857 132.247a3.561 3.561 0 0 1-3.56 3.56 3.6 3.6 0 0 1-3.616-3.539 3.66 3.66 0 0 1 3.652-3.643 3.614 3.614 0 0 1 3.524 3.622ZM45.839 92.402a3.571 3.571 0 1 1-.05 7.142 3.571 3.571 0 0 1 .05-7.142ZM42.264 132.158a3.64 3.64 0 0 1 3.62-3.533 3.585 3.585 0 0 1 3.518 3.75 3.5 3.5 0 0 1-2.3 3.217c-.44.16-.908.23-1.376.206a3.558 3.558 0 0 1-3.462-3.64ZM42.264 150.341a3.618 3.618 0 0 1 3.56-3.578 3.6 3.6 0 0 1-.044 7.203 3.622 3.622 0 0 1-3.516-3.625ZM67.997 150.382a3.596 3.596 0 0 1-3.56 3.581 3.599 3.599 0 0 1-3.48-3.619 3.603 3.603 0 0 1 3.519-3.581 3.602 3.602 0 0 1 3.521 3.619ZM64.392 99.546a3.574 3.574 0 1 1 .134-7.147 3.574 3.574 0 0 1-.133 7.147ZM8.774 110.511a3.63 3.63 0 0 1 3.54 3.607 3.588 3.588 0 0 1-3.73 3.542 3.519 3.519 0 0 1-3.441-3.658 3.565 3.565 0 0 1 2.262-3.248c.436-.17.901-.253 1.369-.243ZM27.333 110.51a3.554 3.554 0 0 1 2.509 1.064 3.56 3.56 0 0 1 1.021 2.526 3.519 3.519 0 0 1-3.684 3.56 3.585 3.585 0 0 1-3.486-3.64 3.63 3.63 0 0 1 3.64-3.51ZM60.856 113.952a3.559 3.559 0 0 1 1.122-2.485 3.563 3.563 0 0 1 5.998 2.707 3.522 3.522 0 0 1-3.738 3.483 3.496 3.496 0 0 1-3.382-3.705ZM45.904 117.66a3.56 3.56 0 0 1-3.64-3.471 3.618 3.618 0 0 1 2.21-3.395 3.614 3.614 0 0 1 1.395-.283 3.54 3.54 0 0 1 3.274 2.199c.176.432.265.894.262 1.361a3.48 3.48 0 0 1-3.5 3.589ZM5.142 96.007a3.533 3.533 0 0 1 3.501-3.605 3.573 3.573 0 0 1 .071 7.144 3.56 3.56 0 0 1-3.572-3.54ZM27.312 74.276a3.528 3.528 0 0 1 3.543 3.56 3.593 3.593 0 0 1-3.522 3.601 3.643 3.643 0 0 1-3.64-3.663 3.583 3.583 0 0 1 3.62-3.498ZM5.143 77.874a3.522 3.522 0 0 1 3.5-3.595 3.581 3.581 0 0 1 3.667 3.601 3.64 3.64 0 0 1-3.599 3.56 3.59 3.59 0 0 1-3.568-3.566Z"></path></g></g><g opacity="0.25" clip-path="url(#integration_svg__d)" fill="#B4BBC3"><path d="M200.78 24.137a3.625 3.625 0 0 0-3.56 3.604 3.663 3.663 0 0 0 3.599 3.56 3.617 3.617 0 0 0 3.598-3.696 3.58 3.58 0 0 0-3.637-3.468ZM200.884 49.86a3.589 3.589 0 1 0-.206-7.174 3.589 3.589 0 0 0 .206 7.175ZM215.391 27.73a3.593 3.593 0 0 0 4.319 3.52 3.598 3.598 0 0 0 2.581-4.938 3.601 3.601 0 0 0-5.871-1.107 3.584 3.584 0 0 0-1.029 2.524ZM186.279 27.694a3.535 3.535 0 0 0-3.56-3.56 3.607 3.607 0 0 0-3.616 3.527 3.65 3.65 0 0 0 3.657 3.652 3.591 3.591 0 0 0 3.519-3.62ZM237.151 12.73a3.626 3.626 0 0 0 3.56-3.59 3.565 3.565 0 0 0-2.302-3.334A3.562 3.562 0 0 0 237 5.58a3.475 3.475 0 0 0-3.447 3.631 3.535 3.535 0 0 0 3.598 3.518ZM251.673 64.84a3.561 3.561 0 0 0 2.228 3.284 3.574 3.574 0 0 0 4.916-3.335 3.576 3.576 0 0 0-3.597-3.547 3.574 3.574 0 0 0-3.547 3.597ZM258.817 83.393a3.578 3.578 0 0 0-3.641-3.507 3.576 3.576 0 0 0-3.209 5.002 3.581 3.581 0 0 0 3.343 2.145 3.574 3.574 0 0 0 3.507-3.64ZM269.781 27.774a3.633 3.633 0 0 0 3.608 3.539 3.585 3.585 0 0 0 3.542-3.73 3.52 3.52 0 0 0-3.658-3.44 3.558 3.558 0 0 0-3.492 3.63ZM269.781 46.333a3.553 3.553 0 0 0 1.064 2.509 3.561 3.561 0 0 0 2.526 1.021 3.519 3.519 0 0 0 3.56-3.684 3.587 3.587 0 0 0-3.64-3.486 3.631 3.631 0 0 0-3.51 3.64ZM273.222 79.856a3.558 3.558 0 0 0-2.484 1.122 3.559 3.559 0 0 0 .157 5.034 3.563 3.563 0 0 0 2.55.964 3.522 3.522 0 0 0 3.483-3.738 3.496 3.496 0 0 0-3.706-3.382ZM276.931 64.904a3.561 3.561 0 0 0-3.471-3.64 3.62 3.62 0 0 0-2.594 1.032 3.602 3.602 0 0 0-1.085 2.573 3.54 3.54 0 0 0 3.56 3.536 3.484 3.484 0 0 0 3.59-3.5ZM276.931 9.149a3.488 3.488 0 0 0-1.005-2.528 3.486 3.486 0 0 0-2.516-1.032 3.544 3.544 0 0 0-3.377 2.223 3.557 3.557 0 0 0-.252 1.402 3.619 3.619 0 0 0 3.623 3.516 3.558 3.558 0 0 0 3.527-3.581ZM255.277 24.143a3.528 3.528 0 0 0-3.319 2.142 3.569 3.569 0 0 0 3.251 4.966 3.577 3.577 0 0 0 3.322-2.172c.184-.432.281-.896.285-1.365a3.558 3.558 0 0 0-3.539-3.572ZM218.948 5.59a3.518 3.518 0 0 0-3.56 3.559 3.552 3.552 0 0 0 1.026 2.527 3.558 3.558 0 0 0 3.912.784 3.642 3.642 0 0 0 2.247-3.38 3.588 3.588 0 0 0-3.625-3.49ZM182.663 12.73a3.562 3.562 0 0 0 3.607-3.504 3.483 3.483 0 0 0-3.444-3.637 3.56 3.56 0 0 0-3.718 3.56 3.636 3.636 0 0 0 3.555 3.58ZM164.631 5.589a3.527 3.527 0 0 0-3.625 3.465 3.596 3.596 0 0 0 3.604 3.676 3.561 3.561 0 0 0 3.543-3.56 3.493 3.493 0 0 0-2.155-3.316 3.488 3.488 0 0 0-1.367-.265ZM233.547 46.312a3.535 3.535 0 0 0 1.039 2.516 3.531 3.531 0 0 0 2.521 1.026 3.593 3.593 0 0 0 3.601-3.521 3.627 3.627 0 0 0-1.075-2.581 3.652 3.652 0 0 0-2.589-1.059 3.585 3.585 0 0 0-3.497 3.62ZM237.145 24.142a3.517 3.517 0 0 0-3.314 2.143c-.183.43-.279.891-.281 1.358a3.573 3.573 0 0 0 1.025 2.595 3.586 3.586 0 0 0 2.576 1.072 3.639 3.639 0 0 0 3.56-3.599 3.59 3.59 0 0 0-3.566-3.569Z"></path></g><path d="M110.909 87.523a29.616 29.616 0 0 0 3.158 7.626l-8.534 8.534 10.478 10.477 8.533-8.533a29.418 29.418 0 0 0 7.624 3.154v12.086h14.819v-12.086a29.48 29.48 0 0 0 7.626-3.154l8.534 8.533 10.477-10.477-8.533-8.534a29.535 29.535 0 0 0 3.157-7.626h12.085V72.704h-12.085a29.516 29.516 0 0 0-3.157-7.624l8.533-8.533-10.467-10.488-8.533 8.533a29.587 29.587 0 0 0-7.627-3.157V39.36h-14.829v12.085a30.126 30.126 0 0 0-3.613 1.184 29.37 29.37 0 0 0-4 1.974l-8.534-8.534-10.488 10.464 8.534 8.534a29.557 29.557 0 0 0-3.158 7.624s-1.997 7.576 0 14.832ZM139.933 99.1a19.34 19.34 0 1 1-.005-38.681 19.34 19.34 0 0 1 .005 38.681Z" fill="#94CBE8"></path><path d="M110.909 87.523a29.616 29.616 0 0 0 3.158 7.626l-8.534 8.534 10.478 10.477 8.533-8.533a29.418 29.418 0 0 0 7.624 3.154v12.086h14.819v-12.086a29.48 29.48 0 0 0 7.626-3.154l8.534 8.533 10.477-10.477-8.533-8.534a29.535 29.535 0 0 0 3.157-7.626h12.085V72.704h-12.085a29.516 29.516 0 0 0-3.157-7.624l8.533-8.533-10.467-10.488-8.533 8.533a29.587 29.587 0 0 0-7.627-3.157V39.36h-14.829v12.085a30.126 30.126 0 0 0-3.613 1.184 29.37 29.37 0 0 0-4 1.974l-8.534-8.534-10.488 10.464 8.534 8.534a29.557 29.557 0 0 0-3.158 7.624s-1.997 7.576 0 14.832Z" fill="#80D3D1" stroke="#333C44" stroke-width="3" stroke-linecap="round" stroke-linejoin="round"></path><path d="M140.211 99.101c10.68 0 19.338-8.658 19.338-19.338 0-10.68-8.658-19.339-19.338-19.339-10.681 0-19.339 8.658-19.339 19.339 0 10.68 8.658 19.338 19.339 19.338Z" fill="#F6F8F9" stroke="#333C44" stroke-width="3" stroke-linecap="round" stroke-linejoin="round"></path><path d="m137.339 92.55 17.402-12.534-17.402-13.79v6.902h-36.95a.779.779 0 0 0-.778.779v11.68a.781.781 0 0 0 .778.781h36.95v6.181Z" fill="#fff"></path><path d="m137.339 92.55 17.402-12.534-17.402-13.79v6.902h-36.95a.779.779 0 0 0-.778.779v11.68a.781.781 0 0 0 .778.781h36.95v6.181Z" stroke="#333C44" stroke-width="3" stroke-linecap="round" stroke-linejoin="round"></path></g><defs><clipPath id="integration_svg__a"><path fill="#fff" d="M0 0h282v160H0z"></path></clipPath><clipPath id="integration_svg__b"><path fill="#fff" transform="rotate(-90 133.5 165.5)" d="M0 0h232v100H0z"></path></clipPath><clipPath id="integration_svg__c"><path fill="#fff" transform="rotate(-180 34 149.5)" d="M0 0h100v297.271H0z"></path></clipPath><clipPath id="integration_svg__d"><path fill="#fff" transform="matrix(0 -1 -1 0 458.271 87)" d="M0 0h100v297.271H0z"></path></clipPath></defs></svg>