<svg width="180" height="180" viewBox="0 0 180 180" fill="none" xmlns="http://www.w3.org/2000/svg">
<g clip-path="url(#clip0)">
<rect width="180" height="180" fill="#EBEEEF"/>
<path d="M111.587 108.667H108.793V119.867L89.64 108.667H66.5667C65.3615 108.667 64.168 108.429 63.0545 107.968C61.941 107.507 60.9293 106.831 60.077 105.979C59.2248 105.126 58.5488 104.115 58.0875 103.001C57.6263 101.888 57.3889 100.694 57.3889 99.4889V68.4156C57.3889 65.9815 58.3559 63.6471 60.077 61.9259C61.7982 60.2047 64.1326 59.2378 66.5667 59.2378H111.587C114.021 59.2378 116.355 60.2047 118.076 61.9259C119.798 63.6471 120.764 65.9815 120.764 68.4156V99.4933C120.763 101.927 119.796 104.26 118.075 105.98C116.354 107.7 114.02 108.667 111.587 108.667Z" fill="#EDEDEA"/>
<path d="M111.587 108.667H108.793V119.867L89.64 108.667H66.5667C65.3615 108.667 64.168 108.429 63.0545 107.968C61.941 107.507 60.9293 106.831 60.077 105.979C59.2248 105.126 58.5488 104.115 58.0875 103.001C57.6263 101.888 57.3889 100.694 57.3889 99.4889V68.4156C57.3889 65.9815 58.3559 63.6471 60.077 61.9259C61.7982 60.2047 64.1326 59.2378 66.5667 59.2378H111.587C114.021 59.2378 116.355 60.2047 118.076 61.9259C119.798 63.6471 120.764 65.9815 120.764 68.4156V99.4933C120.763 101.927 119.796 104.26 118.075 105.98C116.354 107.7 114.02 108.667 111.587 108.667V108.667Z" stroke="#333C44" stroke-width="2.62889" stroke-linecap="round" stroke-linejoin="round"/>
<path d="M88.7333 97.06L76.9378 86.0511C75.4349 84.6495 74.5503 82.7084 74.4786 80.6547C74.4069 78.6009 75.154 76.6028 76.5555 75.1C77.9571 73.5971 79.8982 72.7125 81.9519 72.6408C84.0057 72.5691 86.0038 73.3162 87.5066 74.7177L88.8733 75.9911L90.5111 74.5022C92.0314 73.1207 94.0382 72.3997 96.09 72.4979C98.1419 72.596 100.071 73.5052 101.452 75.0255C102.834 76.5458 103.555 78.5526 103.457 80.6045C103.358 82.6563 102.449 84.5851 100.929 85.9666L88.7333 97.06Z" fill="white"/>
<path d="M88.7333 97.06L76.9378 86.0511C75.4349 84.6495 74.5503 82.7084 74.4786 80.6547C74.4069 78.6009 75.154 76.6028 76.5555 75.1C77.9571 73.5971 79.8982 72.7125 81.9519 72.6408C84.0057 72.5691 86.0038 73.3162 87.5066 74.7177L88.8733 75.9911L90.5111 74.5022C92.0314 73.1207 94.0382 72.3997 96.09 72.4979C98.1419 72.596 100.071 73.5052 101.452 75.0255C102.834 76.5458 103.555 78.5526 103.457 80.6045C103.358 82.6563 102.449 84.5851 100.929 85.9666L88.7333 97.06Z" stroke="#333C44" stroke-width="2.62889" stroke-linecap="round" stroke-linejoin="round"/>
<g opacity="0.25">
<path d="M8.06328 97.1896C8.03688 99.1096 6.34007 100.802 4.44887 100.766C2.55766 100.73 0.930457 99.0688 0.918457 97.2232C0.918258 96.7439 1.01425 96.2693 1.20074 95.8277C1.38723 95.3861 1.66043 94.9865 2.00417 94.6523C2.34791 94.3182 2.7552 94.0565 3.20192 93.8826C3.64864 93.7087 4.1257 93.6262 4.60487 93.64C5.53118 93.6614 6.41221 94.0451 7.05881 94.7087C7.70541 95.3724 8.06604 96.2631 8.06328 97.1896Z" fill="#B4BBC3"/>
<path d="M41.2431 172.341C39.3111 172.312 37.6311 170.613 37.6719 168.724C37.7127 166.835 39.3759 165.208 41.2215 165.201C41.7006 165.201 42.1749 165.298 42.6161 165.485C43.0573 165.672 43.4565 165.945 43.7901 166.289C44.1238 166.633 44.385 167.04 44.5585 167.487C44.7319 167.934 44.814 168.411 44.7999 168.89C44.7767 169.816 44.3912 170.696 43.7262 171.341C43.0612 171.987 42.1697 172.346 41.2431 172.341Z" fill="#B4BBC3"/>
<path d="M8.0632 168.76C8.06896 169.707 7.69877 170.618 7.03381 171.293C6.36885 171.968 5.4634 172.352 4.51601 172.36C3.57025 172.342 2.66802 171.959 1.99735 171.292C1.32669 170.625 0.939333 169.725 0.916016 168.779C0.916016 166.941 2.58402 165.258 4.42961 165.218C6.33281 165.16 8.0488 166.84 8.0632 168.76Z" fill="#B4BBC3"/>
<path d="M44.7999 132.957C44.8057 133.904 44.4355 134.815 43.7705 135.49C43.1056 136.165 42.2001 136.549 41.2527 136.557C39.3711 136.574 37.6359 134.824 37.6719 132.957C37.7108 132.011 38.1124 131.116 38.7935 130.458C39.4745 129.8 40.3827 129.43 41.3295 129.424C42.2549 129.443 43.1361 129.823 43.7846 130.483C44.4332 131.144 44.7976 132.031 44.7999 132.957Z" fill="#B4BBC3"/>
<path d="M8.06329 133C8.04889 134.92 6.33528 136.6 4.43447 136.55C2.58886 136.511 0.925657 134.829 0.918457 132.99C0.941753 132.045 1.32903 131.144 1.99964 130.477C2.67025 129.809 3.57249 129.426 4.51848 129.407C5.46439 129.415 6.36851 129.798 7.03289 130.472C7.69726 131.145 8.06777 132.054 8.06329 133Z" fill="#B4BBC3"/>
<path d="M22.8785 172.343C21.9523 172.348 21.0621 171.985 20.4026 171.335C19.7432 170.684 19.3684 169.799 19.3601 168.873C19.3452 168.393 19.4276 167.914 19.6023 167.467C19.777 167.019 20.0404 166.612 20.3768 166.269C20.7131 165.926 21.1153 165.654 21.5593 165.471C22.0032 165.287 22.4797 165.195 22.9601 165.201C24.8369 165.218 26.5145 166.965 26.4857 168.875C26.4449 170.706 24.7625 172.334 22.8785 172.343Z" fill="#B4BBC3"/>
<path d="M4.55686 118.6C4.08729 118.61 3.62047 118.526 3.18319 118.355C2.74591 118.184 2.34677 117.928 2.00871 117.602C1.67064 117.275 1.40031 116.886 1.21321 116.455C1.02611 116.024 0.925941 115.561 0.918453 115.091C0.877653 113.222 2.55765 111.539 4.51846 111.491C6.38086 111.446 8.08006 113.171 8.06806 115.113C8.06361 116.04 7.69149 116.929 7.03329 117.582C6.37508 118.236 5.48452 118.602 4.55686 118.6Z" fill="#B4BBC3"/>
<path d="M19.3599 132.981C19.3521 132.512 19.4384 132.047 19.6136 131.612C19.7887 131.178 20.0492 130.783 20.3797 130.45C20.7101 130.118 21.1039 129.855 21.5375 129.678C21.9712 129.5 22.4361 129.412 22.9047 129.417C24.7911 129.441 26.4663 131.082 26.4735 132.909C26.4735 134.829 24.8055 136.559 22.9239 136.559C22.4544 136.56 21.9895 136.468 21.5559 136.288C21.1222 136.108 20.7285 135.844 20.3972 135.512C20.0659 135.179 19.8037 134.784 19.6257 134.35C19.4477 133.916 19.3573 133.45 19.3599 132.981Z" fill="#B4BBC3"/>
<path d="M4.47982 154.384C3.7903 154.369 3.1204 154.152 2.55395 153.758C1.9875 153.365 1.54965 152.813 1.29521 152.172C1.04076 151.531 0.981008 150.829 1.12343 150.154C1.26584 149.479 1.60411 148.862 2.09589 148.378C2.58768 147.895 3.21114 147.567 3.88827 147.436C4.5654 147.305 5.26613 147.376 5.90277 147.642C6.53941 147.907 7.08369 148.354 7.46751 148.927C7.85133 149.5 8.05764 150.173 8.06063 150.863C8.05973 151.33 7.96605 151.793 7.78503 152.223C7.60402 152.654 7.33926 153.044 7.00614 153.372C6.67302 153.7 6.27816 153.958 5.84448 154.131C5.4108 154.305 4.94695 154.391 4.47982 154.384Z" fill="#B4BBC3"/>
<path d="M44.8 115.127C44.7991 115.595 44.7038 116.058 44.5199 116.489C44.3359 116.919 44.0671 117.308 43.7295 117.632C43.3919 117.956 42.9924 118.209 42.5549 118.375C42.1174 118.542 41.6509 118.618 41.1832 118.6C40.2368 118.582 39.3362 118.189 38.6782 117.509C38.0203 116.829 37.6585 115.915 37.672 114.969C37.7248 113.15 39.4264 111.51 41.272 111.491C43.1176 111.472 44.8144 113.188 44.8 115.127Z" fill="#B4BBC3"/>
<path d="M44.8 97.1536C44.7862 98.095 44.4097 98.9948 43.7489 99.6654C43.0881 100.336 42.1939 100.726 41.2528 100.754C39.4792 100.775 37.708 99.0376 37.672 97.2424C37.6336 95.3008 39.352 93.6064 41.3368 93.628C41.7962 93.6305 42.2505 93.7239 42.6736 93.9027C43.0968 94.0815 43.4803 94.3423 43.8022 94.67C44.1241 94.9977 44.378 95.3859 44.5493 95.8121C44.7205 96.2384 44.8058 96.6943 44.8 97.1536Z" fill="#B4BBC3"/>
<path d="M19.36 97.1488C19.3556 96.6809 19.4457 96.2169 19.6249 95.7846C19.804 95.3524 20.0686 94.9607 20.4027 94.6331C20.7368 94.3055 21.1336 94.0487 21.5693 93.878C22.005 93.7074 22.4707 93.6264 22.9384 93.64C24.8128 93.6664 26.4736 95.32 26.4712 97.1464C26.4712 99.0424 24.7912 100.73 22.8832 100.746C20.9752 100.763 19.36 99.16 19.36 97.1488Z" fill="#B4BBC3"/>
<path d="M22.8472 154.382C22.3776 154.389 21.9116 154.3 21.4779 154.12C21.0441 153.94 20.6518 153.673 20.3251 153.336C19.9984 152.998 19.7442 152.598 19.5782 152.159C19.4123 151.719 19.338 151.251 19.36 150.782C19.3936 148.847 20.9464 147.374 22.936 147.383C23.3958 147.389 23.85 147.485 24.2726 147.667C24.6952 147.848 25.0779 148.111 25.399 148.44C25.72 148.769 25.973 149.159 26.1436 149.586C26.3142 150.013 26.399 150.469 26.3931 150.929C26.3873 151.389 26.291 151.843 26.1096 152.266C25.9283 152.688 25.6654 153.071 25.3362 153.392C25.0069 153.713 24.6176 153.966 24.1905 154.137C23.7635 154.307 23.307 154.392 22.8472 154.386V154.382Z" fill="#B4BBC3"/>
<path d="M22.8617 118.6C22.4018 118.605 21.9455 118.518 21.5194 118.345C21.0934 118.171 20.7061 117.915 20.3802 117.59C20.0542 117.266 19.7962 116.879 19.6211 116.454C19.4459 116.029 19.3572 115.573 19.3601 115.113C19.3544 114.642 19.4421 114.175 19.6181 113.739C19.7942 113.303 20.0551 112.905 20.3856 112.571C20.7162 112.236 21.11 111.97 21.5441 111.788C21.9782 111.607 22.444 111.513 22.9145 111.513C24.8033 111.498 26.5145 113.255 26.4713 115.156C26.4281 117.057 24.7625 118.6 22.8617 118.6Z" fill="#B4BBC3"/>
<path d="M41.2599 154.382C40.3312 154.382 39.4406 154.013 38.7839 153.356C38.1272 152.699 37.7583 151.809 37.7583 150.88C37.7583 149.951 38.1272 149.061 38.7839 148.404C39.4406 147.747 40.3312 147.378 41.2599 147.378C42.1886 147.378 43.0792 147.747 43.7359 148.404C44.3926 149.061 44.7615 149.951 44.7615 150.88C44.7615 151.809 44.3926 152.699 43.7359 153.356C43.0792 154.013 42.1886 154.382 41.2599 154.382Z" fill="#B4BBC3"/>
</g>
<g opacity="0.25">
<path d="M150.908 50.3408C150.439 50.3322 149.976 50.2303 149.547 50.041C149.118 49.8518 148.73 49.579 148.408 49.2386C148.085 48.8981 147.833 48.4969 147.667 48.0581C147.501 47.6194 147.424 47.152 147.44 46.6832C147.47 45.7576 147.856 44.8792 148.517 44.2307C149.178 43.5821 150.063 43.2132 150.989 43.2008C152.871 43.1864 154.606 44.936 154.57 46.8128C154.53 47.7586 154.127 48.6526 153.445 49.3094C152.763 49.9662 151.855 50.3355 150.908 50.3408Z" fill="#B4BBC3"/>
<path d="M147.44 11.0456C147.428 10.5766 147.509 10.1099 147.679 9.67263C147.849 9.23537 148.104 8.83627 148.43 8.49858C148.755 8.16088 149.145 7.89132 149.576 7.7056C150.007 7.51987 150.47 7.42168 150.939 7.41675C151.886 7.43097 152.791 7.80866 153.467 8.47164C154.143 9.13462 154.538 10.0321 154.57 10.9784C154.57 12.8168 152.929 14.5112 151.076 14.5592C150.13 14.5689 149.218 14.2057 148.537 13.5481C147.857 12.8906 147.463 11.9915 147.44 11.0456Z" fill="#B4BBC3"/>
<path d="M172.88 46.76C172.891 47.2288 172.807 47.6949 172.634 48.1308C172.461 48.5667 172.203 48.9635 171.874 49.2976C171.545 49.6318 171.152 49.8965 170.719 50.0761C170.286 50.2557 169.821 50.3465 169.352 50.3432C167.47 50.3288 165.788 48.6992 165.766 46.868C165.742 44.948 167.418 43.2128 169.297 43.2008C169.766 43.1976 170.232 43.2873 170.666 43.4648C171.101 43.6422 171.496 43.9039 171.829 44.2347C172.162 44.5655 172.426 44.959 172.607 45.3923C172.787 45.8257 172.88 46.2905 172.88 46.76Z" fill="#B4BBC3"/>
<path d="M172.88 10.9568C172.886 11.4261 172.799 11.8921 172.624 12.3276C172.449 12.7632 172.189 13.1598 171.86 13.4945C171.531 13.8292 171.139 14.0954 170.706 14.2777C170.274 14.4601 169.809 14.5549 169.34 14.5568C167.47 14.576 165.786 12.8624 165.769 10.9304C165.754 9.06076 167.502 7.38316 169.429 7.41676C170.356 7.42941 171.24 7.80926 171.887 8.47294C172.534 9.13663 172.891 10.0299 172.88 10.9568Z" fill="#B4BBC3"/>
<path d="M150.956 61.16C151.903 61.1498 152.815 61.5158 153.493 62.1778C154.17 62.8397 154.557 63.7435 154.568 64.6904C154.602 66.5192 152.828 68.2688 150.942 68.2688C149.12 68.2712 147.464 66.6104 147.44 64.7312C147.427 64.2635 147.509 63.798 147.681 63.3626C147.852 62.9273 148.11 62.531 148.438 62.1976C148.766 61.8641 149.159 61.6004 149.591 61.4221C150.024 61.2438 150.488 61.1547 150.956 61.16Z" fill="#B4BBC3"/>
<path d="M151.011 86.12C150.087 86.1413 149.191 85.7949 148.522 85.1569C147.852 84.5189 147.463 83.6413 147.44 82.7168C147.424 81.7529 147.789 80.8217 148.455 80.125C149.122 79.4282 150.036 79.022 150.999 78.9944C152.775 78.98 154.542 80.7224 154.568 82.5152C154.597 84.4136 152.934 86.0984 151.011 86.12Z" fill="#B4BBC3"/>
<path d="M172.88 82.6088C172.885 83.0765 172.795 83.5403 172.616 83.9725C172.438 84.4048 172.173 84.7965 171.84 85.1243C171.506 85.4521 171.11 85.7092 170.675 85.8803C170.239 86.0514 169.774 86.1329 169.306 86.12C167.43 86.096 165.769 84.452 165.769 82.6184C165.769 80.7176 167.449 79.0352 169.354 79.004C171.26 78.9728 172.88 80.6 172.88 82.6088Z" fill="#B4BBC3"/>
<path d="M169.254 32.3817C168.786 32.3811 168.323 32.287 167.892 32.1048C167.461 31.9225 167.072 31.6559 166.745 31.3206C166.419 30.9854 166.164 30.5882 165.994 30.1525C165.823 29.7169 165.742 29.2516 165.755 28.784C165.767 28.3165 165.873 27.8562 166.066 27.4303C166.26 27.0043 166.536 26.6214 166.88 26.304C167.223 25.9866 167.627 25.7412 168.067 25.5822C168.506 25.4233 168.974 25.354 169.441 25.3785C169.9 25.3786 170.356 25.4709 170.779 25.6498C171.202 25.8287 171.586 26.0907 171.906 26.4202C172.227 26.7497 172.478 27.1402 172.646 27.5684C172.813 27.9967 172.892 28.4541 172.88 28.9137C172.88 30.9201 171.306 32.4081 169.254 32.3817Z" fill="#B4BBC3"/>
<path d="M169.345 61.16C169.805 61.151 170.261 61.2336 170.689 61.4028C171.116 61.5721 171.506 61.8246 171.835 62.1457C172.164 62.4669 172.426 62.8502 172.605 63.2735C172.784 63.6967 172.878 64.1514 172.88 64.6112C172.89 65.0814 172.807 65.5491 172.635 65.987C172.464 66.4249 172.207 66.8244 171.879 67.1624C171.552 67.5003 171.161 67.77 170.729 67.9558C170.297 68.1416 169.832 68.2398 169.362 68.2447C167.478 68.2855 165.762 66.5503 165.762 64.6447C165.786 62.7872 167.451 61.16 169.345 61.16Z" fill="#B4BBC3"/>
<path d="M150.961 32.3816C150.032 32.3755 149.144 32.0008 148.491 31.3399C147.839 30.6789 147.476 29.7859 147.482 28.8572C147.488 27.9285 147.863 27.0402 148.524 26.3878C149.185 25.7354 150.078 25.3723 151.006 25.3784C151.935 25.3844 152.823 25.7591 153.476 26.4201C154.128 27.081 154.491 27.9741 154.485 28.9028C154.479 29.8315 154.104 30.7197 153.443 31.3721C152.783 32.0245 151.889 32.3876 150.961 32.3816Z" fill="#B4BBC3"/>
</g>
</g>
<defs>
<clipPath id="clip0">
<rect width="180" height="180" fill="white"/>
</clipPath>
</defs>
</svg>
