<svg width="48" height="48" viewBox="0 0 48 48" fill="none" xmlns="http://www.w3.org/2000/svg">
<path d="M37.2479 10.7147H10.3853V43.4707H37.2479V10.7147Z" fill="#EDEDEA" stroke="#333C44" stroke-width="1.08" stroke-miterlimit="10"/>
<path d="M37.2479 10.7147H10.3853V43.4707H37.2479V10.7147Z" stroke="#333C44" stroke-width="1.57733" stroke-linecap="round" stroke-linejoin="round"/>
<path d="M27.2188 6.77467C27.184 5.89623 26.8105 5.06536 26.1767 4.45615C25.5429 3.84694 24.6979 3.50669 23.8187 3.50669C22.9396 3.50669 22.0946 3.84694 21.4608 4.45615C20.827 5.06536 20.4535 5.89623 20.4187 6.77467H17.9854C17.1098 6.77467 16.2701 7.12249 15.651 7.74161C15.0319 8.36073 14.6841 9.20043 14.6841 10.076V13.12H32.9508V10.076C32.9508 9.20043 32.6029 8.36073 31.9838 7.74161C31.3647 7.12249 30.525 6.77467 29.6494 6.77467H27.2188Z" fill="white"/>
<path d="M27.2187 6.77467C27.184 5.89623 26.8105 5.06536 26.1767 4.45615C25.5429 3.84694 24.6979 3.50669 23.8187 3.50669C22.9396 3.50669 22.0946 3.84694 21.4608 4.45615C20.827 5.06536 20.4535 5.89623 20.4187 6.77467H17.9854C17.1098 6.77467 16.2701 7.12249 15.651 7.74161C15.0319 8.36073 14.6841 9.20043 14.6841 10.076V13.12H32.9507V10.076C32.9507 9.20043 32.6029 8.36073 31.9838 7.74161C31.3647 7.12249 30.525 6.77467 29.6494 6.77467H27.2187Z" stroke="#333C44" stroke-width="1.57733" stroke-linecap="round" stroke-linejoin="round"/>
<path d="M16.9214 21.9707C18.4236 21.9707 19.6414 20.7529 19.6414 19.2507C19.6414 17.7485 18.4236 16.5307 16.9214 16.5307C15.4192 16.5307 14.2014 17.7485 14.2014 19.2507C14.2014 20.7529 15.4192 21.9707 16.9214 21.9707Z" fill="white"/>
<path d="M16.9214 21.9707C18.4236 21.9707 19.6414 20.7529 19.6414 19.2507C19.6414 17.7485 18.4236 16.5307 16.9214 16.5307C15.4192 16.5307 14.2014 17.7485 14.2014 19.2507C14.2014 20.7529 15.4192 21.9707 16.9214 21.9707Z" fill="white"/>
<path d="M16.9214 21.9707C18.4236 21.9707 19.6414 20.7529 19.6414 19.2507C19.6414 17.7485 18.4236 16.5307 16.9214 16.5307C15.4192 16.5307 14.2014 17.7485 14.2014 19.2507C14.2014 20.7529 15.4192 21.9707 16.9214 21.9707Z" stroke="#333C44" stroke-width="1.57733" stroke-linecap="round" stroke-linejoin="round"/>
<path d="M16.9214 21.9707C18.4236 21.9707 19.6414 20.7529 19.6414 19.2507C19.6414 17.7485 18.4236 16.5307 16.9214 16.5307C15.4192 16.5307 14.2014 17.7485 14.2014 19.2507C14.2014 20.7529 15.4192 21.9707 16.9214 21.9707Z" stroke="#333C44" stroke-width="1.57733" stroke-linecap="round" stroke-linejoin="round"/>
<path d="M16.9214 30.9253C18.4236 30.9253 19.6414 29.7076 19.6414 28.2053C19.6414 26.7031 18.4236 25.4853 16.9214 25.4853C15.4192 25.4853 14.2014 26.7031 14.2014 28.2053C14.2014 29.7076 15.4192 30.9253 16.9214 30.9253Z" fill="white"/>
<path d="M16.9214 30.9253C18.4236 30.9253 19.6414 29.7076 19.6414 28.2053C19.6414 26.7031 18.4236 25.4853 16.9214 25.4853C15.4192 25.4853 14.2014 26.7031 14.2014 28.2053C14.2014 29.7076 15.4192 30.9253 16.9214 30.9253Z" fill="white"/>
<path d="M16.9214 30.9253C18.4236 30.9253 19.6414 29.7076 19.6414 28.2053C19.6414 26.7031 18.4236 25.4853 16.9214 25.4853C15.4192 25.4853 14.2014 26.7031 14.2014 28.2053C14.2014 29.7076 15.4192 30.9253 16.9214 30.9253Z" stroke="#333C44" stroke-width="1.57733" stroke-linecap="round" stroke-linejoin="round"/>
<path d="M16.9214 30.9253C18.4236 30.9253 19.6414 29.7076 19.6414 28.2053C19.6414 26.7031 18.4236 25.4853 16.9214 25.4853C15.4192 25.4853 14.2014 26.7031 14.2014 28.2053C14.2014 29.7076 15.4192 30.9253 16.9214 30.9253Z" stroke="#333C44" stroke-width="1.57733" stroke-linecap="round" stroke-linejoin="round"/>
<path d="M23.9307 28.2053H33.0493" stroke="#333C44" stroke-width="1.57733" stroke-linecap="round" stroke-linejoin="round"/>
<path d="M24.0774 19.2507H33.0494" stroke="#333C44" stroke-width="1.57733" stroke-linecap="round" stroke-linejoin="round"/>
<path d="M16.9214 39.7413C18.4236 39.7413 19.6414 38.5236 19.6414 37.0213C19.6414 35.5191 18.4236 34.3013 16.9214 34.3013C15.4192 34.3013 14.2014 35.5191 14.2014 37.0213C14.2014 38.5236 15.4192 39.7413 16.9214 39.7413Z" fill="white"/>
<path d="M16.9214 39.7413C18.4236 39.7413 19.6414 38.5236 19.6414 37.0213C19.6414 35.5191 18.4236 34.3013 16.9214 34.3013C15.4192 34.3013 14.2014 35.5191 14.2014 37.0213C14.2014 38.5236 15.4192 39.7413 16.9214 39.7413Z" fill="white"/>
<path d="M16.9214 39.7413C18.4236 39.7413 19.6414 38.5236 19.6414 37.0213C19.6414 35.5191 18.4236 34.3013 16.9214 34.3013C15.4192 34.3013 14.2014 35.5191 14.2014 37.0213C14.2014 38.5236 15.4192 39.7413 16.9214 39.7413Z" stroke="#333C44" stroke-width="1.57733" stroke-linecap="round" stroke-linejoin="round"/>
<path d="M16.9214 39.7413C18.4236 39.7413 19.6414 38.5236 19.6414 37.0213C19.6414 35.5191 18.4236 34.3013 16.9214 34.3013C15.4192 34.3013 14.2014 35.5191 14.2014 37.0213C14.2014 38.5236 15.4192 39.7413 16.9214 39.7413Z" stroke="#333C44" stroke-width="1.57733" stroke-linecap="round" stroke-linejoin="round"/>
<path d="M23.9307 37.0213H33.0493" stroke="#333C44" stroke-width="1.57733" stroke-linecap="round" stroke-linejoin="round"/>
</svg>
