<svg width="180" height="180" viewBox="0 0 180 180" fill="none" xmlns="http://www.w3.org/2000/svg">
<g clip-path="url(#clip0)">
<rect width="180" height="180" fill="#EBEEEF"/>
<path d="M114.144 118.964C116.88 118.964 119.098 116.747 119.098 114.011C119.098 111.275 116.88 109.058 114.144 109.058C111.409 109.058 109.191 111.275 109.191 114.011C109.191 116.747 111.409 118.964 114.144 118.964Z" fill="#EDEDEA"/>
<path d="M82.1445 118.964C84.8801 118.964 87.0978 116.747 87.0978 114.011C87.0978 111.275 84.8801 109.058 82.1445 109.058C79.4088 109.058 77.1912 111.275 77.1912 114.011C77.1912 116.747 79.4088 118.964 82.1445 118.964Z" fill="#EDEDEA"/>
<path d="M72.0779 75.7511H121.958L119.469 94.6667C119.277 96.1256 118.561 97.4649 117.455 98.4351C116.348 99.4053 114.927 99.9402 113.456 99.94H74.7312" fill="#EDEDEA"/>
<path d="M55.9023 67.2666H63.7112C65.5788 67.2664 67.3813 67.9521 68.7766 69.1934C70.1719 70.4346 71.0628 72.1451 71.2801 73.9999L74.2957 101.593C74.5626 103.666 75.5754 105.57 77.1448 106.95C78.7142 108.33 80.7325 109.091 82.8223 109.091H114.169" stroke="#333C44" stroke-width="2.62889" stroke-linecap="round" stroke-linejoin="round"/>
<path d="M72.0779 75.7511H121.958L119.469 94.6667C119.277 96.1256 118.561 97.4649 117.455 98.4351C116.348 99.4053 114.927 99.9402 113.456 99.94H74.7312" stroke="#333C44" stroke-width="2.62889" stroke-linecap="round" stroke-linejoin="round"/>
<path d="M114.144 118.964C116.88 118.964 119.098 116.747 119.098 114.011C119.098 111.275 116.88 109.058 114.144 109.058C111.409 109.058 109.191 111.275 109.191 114.011C109.191 116.747 111.409 118.964 114.144 118.964Z" stroke="#333C44" stroke-width="2.62889" stroke-linecap="round" stroke-linejoin="round"/>
<path d="M82.1445 118.964C84.8801 118.964 87.0978 116.747 87.0978 114.011C87.0978 111.275 84.8801 109.058 82.1445 109.058C79.4088 109.058 77.1912 111.275 77.1912 114.011C77.1912 116.747 79.4088 118.964 82.1445 118.964Z" stroke="#333C44" stroke-width="2.62889" stroke-linecap="round" stroke-linejoin="round"/>
<path d="M96.8689 89.8155C104.408 89.8155 110.52 83.7037 110.52 76.1644C110.52 68.6251 104.408 62.5133 96.8689 62.5133C89.3296 62.5133 83.2178 68.6251 83.2178 76.1644C83.2178 83.7037 89.3296 89.8155 96.8689 89.8155Z" fill="white"/>
<path d="M96.8689 89.8155C104.408 89.8155 110.52 83.7037 110.52 76.1644C110.52 68.6251 104.408 62.5133 96.8689 62.5133C89.3296 62.5133 83.2178 68.6251 83.2178 76.1644C83.2178 83.7037 89.3296 89.8155 96.8689 89.8155Z" stroke="#333C44" stroke-width="2.62889" stroke-linecap="round" stroke-linejoin="round"/>
<path d="M97.5556 67.3578V69.38C98.6308 69.4606 99.6721 69.7925 100.596 70.3489L99.3601 72.7533C98.6475 72.2096 97.946 71.937 97.2556 71.9356C96.8894 71.9186 96.5274 72.019 96.2223 72.2222C96.1054 72.2915 96.0075 72.3886 95.9373 72.5049C95.8671 72.6213 95.8268 72.7532 95.8201 72.8889C95.8257 73.0112 95.8569 73.1309 95.9116 73.2404C95.9663 73.3498 96.0434 73.4466 96.1378 73.5245C96.3796 73.7424 96.6642 73.9074 96.9734 74.0089L97.9578 74.3422C99.0616 74.7215 99.8578 75.1867 100.347 75.7378C100.853 76.3352 101.116 77.1018 101.082 77.8845C101.09 78.3643 101.028 78.8427 100.898 79.3045C100.78 79.7138 100.576 80.0929 100.298 80.4156C99.9872 80.763 99.617 81.052 99.2045 81.2689C98.6783 81.5436 98.1269 81.7668 97.5578 81.9356V84H96.0201V82C95.6464 81.9973 95.274 81.9556 94.909 81.8756C94.525 81.7951 94.147 81.6882 93.7778 81.5556C93.4112 81.4233 93.0559 81.2613 92.7156 81.0711C92.4234 80.9131 92.1518 80.7198 91.9067 80.4956L93.2601 77.9733C94.306 78.8978 95.3245 79.36 96.3156 79.36C96.7018 79.3682 97.0801 79.2504 97.3934 79.0245C97.5366 78.9297 97.6538 78.8005 97.7342 78.6487C97.8145 78.4969 97.8555 78.3273 97.8534 78.1556C97.8534 77.6667 97.4912 77.3052 96.7667 77.0711L95.8156 76.7689C95.3142 76.6192 94.8277 76.4236 94.3623 76.1845C93.9937 75.9985 93.6599 75.7505 93.3756 75.4511C93.1241 75.178 92.9306 74.8567 92.8067 74.5067C92.6788 74.116 92.6172 73.7066 92.6245 73.2956C92.6227 72.8254 92.6931 72.3577 92.8334 71.9089C92.9664 71.4737 93.1814 71.0679 93.4667 70.7133C93.7612 70.3523 94.1217 70.0507 94.529 69.8245C94.9927 69.5718 95.5047 69.4203 96.0312 69.38V67.3578H97.5556Z" fill="#333B43"/>
<path d="M97.5556 67.3578V69.38C98.6308 69.4606 99.6721 69.7925 100.596 70.3489L99.3601 72.7533C98.6475 72.2096 97.946 71.937 97.2556 71.9356C96.8894 71.9186 96.5274 72.019 96.2223 72.2222C96.1054 72.2915 96.0075 72.3886 95.9373 72.5049C95.8671 72.6213 95.8268 72.7532 95.8201 72.8889C95.8257 73.0112 95.8569 73.1309 95.9116 73.2404C95.9663 73.3498 96.0434 73.4466 96.1378 73.5245C96.3796 73.7424 96.6642 73.9074 96.9734 74.0089L97.9578 74.3422C99.0616 74.7215 99.8578 75.1867 100.347 75.7378C100.853 76.3352 101.116 77.1018 101.082 77.8845C101.09 78.3643 101.028 78.8427 100.898 79.3045C100.78 79.7138 100.576 80.0929 100.298 80.4156C99.9872 80.763 99.617 81.052 99.2045 81.2689C98.6783 81.5436 98.1269 81.7668 97.5578 81.9356V84H96.0201V82C95.6464 81.9973 95.274 81.9556 94.909 81.8756C94.525 81.7951 94.147 81.6882 93.7778 81.5556C93.4112 81.4233 93.0559 81.2613 92.7156 81.0711C92.4234 80.9131 92.1518 80.7198 91.9067 80.4956L93.2601 77.9733C94.306 78.8978 95.3245 79.36 96.3156 79.36C96.7018 79.3682 97.0801 79.2504 97.3934 79.0245C97.5366 78.9297 97.6538 78.8005 97.7342 78.6487C97.8145 78.4969 97.8555 78.3273 97.8534 78.1556C97.8534 77.6667 97.4912 77.3052 96.7667 77.0711L95.8156 76.7689C95.3142 76.6192 94.8277 76.4236 94.3623 76.1845C93.9937 75.9985 93.6599 75.7505 93.3756 75.4511C93.1241 75.178 92.9306 74.8567 92.8067 74.5067C92.6788 74.116 92.6172 73.7066 92.6245 73.2956C92.6227 72.8254 92.6931 72.3577 92.8334 71.9089C92.9664 71.4737 93.1814 71.0679 93.4667 70.7133C93.7612 70.3523 94.1217 70.0507 94.529 69.8245C94.9927 69.5718 95.5047 69.4203 96.0312 69.38V67.3578H97.5556Z" fill="#333B43"/>
<g clip-path="url(#clip1)">
<g opacity="0.25" clip-path="url(#clip2)">
<path d="M12.8574 155.305C12.8696 156.249 12.5122 157.161 11.8614 157.845C11.2106 158.529 10.318 158.931 9.37451 158.966C8.65934 158.99 7.9532 158.801 7.34602 158.422C6.73884 158.043 6.2581 157.493 5.96503 156.84C5.67197 156.187 5.57983 155.462 5.70038 154.756C5.82092 154.051 6.14867 153.398 6.6419 152.879C7.13513 152.361 7.7715 152.001 8.46997 151.845C9.16843 151.69 9.89739 151.746 10.564 152.006C11.2306 152.266 11.8046 152.719 12.2131 153.306C12.6215 153.894 12.8458 154.59 12.8574 155.305Z" fill="#B4BBC3"/>
<path d="M9.23817 169.925C10.1814 169.91 11.092 170.27 11.77 170.926C12.4481 171.581 12.8381 172.479 12.8545 173.423C12.864 173.902 12.7777 174.379 12.6006 174.825C12.4236 175.271 12.1594 175.677 11.8234 176.02C11.4875 176.362 11.0866 176.634 10.6442 176.82C10.2018 177.006 9.72686 177.101 9.24707 177.101C8.30395 177.077 7.40679 176.689 6.74328 176.018C6.07978 175.347 5.70132 174.446 5.68709 173.503C5.69245 172.56 6.06746 171.657 6.7315 170.988C7.39555 170.319 8.29561 169.937 9.23817 169.925Z" fill="#B4BBC3"/>
<path d="M12.8574 137.247C12.8574 138.192 12.4823 139.097 11.8147 139.765C11.1471 140.432 10.2416 140.807 9.29741 140.807C8.35013 140.812 7.43915 140.443 6.76213 139.781C6.08511 139.118 5.69666 138.215 5.68105 137.268C5.68497 136.302 6.07127 135.376 6.75555 134.693C7.43983 134.011 8.36647 133.627 9.33301 133.625C10.2776 133.648 11.1758 134.04 11.8347 134.717C12.4936 135.394 12.8608 136.302 12.8574 137.247Z" fill="#B4BBC3"/>
<path d="M27.8332 169.928C28.2995 169.92 28.7628 170.005 29.1957 170.178C29.6287 170.351 30.0226 170.61 30.3543 170.937C30.686 171.265 30.9488 171.656 31.1272 172.087C31.3056 172.518 31.3961 172.98 31.3932 173.446C31.4036 173.926 31.3175 174.402 31.1401 174.848C30.9627 175.293 30.6976 175.698 30.3605 176.039C30.0235 176.38 29.6214 176.65 29.178 176.832C28.7347 177.015 28.2592 177.106 27.7798 177.101C26.8359 177.07 25.9413 176.672 25.2852 175.993C24.6291 175.314 24.263 174.406 24.2643 173.461C24.2714 172.52 24.6508 171.62 25.3196 170.958C25.9884 170.296 26.8921 169.926 27.8332 169.928Z" fill="#B4BBC3"/>
<path d="M27.839 97.4022C28.3081 97.4055 28.7719 97.5012 29.204 97.6838C29.6361 97.8663 30.028 98.1322 30.3573 98.4662C30.6866 98.8003 30.947 99.1959 31.1234 99.6305C31.2999 100.065 31.389 100.53 31.3857 100.999C31.3823 101.468 31.2867 101.932 31.1041 102.364C30.9215 102.796 30.6557 103.188 30.3217 103.518C29.9876 103.847 29.592 104.107 29.1574 104.284C28.7228 104.46 28.2576 104.549 27.7886 104.546C26.8413 104.539 25.9354 104.157 25.2703 103.482C24.6052 102.807 24.2353 101.896 24.2419 100.949C24.2486 100.002 24.6314 99.0957 25.306 98.4306C25.9805 97.7654 26.8917 97.3955 27.839 97.4022Z" fill="#B4BBC3"/>
<path d="M24.2641 137.158C24.2918 136.215 24.6846 135.319 25.3598 134.66C26.0351 134.001 26.9398 133.63 27.8834 133.625C28.3628 133.633 28.8357 133.738 29.2741 133.932C29.7125 134.126 30.1074 134.406 30.4355 134.756C30.7636 135.106 31.0181 135.518 31.1841 135.967C31.3501 136.417 31.4242 136.896 31.4019 137.375C31.3926 137.843 31.2892 138.305 31.098 138.733C30.9068 139.16 30.6316 139.545 30.2888 139.865C29.9459 140.184 29.5424 140.431 29.1022 140.592C28.662 140.752 28.1941 140.822 27.7262 140.798C26.7851 140.773 25.8924 140.375 25.2436 139.693C24.5948 139.011 24.2426 138.099 24.2641 137.158Z" fill="#B4BBC3"/>
<path d="M24.2642 155.341C24.2742 154.398 24.6519 153.497 25.3169 152.828C25.9819 152.16 26.8816 151.778 27.8242 151.763C28.7794 151.769 29.6931 152.154 30.3644 152.834C31.0356 153.513 31.4094 154.432 31.4035 155.387C31.3976 156.342 31.0125 157.256 30.3329 157.927C29.6533 158.598 28.7349 158.972 27.7797 158.966C26.8374 158.938 25.9433 158.543 25.287 157.866C24.6306 157.189 24.2638 156.284 24.2642 155.341Z" fill="#B4BBC3"/>
<path d="M49.997 155.382C49.9932 156.327 49.6175 157.233 48.9513 157.903C48.2851 158.573 47.3819 158.954 46.437 158.963C45.5 158.932 44.6121 158.536 43.9621 157.86C43.3122 157.185 42.9514 156.282 42.9564 155.344C42.9614 154.407 43.3319 153.508 43.989 152.839C44.6462 152.171 45.5382 151.784 46.4756 151.763C47.4199 151.784 48.3182 152.175 48.9769 152.852C49.6356 153.529 50.0019 154.438 49.997 155.382Z" fill="#B4BBC3"/>
<path d="M46.3925 104.546C45.4448 104.528 44.5429 104.135 43.8853 103.452C43.2277 102.769 42.8682 101.853 42.8859 100.906C42.9036 99.958 43.2971 99.0561 43.9797 98.3985C44.6624 97.7409 45.5783 97.3814 46.526 97.3991C46.9952 97.4079 47.4582 97.509 47.8884 97.6966C48.3186 97.8843 48.7076 98.1549 49.0332 98.4929C49.6908 99.1755 50.0503 100.091 50.0326 101.039C50.0149 101.987 49.6214 102.889 48.9388 103.546C48.2561 104.204 47.3402 104.563 46.3925 104.546Z" fill="#B4BBC3"/>
<path d="M9.33315 115.51C9.80066 115.514 10.2628 115.61 10.6933 115.793C11.1237 115.975 11.514 116.241 11.8418 116.574C12.1696 116.907 12.4286 117.302 12.6039 117.735C12.7792 118.169 12.8674 118.633 12.8635 119.1C12.8697 119.58 12.7777 120.056 12.5931 120.499C12.4085 120.942 12.1352 121.343 11.7901 121.676C11.445 122.009 11.0353 122.269 10.5862 122.438C10.1372 122.607 9.65824 122.683 9.17888 122.66C8.23591 122.634 7.34131 122.237 6.68886 121.556C6.03641 120.874 5.67865 119.963 5.69306 119.02C5.72467 118.077 6.12237 117.183 6.80187 116.528C7.48137 115.872 8.38927 115.508 9.33315 115.51Z" fill="#B4BBC3"/>
<path d="M42.8563 118.952C42.8709 118.484 42.9775 118.024 43.1699 117.598C43.3623 117.172 43.6368 116.787 43.9777 116.467C44.6662 115.82 45.5834 115.474 46.5276 115.503C47.4717 115.533 48.3655 115.936 49.0123 116.624C49.659 117.313 50.0058 118.23 49.9763 119.174C49.9715 119.652 49.8697 120.124 49.6768 120.561C49.484 120.999 49.2043 121.392 48.8546 121.718C48.505 122.044 48.0928 122.295 47.643 122.456C47.1932 122.618 46.7153 122.686 46.2383 122.657C45.7707 122.643 45.3106 122.535 44.8855 122.34C44.4604 122.144 44.0788 121.866 43.7634 121.52C43.448 121.174 43.2052 120.769 43.0494 120.328C42.8935 119.887 42.8279 119.419 42.8563 118.952Z" fill="#B4BBC3"/>
<path d="M46.4164 169.928C46.8826 169.922 47.3455 170.008 47.7783 170.181C48.2111 170.355 48.6053 170.612 48.9381 170.939C49.271 171.265 49.536 171.654 49.7177 172.084C49.8994 172.513 49.9944 172.974 49.9971 173.44C50.0022 173.92 49.9122 174.395 49.7322 174.839C49.5523 175.283 49.286 175.687 48.9489 176.028C48.6117 176.368 48.2103 176.639 47.7679 176.823C47.3256 177.007 46.8511 177.102 46.3719 177.101C45.4281 177.08 44.5304 176.689 43.8727 176.012C43.2149 175.335 42.8499 174.426 42.8564 173.482C42.8504 173.013 42.9384 172.548 43.1153 172.113C43.2921 171.679 43.5542 171.285 43.8861 170.953C44.2179 170.622 44.6128 170.361 45.0474 170.185C45.482 170.008 45.9475 169.921 46.4164 169.928Z" fill="#B4BBC3"/>
<path d="M27.9044 122.66C26.9617 122.682 26.049 122.328 25.3665 121.678C24.6841 121.027 24.2877 120.132 24.2644 119.189C24.2557 118.71 24.3425 118.234 24.5196 117.788C24.6968 117.343 24.9608 116.937 25.2962 116.595C25.6317 116.253 26.0319 115.98 26.4736 115.794C26.9152 115.608 27.3895 115.512 27.8688 115.511C28.3352 115.511 28.797 115.603 29.2276 115.782C29.6582 115.961 30.0491 116.224 30.3778 116.555C30.7065 116.886 30.9664 117.278 31.1428 117.71C31.3191 118.142 31.4082 118.604 31.4051 119.071C31.4195 119.538 31.3394 120.004 31.1697 120.44C31 120.877 30.7441 121.274 30.4174 121.609C30.0906 121.944 29.6997 122.21 29.2679 122.39C28.8362 122.571 28.3724 122.663 27.9044 122.66Z" fill="#B4BBC3"/>
<path d="M9.3124 79.2759C9.77962 79.2739 10.2426 79.3648 10.6744 79.5432C11.1062 79.7216 11.4983 79.984 11.8278 80.3152C12.1574 80.6465 12.4179 81.0398 12.5941 81.4725C12.7704 81.9052 12.8589 82.3687 12.8546 82.8359C12.8571 83.778 12.4894 84.6835 11.8307 85.3571C11.1721 86.0308 10.2751 86.4187 9.33317 86.4374C8.85325 86.437 8.37814 86.3418 7.93513 86.1572C7.49212 85.9727 7.08994 85.7024 6.75169 85.362C6.41344 85.0215 6.1458 84.6176 5.96413 84.1734C5.78246 83.7292 5.69035 83.2535 5.69308 82.7736C5.71565 81.8319 6.10804 80.937 6.78538 80.2824C7.46271 79.6278 8.37051 79.2663 9.3124 79.2759Z" fill="#B4BBC3"/>
</g>
</g>
<g opacity="0.25" clip-path="url(#clip3)">
<path d="M115.452 -7.00001C115.209 -6.80421 114.975 -6.59655 114.722 -6.40668C113.31 -5.38319 112.785 -3.8346 113.331 -2.27118C113.571 -1.54612 114.043 -0.919747 114.673 -0.487917C115.303 -0.0560874 116.057 0.157417 116.82 0.119933C117.585 0.105403 118.326 -0.155572 118.931 -0.624254C119.537 -1.09293 119.975 -1.74434 120.181 -2.48181C120.587 -4.1016 119.967 -5.60569 118.511 -6.53425C118.276 -6.68258 118.051 -6.84871 117.823 -7.00891L115.452 -7.00001Z" fill="#B4BBC3"/>
<path d="M134.78 30.1366C133.834 30.1536 132.931 30.5402 132.266 31.2138C131.601 31.8873 131.225 32.7944 131.22 33.741C131.247 34.6835 131.635 35.5793 132.306 36.2424C132.976 36.9054 133.876 37.2846 134.819 37.301C135.299 37.2984 135.773 37.2002 136.215 37.0123C136.657 36.8244 137.057 36.5505 137.392 36.2064C137.727 35.8624 137.99 35.4552 138.166 35.0085C138.342 34.5618 138.427 34.0846 138.417 33.6046C138.387 32.665 137.989 31.7749 137.308 31.1262C136.628 30.4775 135.72 30.1221 134.78 30.1366Z" fill="#B4BBC3"/>
<path d="M134.884 55.8605C135.818 55.8336 136.704 55.4438 137.355 54.7738C138.006 54.1038 138.37 53.2065 138.37 52.2723C138.37 51.3381 138.006 50.4407 137.355 49.7708C136.704 49.1008 135.818 48.711 134.884 48.6841C134.404 48.6703 133.926 48.7529 133.479 48.927C133.031 49.1011 132.624 49.3632 132.279 49.6978C131.935 50.0324 131.661 50.4326 131.474 50.8748C131.287 51.317 131.191 51.7922 131.191 52.2723C131.191 52.7524 131.287 53.2276 131.474 53.6698C131.661 54.112 131.935 54.5122 132.279 54.8468C132.624 55.1813 133.031 55.4434 133.479 55.6175C133.926 55.7917 134.404 55.8743 134.884 55.8605Z" fill="#B4BBC3"/>
<path d="M149.391 33.7292C149.391 34.4429 149.603 35.1404 150.001 35.7329C150.399 36.3254 150.964 36.7861 151.624 37.0564C152.285 37.3267 153.011 37.3944 153.71 37.2508C154.409 37.1072 155.049 36.7588 155.55 36.25C156.05 35.7412 156.388 35.095 156.52 34.3936C156.652 33.6923 156.572 32.9675 156.291 32.3117C156.009 31.6558 155.539 31.0984 154.94 30.7106C154.341 30.3227 153.64 30.1219 152.927 30.1337C151.983 30.1469 151.082 30.5319 150.42 31.205C149.758 31.8781 149.388 32.7851 149.391 33.7292Z" fill="#B4BBC3"/>
<path d="M120.279 33.6935C120.282 33.2252 120.192 32.7608 120.014 32.3275C119.837 31.8941 119.574 31.5004 119.243 31.1692C118.912 30.838 118.518 30.5759 118.085 30.3981C117.652 30.2203 117.187 30.1304 116.719 30.1335C115.774 30.1302 114.866 30.498 114.189 31.1577C113.513 31.8174 113.123 32.7163 113.103 33.6609C113.103 34.141 113.197 34.6164 113.381 35.0598C113.565 35.5033 113.835 35.9061 114.174 36.2453C114.514 36.5845 114.917 36.8534 115.361 37.0366C115.805 37.2198 116.28 37.3136 116.76 37.3129C117.705 37.2934 118.604 36.9026 119.262 36.2252C119.921 35.5478 120.286 34.6383 120.279 33.6935Z" fill="#B4BBC3"/>
<path d="M171.151 18.7298C172.095 18.7121 172.995 18.3274 173.659 17.6571C174.324 16.9869 174.701 16.0841 174.711 15.1402C174.712 14.6597 174.615 14.1841 174.426 13.742C174.238 13.2999 173.962 12.9005 173.616 12.5679C173.269 12.2352 172.858 11.9762 172.409 11.8065C171.959 11.6368 171.48 11.5598 171 11.5802C170.532 11.5833 170.07 11.6808 169.641 11.8667C169.212 12.0526 168.825 12.3232 168.504 12.6623C168.182 13.0013 167.932 13.4019 167.768 13.8399C167.605 14.2779 167.531 14.7444 167.553 15.2114C167.555 15.6795 167.651 16.1423 167.834 16.5732C168.016 17.0041 168.283 17.3945 168.617 17.7217C168.952 18.049 169.348 18.3066 169.783 18.4796C170.218 18.6526 170.683 18.7377 171.151 18.7298Z" fill="#B4BBC3"/>
<path d="M152.948 11.589C152.479 11.5835 152.013 11.6718 151.579 11.8487C151.144 12.0256 150.75 12.2876 150.418 12.6193C150.086 12.951 149.824 13.3457 149.647 13.7801C149.47 14.2146 149.382 14.68 149.388 15.149C149.384 15.617 149.473 16.0811 149.649 16.5148C149.825 16.9484 150.085 17.3431 150.414 17.6762C150.742 18.0094 151.133 18.2744 151.565 18.4562C151.996 18.638 152.459 18.733 152.927 18.7357C153.407 18.7369 153.882 18.6431 154.326 18.4597C154.769 18.2764 155.172 18.007 155.511 17.6673C155.85 17.3276 156.118 16.9241 156.3 16.4802C156.483 16.0363 156.575 15.5607 156.573 15.0808C156.548 14.1394 156.154 13.2455 155.476 12.5922C154.797 11.9389 153.889 11.5786 152.948 11.589Z" fill="#B4BBC3"/>
<path d="M116.663 18.7298C117.605 18.7425 118.514 18.3807 119.191 17.7239C119.867 17.0671 120.255 16.1688 120.27 15.2262C120.291 14.7592 120.217 14.2929 120.054 13.8549C119.891 13.4169 119.641 13.0163 119.319 12.6769C118.998 12.3375 118.612 12.0663 118.183 11.8794C117.755 11.6925 117.293 11.5938 116.826 11.5891C116.345 11.5678 115.865 11.6442 115.415 11.8135C114.965 11.9829 114.554 12.2418 114.206 12.5745C113.859 12.9072 113.582 13.3069 113.394 13.7494C113.205 14.1919 113.108 14.668 113.108 15.149C113.122 16.0899 113.5 16.9888 114.163 17.6566C114.826 18.3244 115.722 18.7091 116.663 18.7298Z" fill="#B4BBC3"/>
<path d="M98.6312 11.589C98.1649 11.5756 97.7006 11.6549 97.2651 11.8223C96.8297 11.9897 96.4319 12.2418 96.0946 12.5641C95.7574 12.8865 95.4875 13.2725 95.3007 13.6999C95.1138 14.1274 95.0136 14.5876 95.0059 15.054C94.9956 15.5336 95.0813 16.0103 95.2579 16.4562C95.4345 16.9022 95.6985 17.3083 96.0343 17.6507C96.3701 17.9932 96.771 18.2651 97.2134 18.4503C97.6558 18.6356 98.1308 18.7306 98.6104 18.7297C99.5515 18.725 100.452 18.3479 101.116 17.6808C101.78 17.0136 102.153 16.1108 102.153 15.1697C102.165 14.7012 102.083 14.2349 101.911 13.7987C101.739 13.3626 101.481 12.9656 101.152 12.6314C100.824 12.2971 100.431 12.0326 99.998 11.8535C99.5648 11.6744 99.0999 11.5844 98.6312 11.589Z" fill="#B4BBC3"/>
<path d="M167.547 52.3123C167.545 52.7795 167.636 53.2425 167.814 53.6743C167.992 54.1061 168.255 54.4982 168.586 54.8277C168.917 55.1573 169.311 55.4177 169.743 55.594C170.176 55.7703 170.64 55.8588 171.107 55.8545C172.049 55.857 172.954 55.4893 173.628 54.8306C174.302 54.172 174.69 53.275 174.708 52.333C174.708 51.8531 174.613 51.378 174.428 50.935C174.244 50.492 173.973 50.0898 173.633 49.7516C173.292 49.4133 172.888 49.1457 172.444 48.964C172 48.7823 171.524 48.6902 171.044 48.693C170.103 48.7155 169.208 49.1079 168.553 49.7853C167.899 50.4626 167.537 51.3704 167.547 52.3123Z" fill="#B4BBC3"/>
<path d="M171.145 30.1424C170.678 30.1326 170.214 30.2157 169.78 30.387C169.345 30.5582 168.949 30.8142 168.615 31.14C168.28 31.4657 168.013 31.8548 167.831 32.2846C167.648 32.7143 167.552 33.1761 167.55 33.6431C167.538 34.1223 167.623 34.5989 167.799 35.0447C167.975 35.4905 168.239 35.8964 168.575 36.2383C168.911 36.5803 169.312 36.8513 169.754 37.0354C170.197 37.2195 170.672 37.3128 171.151 37.3099C172.096 37.2891 172.995 36.9022 173.659 36.2307C174.323 35.5592 174.701 34.6558 174.711 33.7113C174.706 32.767 174.328 31.8628 173.661 31.1948C172.993 30.5268 172.09 30.1487 171.145 30.1424Z" fill="#B4BBC3"/>
</g>
</g>
<defs>
<clipPath id="clip0">
<rect width="180" height="180" fill="white"/>
</clipPath>
<clipPath id="clip1">
<rect width="232" height="100" fill="white" transform="translate(-50 304) rotate(-90)"/>
</clipPath>
<clipPath id="clip2">
<rect width="100" height="297.271" fill="white" transform="translate(50 304) rotate(-180)"/>
</clipPath>
<clipPath id="clip3">
<rect width="100" height="297.271" fill="white" transform="matrix(0 -1 -1 0 392.271 93)"/>
</clipPath>
</defs>
</svg>
