<svg width="180" height="180" viewBox="0 0 180 180" fill="none" xmlns="http://www.w3.org/2000/svg">
<g clip-path="url(#clip0)">
<rect width="180" height="180" fill="#EBEEEF"/>
<path d="M117.504 82.0712H63.7844C62.7535 82.0712 61.9177 82.9069 61.9177 83.9378V117.611C61.9177 118.642 62.7535 119.478 63.7844 119.478H117.504C118.535 119.478 119.371 118.642 119.371 117.611V83.9378C119.371 82.9069 118.535 82.0712 117.504 82.0712Z" fill="#EDEDEA"/>
<path d="M117.504 82.0712H63.7844C62.7535 82.0712 61.9177 82.9069 61.9177 83.9378V117.611C61.9177 118.642 62.7535 119.478 63.7844 119.478H117.504C118.535 119.478 119.371 118.642 119.371 117.611V83.9378C119.371 82.9069 118.535 82.0712 117.504 82.0712Z" fill="#EDEDEA"/>
<path d="M117.504 82.0712H63.7844C62.7535 82.0712 61.9177 82.9069 61.9177 83.9378V117.611C61.9177 118.642 62.7535 119.478 63.7844 119.478H117.504C118.535 119.478 119.371 118.642 119.371 117.611V83.9378C119.371 82.9069 118.535 82.0712 117.504 82.0712Z" fill="#EDEDEA"/>
<path d="M62.5044 82.0712L63.2177 83.6401L90.6444 103.131L117.816 83.6401L118.782 82.0712L90.4911 57.0601L62.5044 82.0712Z" fill="#EDEDEA"/>
<path d="M119.369 82.0712V117.611C119.368 118.105 119.171 118.579 118.822 118.929C118.472 119.279 117.999 119.476 117.504 119.478H63.7778C63.2834 119.476 62.8099 119.279 62.4606 118.929C62.1112 118.579 61.9145 118.105 61.9133 117.611V82.0712" stroke="#333C44" stroke-width="2.62889" stroke-linecap="round" stroke-linejoin="round"/>
<path d="M119.371 82.0712L90.4911 57.0601L61.9177 82.0712" stroke="#333C44" stroke-width="2.62889" stroke-linecap="round" stroke-linejoin="round"/>
<path d="M110.693 88.7934V64.9845H70.5933V88.7934L90.5666 102.202L110.693 88.7934Z" fill="white"/>
<path d="M110.693 88.7934V64.9845H70.5933V88.7934" stroke="#333C44" stroke-width="2.62889" stroke-linecap="round" stroke-linejoin="round"/>
<path d="M62.2 83.0488L90.6444 103.131L118.933 83.2399" stroke="#333C44" stroke-width="2.62889" stroke-linecap="round" stroke-linejoin="round"/>
<path d="M80.0466 81.5555C80.0466 75.08 83.9844 70.9244 90.7355 70.9244C97.0733 70.9244 100.669 75.0555 100.66 80.4C100.66 84.1178 99.6666 87.2422 96.1689 87.3711C94.5266 87.4622 93.4533 86.7933 93.2577 85.5733H93.16C92.7777 86.5422 91.3466 87.3644 89.5 87.2733C86.8466 87.1511 84.8955 85.0511 84.8955 81.4578C84.8955 77.9755 87.0755 76.1133 89.34 75.8133C91.1066 75.5689 92.6733 76.2267 92.9289 76.9422H93.0422V76.0311H95.3111V83.7778C95.3111 84.5844 95.7266 85.1378 96.4222 85.1378C97.7244 85.1378 98.2444 83.6244 98.2355 80.2644C98.2355 75.6444 95.0155 73.1867 90.68 73.1867C85.3666 73.1867 82.5844 76.6111 82.5844 81.5244C82.5844 86.7955 85.4977 89.7089 90.8822 89.7089C92.416 89.6814 93.9351 89.4044 95.38 88.8889L96.0733 90.9533C95.0555 91.4822 92.8355 92.0111 90.74 92.0111C83.92 92 80.0555 88.1889 80.0466 81.5555ZM92.9733 81.3511C92.9733 79.14 92.2155 78.1467 90.1911 78.1467C88.3689 78.1467 87.3355 79.5067 87.3266 81.36C87.3177 83.2133 88.0511 84.94 90.1755 84.94C92.2333 84.9444 92.9977 83.7311 92.9733 81.3555V81.3511Z" fill="#333C44"/>
<g opacity="0.25" clip-path="url(#clip1)">
<path d="M54.992 172.704C54.7326 173.043 54.462 173.375 54.214 173.72C53.4035 174.854 52.2501 175.256 50.9464 175.078C49.5833 174.891 48.6112 174.103 48.043 172.799C47.3699 171.255 48.1422 169.569 49.0675 168.779C50.2436 167.776 51.8264 167.575 53.1768 168.432C53.7663 168.806 54.1829 169.455 54.6774 169.978C54.7794 170.086 54.8857 170.189 54.9891 170.295L54.992 172.704Z" fill="#B4BBC3"/>
<path d="M11.7734 119C11.9126 119.135 12.0634 119.257 12.224 119.366C13.5843 120.139 14.2531 121.349 14.1568 122.863C14.0647 124.308 13.257 125.36 11.8896 125.931C9.86468 126.781 8.00132 125.486 7.40901 124.304C6.51347 122.516 7.02217 120.662 8.68431 119.544C8.92946 119.384 9.14059 119.183 9.36447 119H11.7734Z" fill="#B4BBC3"/>
<path d="M14.8906 171.466C14.8906 169.536 16.5117 167.843 18.419 167.902C20.5912 167.97 22.0777 169.424 22.0734 171.516C22.0734 173.634 20.4226 175.116 18.4034 175.112C16.3841 175.108 14.8906 173.529 14.8906 171.466Z" fill="#B4BBC3"/>
<path d="M5.53829 171.629C5.67999 173.516 3.75287 175.157 1.96745 175.127C0.182034 175.098 -1.65014 173.555 -1.56371 171.429C-1.48435 169.462 0.0219152 167.871 1.99154 167.898C4.14963 167.925 5.70833 169.692 5.53829 171.629Z" fill="#B4BBC3"/>
<path d="M13.7571 157.134C13.845 159.365 12.102 160.776 10.1253 160.776C8.34699 160.776 6.58283 159.182 6.65368 157.163C6.72878 155.1 8.20529 153.62 10.2826 153.559C11.9292 153.51 14.0263 155.244 13.7571 157.134Z" fill="#B4BBC3"/>
<path d="M38.5548 171.535C38.5392 173.451 36.8317 175.128 34.906 175.113C32.9803 175.099 31.2898 173.39 31.3351 171.466C31.3805 169.542 32.8825 167.897 35.1185 167.895C36.9181 167.894 38.569 169.673 38.5548 171.535Z" fill="#B4BBC3"/>
<path d="M52.0161 154.519C52.0156 154.995 51.9203 155.467 51.736 155.906C51.5516 156.345 51.2818 156.743 50.9422 157.078C50.6025 157.412 50.1999 157.675 49.7576 157.852C49.3153 158.029 48.8422 158.117 48.3659 158.109C46.4345 158.109 44.7638 156.365 44.7894 154.387C44.8149 152.383 46.4614 151.094 48.8363 150.996C50.2561 150.938 52.1691 152.834 52.0161 154.519Z" fill="#B4BBC3"/>
<path d="M43.3725 139.596C43.4589 141.722 41.7783 143.178 39.83 143.187C39.352 143.184 38.8793 143.086 38.4398 142.898C38.0003 142.71 37.6029 142.436 37.271 142.092C36.9391 141.748 36.6795 141.341 36.5074 140.895C36.3353 140.449 36.2543 139.973 36.269 139.496C36.347 137.524 37.8462 136.004 39.8569 136.004C41.8676 136.004 43.3725 137.526 43.3725 139.596Z" fill="#B4BBC3"/>
<path d="M18.4333 146.348C16.4325 146.609 14.8015 144.39 14.8752 142.777C14.9012 141.845 15.2854 140.958 15.9479 140.301C16.6104 139.644 17.5004 139.267 18.4333 139.249C20.3349 139.188 22.0863 140.808 22.0764 142.867C22.0721 144.659 20.6636 146.47 18.4333 146.348Z" fill="#B4BBC3"/>
<path d="M30.1942 128.484C30.4535 130.543 28.3521 132.155 26.6956 132.063C24.6637 131.95 23.1319 130.505 23.1021 128.485C23.0752 126.643 24.7444 124.815 26.7651 124.926C28.8211 125.038 30.1942 126.368 30.1942 128.484Z" fill="#B4BBC3"/>
<path d="M34.0204 154.924C34.0204 156.993 32.5297 158.536 30.5317 158.534C28.477 158.534 26.9325 156.976 26.9353 154.904C26.9353 152.881 28.494 151.449 30.7031 151.449C32.6785 151.449 34.0204 152.855 34.0204 154.924Z" fill="#B4BBC3"/>
<path d="M5.5384 138.46C5.73253 140.295 3.73739 141.988 1.99589 141.991C0.359252 141.991 -1.64014 140.398 -1.59621 138.319C-1.56079 136.667 -0.0375073 134.785 1.99306 134.785C3.99812 134.787 5.78921 136.628 5.5384 138.46Z" fill="#B4BBC3"/>
</g>
<g opacity="0.25" clip-path="url(#clip2)">
<path d="M60.3644 43C59.911 42.6188 59.432 42.2632 59.0098 41.8494C57.9102 40.7753 57.682 39.3994 58.314 37.8988C58.8227 36.6887 60.0541 36.0113 61.4484 35.8923C63.3671 35.7279 64.7742 37.2427 65.0717 38.5959C65.245 39.3905 65.1515 40.2199 64.8056 40.9559C64.4598 41.6919 63.881 42.2933 63.1588 42.667C63.0168 42.7613 62.8873 42.8732 62.7734 43H60.3644Z" fill="#B4BBC3"/>
<path d="M43.2186 43.0001C43.082 42.8634 42.9314 42.7413 42.7694 42.6359C41.5182 41.9798 40.6779 40.4764 40.8097 39.0806C40.9415 37.6849 41.9646 36.3798 43.281 36.0284C45.5893 35.4134 47.6921 36.6816 47.9132 38.9177C48.0705 40.5104 47.5136 41.7389 46.0711 42.6203C45.9132 42.7346 45.7648 42.8616 45.6275 43.0001H43.2186Z" fill="#B4BBC3"/>
<path d="M24.4589 3.46564C26.5164 3.46564 28.0595 5.02435 28.0567 7.09743C28.0567 9.05432 26.379 10.691 24.3725 10.6924C22.5531 10.6924 20.7762 8.9112 20.8385 7.06201C20.9108 4.95917 22.6253 3.43588 24.4589 3.46564Z" fill="#B4BBC3"/>
<path d="M103.016 7.50976C103.016 9.46096 101.334 11.1103 99.3406 11.1174C97.5566 11.1174 95.7896 9.35894 95.7896 7.57494C95.7962 6.59989 96.1865 5.66668 96.876 4.97721C97.5655 4.28773 98.4987 3.89743 99.4738 3.89075C101.412 3.89075 103.016 5.53021 103.016 7.50976Z" fill="#B4BBC3"/>
<path d="M28.289 37.0486C26.2683 37.1563 24.6898 35.4899 24.6728 33.5316C24.6557 31.7589 26.1252 29.8686 28.3201 29.9465C30.3408 30.0188 31.8626 31.5052 31.8882 33.5316C31.908 35.4233 30.1821 37.2555 28.289 37.0486Z" fill="#B4BBC3"/>
<path d="M85.02 7.08322C85.2765 8.91543 83.5478 10.6428 81.4946 10.6867C79.6114 10.7264 77.9308 8.97919 77.9351 7.03929C77.9351 4.99596 79.515 3.46558 81.598 3.46558C83.5336 3.46558 85.02 5.04413 85.02 7.08322Z" fill="#B4BBC3"/>
<path d="M36.5942 15.6518C38.5454 15.401 40.2047 17.5931 40.1226 19.2538C40.0262 21.2079 38.5256 22.69 36.522 22.7524C34.5977 22.8133 32.8647 21.0704 32.8987 19.1036C32.9284 17.3791 34.3525 15.4974 36.5942 15.6518Z" fill="#B4BBC3"/>
<path d="M11.6195 22.4095C11.5288 20.284 13.1952 18.8273 15.162 18.8131C15.6399 18.8146 16.1127 18.9118 16.5525 19.099C16.9923 19.2861 17.3901 19.5595 17.7225 19.9028C18.0549 20.2462 18.3152 20.6527 18.488 21.0983C18.6608 21.5439 18.7426 22.0196 18.7286 22.4973C18.6464 24.4712 17.1458 25.9959 15.1408 25.9959C13.1357 25.9959 11.6195 24.4755 11.6195 22.4095Z" fill="#B4BBC3"/>
<path d="M94.3724 22.4974C94.6204 24.4344 92.4339 26.1022 90.7604 26.0186C88.7993 25.9194 87.327 24.4302 87.2732 22.4109C87.2193 20.3917 88.9736 18.7834 90.854 18.8132C92.8477 18.8443 94.5042 20.3364 94.3724 22.4974Z" fill="#B4BBC3"/>
<path d="M44.8325 1.34011C46.7256 1.06804 48.4473 3.18221 48.3495 4.83302C48.2262 6.8976 46.7908 8.37554 44.7035 8.44072C43.1335 8.49032 41.059 6.84092 41.2021 4.78201C41.3466 2.69193 42.6404 1.34011 44.8325 1.34011Z" fill="#B4BBC3"/>
<path d="M64.7571 4.91379C65.0107 6.71764 62.9688 8.45631 61.2982 8.44781C59.4037 8.44781 57.5814 6.85509 57.6537 4.77209C57.7302 2.60406 59.1104 1.36418 61.5703 1.33017C63.2707 1.3075 64.9668 3.07168 64.7571 4.91379Z" fill="#B4BBC3"/>
<path d="M10.0609 7.53664C10.3131 9.32915 8.59 11.0792 6.51834 11.1118C4.66915 11.1373 2.97583 9.39292 2.97583 7.50829C2.97929 6.56137 3.35245 5.65324 4.01578 4.97747C4.67911 4.3017 5.58015 3.91172 6.52684 3.89067C8.28393 3.85666 10.3443 5.45647 10.0609 7.53664Z" fill="#B4BBC3"/>
<path d="M69.4813 15.6518C71.6351 15.5554 73.0564 17.2955 73.0804 19.1178C73.1088 21.1568 71.373 22.8303 69.3849 22.7538C67.4266 22.6787 65.8892 21.1682 65.8906 19.1688C65.8906 17.1396 67.4139 15.6518 69.4813 15.6518Z" fill="#B4BBC3"/>
<path d="M81.1943 33.5415C81.1943 35.667 79.8071 36.9735 77.6674 37.0727C75.8253 37.1577 74.081 35.4346 74.0965 33.489C74.1121 31.6894 75.6637 29.8643 77.7949 29.9465C79.8312 30.0259 81.1943 31.3975 81.1943 33.5415Z" fill="#B4BBC3"/>
<path d="M49.0225 23.5668C48.8127 21.685 50.8405 19.9817 52.599 20.0001C54.2328 20.0157 56.1798 21.6184 56.1585 23.6334C56.1387 25.3763 54.536 27.2326 52.5338 27.2042C50.4919 27.1745 48.783 25.3054 49.0225 23.5668Z" fill="#B4BBC3"/>
</g>
<g opacity="0.25" clip-path="url(#clip3)">
<path d="M148 85.2955C148.381 84.8421 148.737 84.3631 149.151 83.9409C150.206 82.8611 151.599 82.6032 153.039 83.2224C154.063 83.6645 155.055 84.903 155.133 86.388C155.249 88.6311 153.209 90.2678 151.348 90.1105C149.984 89.9943 148.978 89.3085 148.334 88.0898C148.238 87.9491 148.126 87.8198 148 87.7044V85.2955Z" fill="#B4BBC3"/>
<path d="M172.459 99.4656C174.516 99.4656 176.06 101.024 176.057 103.097C176.057 105.054 174.379 106.691 172.373 106.692C170.553 106.692 168.776 104.911 168.839 103.062C168.911 100.959 170.625 99.4359 172.459 99.4656Z" fill="#B4BBC3"/>
<path d="M176.23 47.0364C174.161 47.1328 172.696 45.3218 172.674 43.5194C172.65 41.5767 174.233 39.916 176.378 39.9146C178.128 39.9146 179.895 41.5214 179.894 43.4854C179.894 45.3119 178.324 47.1781 176.23 47.0364Z" fill="#B4BBC3"/>
<path d="M176.289 133.049C174.268 133.156 172.69 131.49 172.673 129.532C172.656 127.759 174.125 125.869 176.32 125.947C178.341 126.019 179.863 127.505 179.888 129.532C179.908 131.423 178.182 133.255 176.289 133.049Z" fill="#B4BBC3"/>
<path d="M172.514 66.4494C174.388 66.1065 176.147 68.3439 176.082 69.9253C175.996 71.9884 174.509 73.5315 172.435 73.5358C171.48 73.5235 170.569 73.135 169.899 72.4547C169.229 71.7745 168.855 70.8574 168.857 69.9026C168.857 67.9925 170.506 66.1872 172.514 66.4494Z" fill="#B4BBC3"/>
<path d="M159.619 54.5225C159.364 52.5543 161.566 50.9035 163.212 50.98C165.181 51.0735 166.662 52.5585 166.719 54.5678C166.775 56.5771 165.061 58.1982 163.162 58.1868C161.206 58.1755 159.498 56.7146 159.619 54.5225Z" fill="#B4BBC3"/>
<path d="M159.62 118.409C159.529 116.284 161.195 114.827 163.162 114.813C163.64 114.815 164.113 114.912 164.552 115.099C164.992 115.286 165.39 115.559 165.722 115.903C166.055 116.246 166.315 116.653 166.488 117.098C166.661 117.544 166.743 118.02 166.729 118.497C166.646 120.471 165.146 121.996 163.141 121.996C161.136 121.996 159.62 120.475 159.62 118.409Z" fill="#B4BBC3"/>
<path d="M158.061 103.537C158.313 105.329 156.59 107.079 154.518 107.112C152.669 107.137 150.976 105.393 150.976 103.508C150.979 102.561 151.352 101.653 152.016 100.977C152.679 100.302 153.58 99.9117 154.527 99.8907C156.284 99.8567 158.344 101.456 158.061 103.537Z" fill="#B4BBC3"/>
<path d="M171.664 86.4887C171.664 88.413 169.982 90.1134 168.065 90.1134C166.176 90.1134 164.419 88.4371 164.446 86.5864C164.474 84.5885 165.843 82.9518 168.038 82.9292C170.204 82.9079 171.607 84.614 171.664 86.4887Z" fill="#B4BBC3"/>
<path d="M158.061 69.4988C158.061 71.5662 156.571 73.1093 154.575 73.1093C154.1 73.1095 153.629 73.0155 153.19 72.8328C152.751 72.65 152.353 72.3821 152.018 72.0445C151.684 71.707 151.419 71.3064 151.24 70.8661C151.061 70.4257 150.971 69.9543 150.976 69.4789C150.976 67.4852 152.544 66.0243 154.678 66.0243C156.713 66.0243 158.061 67.4073 158.061 69.4988Z" fill="#B4BBC3"/>
</g>
</g>
<defs>
<clipPath id="clip0">
<rect width="180" height="180" fill="white"/>
</clipPath>
<clipPath id="clip1">
<rect width="105.992" height="105" fill="white" transform="translate(-51 119)"/>
</clipPath>
<clipPath id="clip2">
<rect width="105.992" height="105" fill="white" transform="translate(0 -62)"/>
</clipPath>
<clipPath id="clip3">
<rect width="105.992" height="105" fill="white" transform="translate(148 34)"/>
</clipPath>
</defs>
</svg>
