<svg width="128" height="129" viewBox="0 0 128 129" fill="none" xmlns="http://www.w3.org/2000/svg">
<path d="M112.727 10.0591H15.2723C12.059 10.0591 9.4541 12.664 9.4541 15.8773V113.332C9.4541 116.545 12.059 119.15 15.2723 119.15H112.727C115.94 119.15 118.545 116.545 118.545 113.332V15.8773C118.545 12.664 115.94 10.0591 112.727 10.0591Z" fill="#F2F4F5"/>
<rect x="101.818" y="29.2591" width="17.4545" height="72.7273" rx="2.90909" transform="rotate(90 101.818 29.2591)" fill="#DFE3E6"/>
<rect x="101.818" y="82.7864" width="17.4545" height="72.7273" rx="2.90909" transform="rotate(90 101.818 82.7864)" fill="#DFE3E6"/>
<rect x="122.764" y="56.0227" width="17.4545" height="72.7273" rx="2.90909" transform="rotate(90 122.764 56.0227)" fill="#DFE3E6"/>
<rect x="23.2725" y="29.2591" width="17.4545" height="18.0364" rx="2.90909" transform="rotate(90 23.2725 29.2591)" fill="#DFE3E6"/>
<path d="M10.4727 35.7619C10.4846 35.267 10.6359 34.7856 10.909 34.3728C11.2296 33.8822 11.6702 33.4817 12.189 33.2091C12.7972 32.8936 13.4749 32.7361 14.1599 32.751C14.7968 32.7396 15.4281 32.8713 16.0072 33.1364C16.5075 33.3625 16.9336 33.7256 17.2363 34.1837C17.5247 34.6136 17.6768 35.1205 17.6727 35.6382C17.6823 36.0121 17.5972 36.3824 17.4254 36.7146C17.2674 36.9965 17.0689 37.2538 16.8363 37.4782C16.6108 37.7037 16.1963 38.0819 15.6072 38.6055L15.2145 38.9982C15.1275 39.0918 15.0541 39.197 14.9963 39.311C14.9483 39.4014 14.9093 39.4965 14.8799 39.5946C14.8799 39.6891 14.8145 39.8491 14.7636 40.0891C14.7432 40.2982 14.6422 40.4911 14.482 40.6269C14.3218 40.7627 14.1149 40.8306 13.9054 40.8164C13.6724 40.8201 13.4475 40.7311 13.2799 40.5691C13.1883 40.4727 13.1177 40.3582 13.0726 40.233C13.0275 40.1078 13.009 39.9746 13.0181 39.8419C13.0102 39.4836 13.0745 39.1275 13.2072 38.7946C13.3242 38.5077 13.4917 38.2441 13.7017 38.0164C13.9127 37.791 14.189 37.5219 14.5381 37.2164C14.8872 36.911 15.069 36.7437 15.2072 36.6128C15.3438 36.4766 15.4613 36.3225 15.5563 36.1546C15.6453 35.9838 15.6926 35.7944 15.6945 35.6019C15.697 35.4192 15.66 35.2382 15.5859 35.0712C15.5118 34.9043 15.4025 34.7553 15.2654 34.6346C14.9426 34.3755 14.5411 34.2343 14.1272 34.2343C13.7133 34.2343 13.3118 34.3755 12.989 34.6346C12.6998 34.9799 12.4844 35.3809 12.3563 35.8128C12.1963 36.3582 11.8836 36.6273 11.4254 36.6273C11.2991 36.6301 11.1736 36.6062 11.0571 36.5574C10.9405 36.5085 10.8356 36.4357 10.749 36.3437C10.5842 36.1935 10.485 35.9845 10.4727 35.7619ZM13.9854 43.6601C13.7044 43.664 13.432 43.5628 13.2217 43.3764C13.111 43.2759 13.0242 43.1519 12.9676 43.0135C12.911 42.875 12.886 42.7257 12.8945 42.5764C12.8956 42.4394 12.9239 42.304 12.9775 42.1779C13.0312 42.0519 13.1093 41.9377 13.2072 41.8419C13.3102 41.742 13.4321 41.6635 13.5657 41.6111C13.6992 41.5586 13.8419 41.5333 13.9854 41.5364C14.1239 41.5335 14.2616 41.5579 14.3906 41.6083C14.5197 41.6586 14.6376 41.7339 14.7375 41.8298C14.8375 41.9257 14.9176 42.0404 14.9732 42.1672C15.0288 42.2941 15.0589 42.4307 15.0617 42.5691C15.0702 42.7174 15.0452 42.8656 14.9885 43.0028C14.9318 43.1401 14.845 43.2628 14.7345 43.3619C14.5328 43.5546 14.2643 43.6615 13.9854 43.6601Z" fill="#F2F4F5"/>
<rect x="23.2725" y="82.7864" width="17.4545" height="18.0364" rx="2.90909" transform="rotate(90 23.2725 82.7864)" fill="#DFE3E6"/>
<path d="M10.4727 89.2892C10.4846 88.7943 10.6359 88.3129 10.909 87.9001C11.2296 87.4095 11.6702 87.0089 12.189 86.7364C12.7972 86.4209 13.4749 86.2634 14.1599 86.2782C14.7968 86.2668 15.4281 86.3986 16.0072 86.6637C16.5075 86.8898 16.9336 87.2529 17.2363 87.711C17.5247 88.1409 17.6768 88.6478 17.6727 89.1655C17.6823 89.5394 17.5972 89.9097 17.4254 90.2419C17.2674 90.5238 17.0689 90.7811 16.8363 91.0055C16.6108 91.231 16.1963 91.6092 15.6072 92.1328L15.2145 92.5255C15.1275 92.6191 15.0541 92.7243 14.9963 92.8382C14.9483 92.9287 14.9093 93.0237 14.8799 93.1219C14.8799 93.2164 14.8145 93.3764 14.7636 93.6164C14.7432 93.8255 14.6422 94.0184 14.482 94.1542C14.3218 94.2899 14.1149 94.3579 13.9054 94.3437C13.6724 94.3473 13.4475 94.2584 13.2799 94.0964C13.1883 94 13.1177 93.8855 13.0726 93.7603C13.0275 93.6351 13.009 93.5019 13.0181 93.3692C13.0102 93.0109 13.0745 92.6547 13.2072 92.3219C13.3242 92.035 13.4917 91.7714 13.7017 91.5437C13.9127 91.3182 14.189 91.0492 14.5381 90.7437C14.8872 90.4382 15.069 90.271 15.2072 90.1401C15.3438 90.0039 15.4613 89.8498 15.5563 89.6819C15.6453 89.5111 15.6926 89.3217 15.6945 89.1292C15.697 88.9465 15.66 88.7655 15.5859 88.5985C15.5118 88.4315 15.4025 88.2826 15.2654 88.1619C14.9426 87.9028 14.5411 87.7616 14.1272 87.7616C13.7133 87.7616 13.3118 87.9028 12.989 88.1619C12.6998 88.5072 12.4844 88.9082 12.3563 89.3401C12.1963 89.8855 11.8836 90.1546 11.4254 90.1546C11.2991 90.1574 11.1736 90.1335 11.0571 90.0847C10.9405 90.0358 10.8356 89.963 10.749 89.871C10.5842 89.7207 10.485 89.5118 10.4727 89.2892ZM13.9854 97.1873C13.7044 97.1913 13.432 97.0901 13.2217 96.9037C13.111 96.8032 13.0242 96.6791 12.9676 96.5407C12.911 96.4023 12.886 96.253 12.8945 96.1037C12.8956 95.9667 12.9239 95.8313 12.9775 95.7052C13.0312 95.5792 13.1093 95.465 13.2072 95.3692C13.3102 95.2692 13.4321 95.1908 13.5657 95.1384C13.6992 95.0859 13.8419 95.0606 13.9854 95.0637C14.1239 95.0608 14.2616 95.0852 14.3906 95.1356C14.5197 95.1859 14.6376 95.2612 14.7375 95.3571C14.8375 95.453 14.9176 95.5676 14.9732 95.6945C15.0288 95.8214 15.0589 95.9579 15.0617 96.0964C15.0702 96.2447 15.0452 96.3929 14.9885 96.5301C14.9318 96.6673 14.845 96.7901 14.7345 96.8892C14.5328 97.0818 14.2643 97.1887 13.9854 97.1873Z" fill="#F2F4F5"/>
<rect x="44.2178" y="56.0228" width="17.4545" height="18.0364" rx="2.90909" transform="rotate(90 44.2178 56.0228)" fill="#DFE3E6"/>
<path d="M31.418 62.5255C31.4299 62.0307 31.5812 61.5493 31.8543 61.1365C32.1749 60.6459 32.6155 60.2453 33.1343 59.9728C33.7425 59.6573 34.4203 59.4998 35.1052 59.5146C35.7421 59.5032 36.3734 59.6349 36.9525 59.9001C37.4528 60.1262 37.8789 60.4893 38.1816 60.9474C38.47 61.3773 38.6221 61.8842 38.618 62.4019C38.6276 62.7758 38.5426 63.1461 38.3707 63.4783C38.2127 63.7602 38.0142 64.0175 37.7816 64.2419C37.5562 64.4674 37.1416 64.8455 36.5525 65.3692L36.1598 65.7619C36.0728 65.8554 35.9994 65.9607 35.9416 66.0746C35.8936 66.1651 35.8546 66.2601 35.8252 66.3583C35.8252 66.4528 35.7598 66.6128 35.7089 66.8528C35.6885 67.0619 35.5875 67.2548 35.4273 67.3905C35.2671 67.5263 35.0602 67.5943 34.8507 67.5801C34.6177 67.5837 34.3928 67.4948 34.2252 67.3328C34.1336 67.2364 34.063 67.1219 34.0179 66.9967C33.9728 66.8715 33.9543 66.7383 33.9634 66.6055C33.9555 66.2473 34.0198 65.8911 34.1525 65.5583C34.2695 65.2714 34.437 65.0078 34.6471 64.7801C34.858 64.5546 35.1343 64.2855 35.4834 63.9801C35.8325 63.6746 36.0143 63.5074 36.1525 63.3765C36.2891 63.2403 36.4066 63.0861 36.5016 62.9183C36.5906 62.7475 36.6379 62.5581 36.6398 62.3655C36.6423 62.1829 36.6053 62.0019 36.5312 61.8349C36.4571 61.6679 36.3478 61.519 36.2107 61.3983C35.8879 61.1392 35.4864 60.998 35.0725 60.998C34.6586 60.998 34.2571 61.1392 33.9343 61.3983C33.6451 61.7436 33.4297 62.1446 33.3016 62.5765C33.1416 63.1219 32.8289 63.391 32.3707 63.391C32.2444 63.3937 32.1189 63.3699 32.0024 63.321C31.8859 63.2722 31.7809 63.1994 31.6943 63.1074C31.5295 62.9571 31.4303 62.7482 31.418 62.5255ZM34.9307 70.4237C34.6497 70.4277 34.3774 70.3265 34.1671 70.1401C34.0564 70.0395 33.9695 69.9155 33.9129 69.7771C33.8563 69.6387 33.8313 69.4894 33.8398 69.3401C33.841 69.2031 33.8692 69.0677 33.9229 68.9416C33.9765 68.8156 34.0546 68.7013 34.1525 68.6055C34.2555 68.5056 34.3774 68.4272 34.511 68.3748C34.6446 68.3223 34.7872 68.2969 34.9307 68.3001C35.0692 68.2972 35.2069 68.3216 35.3359 68.372C35.465 68.4223 35.5829 68.4976 35.6828 68.5935C35.7828 68.6894 35.8629 68.804 35.9185 68.9309C35.9741 69.0577 36.0042 69.1943 36.0071 69.3328C36.0155 69.481 35.9905 69.6293 35.9338 69.7665C35.8772 69.9037 35.7903 70.0264 35.6798 70.1255C35.4782 70.3182 35.2096 70.4251 34.9307 70.4237Z" fill="#F2F4F5"/>
</svg>
