<svg fill="none" xmlns="http://www.w3.org/2000/svg" viewBox="0 0 240 240"><g filter="url(#a)"><rect x="33" y="36" width="174" height="143" rx="3.37702" fill="url(#b)" fill-opacity=".3" shape-rendering="crispEdges"/><rect x="33.0455" y="36.0455" width="173.909" height="142.909" rx="3.33152" stroke="#232426" stroke-opacity=".1" stroke-width=".0910096" shape-rendering="crispEdges"/><path d="M47.2379 52.8462c0-2.2091 1.7909-4 4-4 2.2092 0 4 1.7909 4 4 0 2.2091-1.7908 4-4 4-2.2091 0-4-1.7909-4-4ZM57.8847 52.8462c0-2.2091 1.7909-4 4-4 2.2091 0 4 1.7909 4 4 0 2.2091-1.7909 4-4 4-2.2091 0-4-1.7909-4-4Z" fill="#232426" fill-opacity=".3"/><path fill-rule="evenodd" clip-rule="evenodd" d="M207 68.1029H33V67.54h174v.5629Z" fill="#232426" fill-opacity=".1"/></g><g filter="url(#c)"><rect x="17" y="117.243" width="121.622" height="26.7568" rx="1.29342" fill="#fff"/><path d="M42.0621 125.992c0-.801.65-1.451 1.4519-1.451h80.61c.802 0 1.452.65 1.452 1.451v9.259c0 .802-.65 1.452-1.452 1.452h-80.61c-.8019 0-1.4519-.65-1.4519-1.452v-9.259ZM25.9189 126.133c0-.802.6501-1.452 1.452-1.452h9.1486c.8019 0 1.452.65 1.452 1.452v9.149c0 .802-.6501 1.452-1.452 1.452h-9.1486c-.8019 0-1.452-.65-1.452-1.452v-9.149Z" fill="#BBC7B6"/></g><g filter="url(#d)"><rect x="64.027" y="84" width="121.622" height="26.7568" rx="1.29342" fill="#fff"/><path d="M89.0889 92.7493c0-.8019.6501-1.4519 1.452-1.4519H171.15c.802 0 1.452.65 1.452 1.4519v9.2587c0 .801-.65 1.452-1.452 1.452H90.5409c-.8019 0-1.452-.651-1.452-1.452v-9.2587ZM72.946 92.8904c0-.8019.6501-1.4519 1.452-1.4519h9.1486c.8019 0 1.452.65 1.452 1.4519v9.1486c0 .802-.6501 1.452-1.452 1.452H74.398c-.8019 0-1.452-.65-1.452-1.452v-9.1486Z" fill="#BBC7B6"/></g><g filter="url(#e)"><path d="M172.611 132.305c0 19.499-15.807 35.306-35.306 35.306-19.498 0-35.305-15.807-35.305-35.306C102 112.807 117.807 97 137.305 97c19.499 0 35.306 15.807 35.306 35.305Z" fill="#fff" fill-opacity=".6" shape-rendering="crispEdges"/></g><path fill-rule="evenodd" clip-rule="evenodd" d="M137.305 98.5c-18.67 0-33.805 15.135-33.805 33.805s15.135 33.806 33.805 33.806 33.806-15.136 33.806-33.806c0-18.67-15.136-33.805-33.806-33.805ZM100.5 132.305c0-20.327 16.478-36.805 36.805-36.805 20.327 0 36.806 16.478 36.806 36.805 0 20.327-16.479 36.806-36.806 36.806-20.327 0-36.805-16.479-36.805-36.806Z" fill="#CACBCE"/><path fill-rule="evenodd" clip-rule="evenodd" d="m161.211 159.234-4.97 3.936 7.085 8.946-3.975 3.149 30.09 36.843 12.921-10.235-30.09-36.843-3.976 3.149-7.085-8.945Z" fill="#CACBCE"/><defs><filter id="a" x="30.1516" y="32.7993" width="200.5" height="167.21" filterUnits="userSpaceOnUse" color-interpolation-filters="sRGB"><feFlood flood-opacity="0" result="BackgroundImageFix"/><feColorMatrix in="SourceAlpha" values="0 0 0 0 0 0 0 0 0 0 0 0 0 0 0 0 0 0 127 0" result="hardAlpha"/><feOffset dx=".704691" dy=".528518"/><feGaussianBlur stdDeviation="1.7716"/><feComposite in2="hardAlpha" operator="out"/><feColorMatrix values="0 0 0 0 0.054902 0 0 0 0 0.0627451 0 0 0 0 0.0784314 0 0 0 0.18 0"/><feBlend in2="BackgroundImageFix" result="effect1_dropShadow_224_68334"/><feColorMatrix in="SourceAlpha" values="0 0 0 0 0 0 0 0 0 0 0 0 0 0 0 0 0 0 127 0" result="hardAlpha"/><feOffset dx="2.46642" dy="2.11407"/><feGaussianBlur stdDeviation="2.6574"/><feComposite in2="hardAlpha" operator="out"/><feColorMatrix values="0 0 0 0 0.054902 0 0 0 0 0.0627451 0 0 0 0 0.0784314 0 0 0 0.15 0"/><feBlend in2="effect1_dropShadow_224_68334" result="effect2_dropShadow_224_68334"/><feColorMatrix in="SourceAlpha" values="0 0 0 0 0 0 0 0 0 0 0 0 0 0 0 0 0 0 127 0" result="hardAlpha"/><feOffset dx="5.63753" dy="4.75666"/><feGaussianBlur stdDeviation="3.1003"/><feComposite in2="hardAlpha" operator="out"/><feColorMatrix values="0 0 0 0 0.054902 0 0 0 0 0.0627451 0 0 0 0 0.0784314 0 0 0 0.09 0"/><feBlend in2="effect2_dropShadow_224_68334" result="effect3_dropShadow_224_68334"/><feColorMatrix in="SourceAlpha" values="0 0 0 0 0 0 0 0 0 0 0 0 0 0 0 0 0 0 127 0" result="hardAlpha"/><feOffset dx="10.0418" dy="8.45629"/><feGaussianBlur stdDeviation="3.5432"/><feComposite in2="hardAlpha" operator="out"/><feColorMatrix values="0 0 0 0 0.054902 0 0 0 0 0.0627451 0 0 0 0 0.0784314 0 0 0 0.03 0"/><feBlend in2="effect3_dropShadow_224_68334" result="effect4_dropShadow_224_68334"/><feColorMatrix in="SourceAlpha" values="0 0 0 0 0 0 0 0 0 0 0 0 0 0 0 0 0 0 127 0" result="hardAlpha"/><feOffset dx="15.6794" dy="13.0368"/><feGaussianBlur stdDeviation="3.9861"/><feComposite in2="hardAlpha" operator="out"/><feColorMatrix values="0 0 0 0 0.054902 0 0 0 0 0.0627451 0 0 0 0 0.0784314 0 0 0 0.01 0"/><feBlend in2="effect4_dropShadow_224_68334" result="effect5_dropShadow_224_68334"/><feBlend in="SourceGraphic" in2="effect5_dropShadow_224_68334" result="shape"/><feColorMatrix in="SourceAlpha" values="0 0 0 0 0 0 0 0 0 0 0 0 0 0 0 0 0 0 127 0" result="hardAlpha"/><feOffset dy=".0756294"/><feGaussianBlur stdDeviation="1.51259"/><feComposite in2="hardAlpha" operator="arithmetic" k2="-1" k3="1"/><feColorMatrix values="0 0 0 0 0.890196 0 0 0 0 0.870588 0 0 0 0 1 0 0 0 0.1 0"/><feBlend in2="shape" result="effect6_innerShadow_224_68334"/></filter><filter id="c" x="13.7568" y="114.811" width="128.108" height="33.2433" filterUnits="userSpaceOnUse" color-interpolation-filters="sRGB"><feFlood flood-opacity="0" result="BackgroundImageFix"/><feColorMatrix in="SourceAlpha" values="0 0 0 0 0 0 0 0 0 0 0 0 0 0 0 0 0 0 127 0" result="hardAlpha"/><feOffset dy=".810811"/><feGaussianBlur stdDeviation="1.62162"/><feComposite in2="hardAlpha" operator="out"/><feColorMatrix values="0 0 0 0 0 0 0 0 0 0 0 0 0 0 0 0 0 0 0.2 0"/><feBlend in2="BackgroundImageFix" result="effect1_dropShadow_224_68334"/><feBlend in="SourceGraphic" in2="effect1_dropShadow_224_68334" result="shape"/></filter><filter id="d" x="60.7838" y="81.5676" width="128.108" height="33.2433" filterUnits="userSpaceOnUse" color-interpolation-filters="sRGB"><feFlood flood-opacity="0" result="BackgroundImageFix"/><feColorMatrix in="SourceAlpha" values="0 0 0 0 0 0 0 0 0 0 0 0 0 0 0 0 0 0 127 0" result="hardAlpha"/><feOffset dy=".810811"/><feGaussianBlur stdDeviation="1.62162"/><feComposite in2="hardAlpha" operator="out"/><feColorMatrix values="0 0 0 0 0 0 0 0 0 0 0 0 0 0 0 0 0 0 0.2 0"/><feBlend in2="BackgroundImageFix" result="effect1_dropShadow_224_68334"/><feBlend in="SourceGraphic" in2="effect1_dropShadow_224_68334" result="shape"/></filter><filter id="e" x="98" y="93" width="78.6107" height="82.6108" filterUnits="userSpaceOnUse" color-interpolation-filters="sRGB"><feFlood flood-opacity="0" result="BackgroundImageFix"/><feColorMatrix in="SourceAlpha" values="0 0 0 0 0 0 0 0 0 0 0 0 0 0 0 0 0 0 127 0" result="hardAlpha"/><feOffset dy="4"/><feGaussianBlur stdDeviation="2"/><feComposite in2="hardAlpha" operator="out"/><feColorMatrix values="0 0 0 0 0.054902 0 0 0 0 0.0627451 0 0 0 0 0.0784314 0 0 0 0.25 0"/><feBlend in2="BackgroundImageFix" result="effect1_dropShadow_224_68334"/><feColorMatrix in="SourceAlpha" values="0 0 0 0 0 0 0 0 0 0 0 0 0 0 0 0 0 0 127 0" result="hardAlpha"/><feOffset dy="1"/><feGaussianBlur stdDeviation="2"/><feComposite in2="hardAlpha" operator="out"/><feColorMatrix values="0 0 0 0 0.054902 0 0 0 0 0.0627451 0 0 0 0 0.0784314 0 0 0 0.25 0"/><feBlend in2="effect1_dropShadow_224_68334" result="effect2_dropShadow_224_68334"/><feBlend in="SourceGraphic" in2="effect2_dropShadow_224_68334" result="shape"/><feGaussianBlur stdDeviation="2" result="effect3_foregroundBlur_224_68334"/></filter><radialGradient id="b" cx="0" cy="0" r="1" gradientUnits="userSpaceOnUse" gradientTransform="matrix(183.80277 183.48674 -163.24062 163.52178 89 131)"><stop offset=".2" stop-color="#fff"/><stop offset=".814173" stop-color="#EEE"/></radialGradient></defs></svg>