<svg width="48" height="48" viewBox="0 0 48 48" fill="none" xmlns="http://www.w3.org/2000/svg">
<path d="M23.8414 37.932L23.5161 37.7986C16.1721 34.8746 9.19472 34.8746 1.85072 37.7986L1.52539 37.932V11.5866C8.84272 8.57995 15.8267 8.49195 23.2067 11.3426L23.8414 11.5866" fill="white"/>
<path d="M46.2346 37.932L45.9106 37.7986C38.5666 34.8746 31.5879 34.8746 24.2439 37.7986L23.9199 37.932V11.5866C31.2373 8.57995 38.2213 8.49195 45.5999 11.3426L46.2333 11.5866L46.2346 37.932Z" fill="#EDEDEA"/>
<path d="M34.7719 14.9546H28.8706V20.8559H34.7719V14.9546Z" fill="white"/>
<path d="M34.7719 24.8521H28.8706V30.7534H34.7719V24.8521Z" fill="white"/>
<path d="M46.2346 37.932L45.9106 37.7986C38.5666 34.8746 31.5879 34.8746 24.2439 37.7986L23.9199 37.932V11.5866C31.2373 8.57996 38.2213 8.49195 45.5999 11.3426L46.2333 11.5866L46.2346 37.932Z" stroke="#333C44" stroke-width="1.57733" stroke-linecap="round" stroke-linejoin="round"/>
<path d="M23.8414 37.932L23.5161 37.7986C16.1721 34.8746 9.19472 34.8746 1.85072 37.7986L1.52539 37.932V11.5866C8.84272 8.57996 15.8267 8.49195 23.2067 11.3426L23.8414 11.5866" stroke="#333C44" stroke-width="1.57733" stroke-linecap="round" stroke-linejoin="round"/>
<path d="M11.9599 14.9546H6.05859V20.8559H11.9599V14.9546Z" fill="#EDEDEA"/>
<path d="M11.9599 24.8521H6.05859V30.7534H11.9599V24.8521Z" fill="#EDEDEA"/>
<path d="M11.9599 14.9546H6.05859V20.8559H11.9599V14.9546Z" stroke="#333C44" stroke-width="1.57733" stroke-linecap="round" stroke-linejoin="round"/>
<path d="M11.9599 24.8521H6.05859V30.7534H11.9599V24.8521Z" stroke="#333C44" stroke-width="1.57733" stroke-linecap="round" stroke-linejoin="round"/>
<path d="M34.7719 14.9546H28.8706V20.8559H34.7719V14.9546Z" stroke="#333C44" stroke-width="1.57733" stroke-linecap="round" stroke-linejoin="round"/>
<path d="M34.7719 24.8521H28.8706V30.7534H34.7719V24.8521Z" stroke="#333C44" stroke-width="1.57733" stroke-linecap="round" stroke-linejoin="round"/>
<path d="M15.1001 17.9053H19.7494" stroke="#333C44" stroke-width="1.57733" stroke-linecap="round" stroke-linejoin="round"/>
<path d="M15.1001 27.8027H19.7494" stroke="#333C44" stroke-width="1.57733" stroke-linecap="round" stroke-linejoin="round"/>
<path d="M38.0334 17.9053H42.6814" stroke="#333C44" stroke-width="1.57733" stroke-linecap="round" stroke-linejoin="round"/>
<path d="M38.0334 27.8027H42.6814" stroke="#333C44" stroke-width="1.57733" stroke-linecap="round" stroke-linejoin="round"/>
</svg>
