<svg fill="none" xmlns="http://www.w3.org/2000/svg" viewBox="0 0 282 104"><g clip-path="url(#PeopleImage_svg__a)"><path fill="#F2F4F5" d="M0 0h282v104H0z"></path><g clip-path="url(#PeopleImage_svg__b)"><g opacity="0.25" clip-path="url(#PeopleImage_svg__c)" fill="#B4BBC3"><path d="M45.839 92.402a3.571 3.571 0 1 1-.05 7.142 3.571 3.571 0 0 1 .05-7.142zm18.553 7.144a3.574 3.574 0 1 1 .134-7.147 3.574 3.574 0 0 1-.133 7.147zM5.143 96.007a3.533 3.533 0 0 1 3.5-3.605 3.57 3.57 0 1 1 .072 7.144 3.56 3.56 0 0 1-3.572-3.54zm22.169-21.731a3.528 3.528 0 0 1 3.542 3.56 3.592 3.592 0 0 1-3.521 3.602 3.644 3.644 0 0 1-3.64-3.664 3.584 3.584 0 0 1 3.62-3.498zm-22.17 3.598a3.522 3.522 0 0 1 3.5-3.595 3.581 3.581 0 0 1 3.668 3.601 3.64 3.64 0 0 1-3.599 3.56 3.59 3.59 0 0 1-3.569-3.566z"></path></g></g><g opacity="0.25" clip-path="url(#PeopleImage_svg__d)" fill="#B4BBC3"><path d="M200.78 24.137a3.625 3.625 0 0 0-3.56 3.604 3.663 3.663 0 0 0 3.599 3.56 3.617 3.617 0 0 0 3.598-3.696 3.58 3.58 0 0 0-3.637-3.468zm.104 25.723a3.59 3.59 0 1 0-.208-7.178 3.59 3.59 0 0 0 .208 7.179zm14.507-22.13a3.593 3.593 0 0 0 4.319 3.52 3.595 3.595 0 0 0-.783-7.116 3.588 3.588 0 0 0-3.536 3.595zm-29.113-.036a3.542 3.542 0 0 0-2.194-3.296 3.531 3.531 0 0 0-1.366-.264 3.602 3.602 0 0 0-3.616 3.527 3.652 3.652 0 0 0 3.658 3.652 3.594 3.594 0 0 0 3.518-3.62zm50.873-14.964a3.628 3.628 0 0 0 3.56-3.59 3.555 3.555 0 0 0-1.096-2.572A3.554 3.554 0 0 0 237 5.58a3.475 3.475 0 0 0-3.448 3.631 3.553 3.553 0 0 0 2.231 3.268c.435.174.9.259 1.368.25zm14.522 52.109a3.576 3.576 0 0 0 1.064 2.518 3.567 3.567 0 0 0 3.898.747 3.569 3.569 0 0 0 2.181-3.315 3.57 3.57 0 1 0-7.143.05zm7.144 18.553a3.574 3.574 0 1 0-7.147.134 3.574 3.574 0 0 0 7.147-.133zm10.964-55.618a3.633 3.633 0 0 0 3.608 3.539 3.584 3.584 0 0 0 3.315-2.323c.169-.449.246-.927.227-1.406a3.538 3.538 0 0 0-1.108-2.488 3.515 3.515 0 0 0-2.55-.953 3.558 3.558 0 0 0-3.492 3.63zm0 18.559a3.56 3.56 0 0 0 3.59 3.53 3.514 3.514 0 0 0 3.337-2.277c.17-.449.245-.928.223-1.407a3.59 3.59 0 0 0-3.64-3.486 3.63 3.63 0 0 0-3.51 3.64zm3.442 33.523a3.559 3.559 0 0 0-2.485 1.122 3.559 3.559 0 0 0 .157 5.034 3.563 3.563 0 0 0 2.55.964 3.522 3.522 0 0 0 3.483-3.738 3.496 3.496 0 0 0-3.705-3.382zm3.708-14.952a3.561 3.561 0 0 0-3.471-3.64 3.61 3.61 0 0 0-3.679 3.605 3.54 3.54 0 0 0 2.199 3.274c.432.176.895.265 1.361.262a3.482 3.482 0 0 0 3.59-3.5zm0-55.755a3.478 3.478 0 0 0-3.522-3.56 3.542 3.542 0 0 0-3.628 3.625 3.618 3.618 0 0 0 3.622 3.516 3.56 3.56 0 0 0 3.528-3.581zm-21.654 14.993a3.532 3.532 0 0 0-3.604 3.501 3.569 3.569 0 0 0 3.536 3.608 3.578 3.578 0 0 0 2.536-1.021 3.576 3.576 0 0 0 1.071-2.516 3.558 3.558 0 0 0-3.539-3.572zM218.947 5.59a3.517 3.517 0 0 0-3.56 3.56 3.551 3.551 0 0 0 1.026 2.526 3.564 3.564 0 0 0 3.912.784 3.64 3.64 0 0 0 2.247-3.38 3.588 3.588 0 0 0-3.625-3.49zm-36.284 7.14a3.562 3.562 0 0 0 3.607-3.504 3.483 3.483 0 0 0-3.444-3.637 3.56 3.56 0 0 0-3.718 3.56 3.636 3.636 0 0 0 3.555 3.58zm-18.032-7.141a3.52 3.52 0 0 0-3.331 2.11 3.615 3.615 0 0 0-.043 2.756 3.602 3.602 0 0 0 3.353 2.275 3.561 3.561 0 0 0 3.542-3.56 3.493 3.493 0 0 0-2.155-3.316 3.487 3.487 0 0 0-1.366-.265zm68.916 40.723a3.516 3.516 0 0 0 1.039 2.516 3.52 3.52 0 0 0 2.521 1.027 3.593 3.593 0 0 0 3.601-3.522 3.646 3.646 0 0 0-2.264-3.369 3.643 3.643 0 0 0-1.4-.27 3.585 3.585 0 0 0-3.497 3.618zm3.598-22.169a3.523 3.523 0 0 0-3.596 3.5 3.592 3.592 0 0 0 1.026 2.595 3.575 3.575 0 0 0 2.576 1.072 3.64 3.64 0 0 0 3.56-3.599 3.592 3.592 0 0 0-3.566-3.569z"></path></g><path d="M153.989 53.924a7.26 7.26 0 1 0 0-14.52 7.26 7.26 0 0 0 0 14.52z" fill="#F6F8F9"></path><path d="M153.989 50.615a9.682 9.682 0 0 1 9.68 9.68v3.71h-19.36v-3.708a9.672 9.672 0 0 1 2.834-6.846 9.678 9.678 0 0 1 6.846-2.836z" fill="#F6F8F9"></path><path d="M153.989 50.615a9.682 9.682 0 0 1 9.68 9.68v3.71h-19.36v-3.708a9.672 9.672 0 0 1 2.834-6.846 9.678 9.678 0 0 1 6.846-2.836z" fill="#F6F8F9" stroke="#333C44" stroke-width="2.208" stroke-linecap="round" stroke-linejoin="round"></path><path d="M153.989 53.924a7.26 7.26 0 1 0 0-14.52 7.26 7.26 0 0 0 0 14.52z" fill="#fff"></path><path d="M153.989 53.924a7.26 7.26 0 1 0 0-14.52 7.26 7.26 0 0 0 0 14.52z" stroke="#333C44" stroke-width="2.208" stroke-linecap="round" stroke-linejoin="round"></path><path d="M128.011 53.924a7.26 7.26 0 1 0 0-14.52 7.26 7.26 0 0 0 0 14.52z" fill="#fff"></path><path d="M128.011 50.615a9.679 9.679 0 0 1 9.68 9.68v3.71h-19.36v-3.708c0-1.271.25-2.53.736-3.705a9.691 9.691 0 0 1 5.239-5.24 9.684 9.684 0 0 1 3.705-.736z" fill="#F6F8F9"></path><path d="M128.011 50.615a9.679 9.679 0 0 1 9.68 9.68v3.71h-19.36v-3.708c0-1.271.25-2.53.736-3.705a9.691 9.691 0 0 1 5.239-5.24 9.684 9.684 0 0 1 3.705-.736v0z" stroke="#333C44" stroke-width="2.208" stroke-linecap="round" stroke-linejoin="round"></path><path d="M128.011 53.924a7.26 7.26 0 1 0 0-14.52 7.26 7.26 0 0 0 0 14.52z" fill="#fff"></path><path d="M128.011 53.924a7.26 7.26 0 1 0 0-14.52 7.26 7.26 0 0 0 0 14.52z" stroke="#333C44" stroke-width="2.208" stroke-linecap="round" stroke-linejoin="round"></path><path d="M140.622 44.168a12.85 12.85 0 0 1 12.848 12.849v6.989h-25.693v-6.988a12.85 12.85 0 0 1 12.845-12.85z" fill="#F6F8F9"></path><path d="M140.622 44.168a12.85 12.85 0 0 1 12.848 12.849v6.989h-25.693v-6.988a12.85 12.85 0 0 1 12.845-12.85v0z" stroke="#333C44" stroke-width="2.208" stroke-linecap="round" stroke-linejoin="round"></path><path d="M140.622 48.56c5.322 0 9.637-4.315 9.637-9.637a9.637 9.637 0 0 0-9.637-9.637 9.637 9.637 0 1 0 0 19.273z" fill="#fff"></path><path d="M140.622 48.56c5.322 0 9.637-4.315 9.637-9.637a9.637 9.637 0 0 0-9.637-9.637 9.637 9.637 0 1 0 0 19.273z" stroke="#333C44" stroke-width="2.208" stroke-linecap="round" stroke-linejoin="round"></path><path d="M149.672 71.337h-1.115v4.47l-7.646-4.47h-9.21a3.66 3.66 0 0 1-3.386-2.261 3.667 3.667 0 0 1-.279-1.402v-6.185a3.667 3.667 0 0 1 2.263-3.385 3.66 3.66 0 0 1 1.402-.279h17.971a3.662 3.662 0 0 1 3.664 3.664v6.183a3.668 3.668 0 0 1-2.261 3.386 3.666 3.666 0 0 1-1.403.279z" fill="#94CBE8"></path><path d="M149.672 71.337h-1.115v4.47l-7.646-4.47h-9.21a3.66 3.66 0 0 1-3.386-2.261 3.667 3.667 0 0 1-.279-1.402v-6.185a3.667 3.667 0 0 1 2.263-3.385 3.66 3.66 0 0 1 1.402-.279h17.971a3.662 3.662 0 0 1 3.664 3.664v6.183a3.668 3.668 0 0 1-2.261 3.386 3.666 3.666 0 0 1-1.403.279v0z" stroke="#333C44" stroke-width="2.208" stroke-linecap="round" stroke-linejoin="round"></path></g><defs><clipPath id="PeopleImage_svg__a"><path fill="#fff" d="M0 0h282v104H0z"></path></clipPath><clipPath id="PeopleImage_svg__b"><path fill="#fff" transform="rotate(-90 133.5 165.5)" d="M0 0h232v100H0z"></path></clipPath><clipPath id="PeopleImage_svg__c"><path fill="#fff" transform="rotate(-180 34 149.5)" d="M0 0h100v297.271H0z"></path></clipPath><clipPath id="PeopleImage_svg__d"><path fill="#fff" transform="matrix(0 -1 -1 0 458.271 87)" d="M0 0h100v297.271H0z"></path></clipPath></defs></svg>