<svg xmlns="http://www.w3.org/2000/svg" xmlns:xlink="http://www.w3.org/1999/xlink" viewBox="0 0 270.02 282.76"><defs><style>.cls-1,.cls-12,.cls-13,.cls-3,.cls-5{fill:none;}.cls-2{fill:#ebf9f9;}.cls-3{stroke:#00829a;}.cls-12,.cls-13,.cls-3,.cls-5{stroke-miterlimit:10;}.cls-3,.cls-5{stroke-width:9.92px;}.cls-4{fill:#00829a;}.cls-12,.cls-5{stroke:#00a7a4;}.cls-6{fill:#00a7a4;}.cls-7{fill:#fff;}.cls-8{fill:#0a3942;}.cls-9{fill:#00db6a;}.cls-10{fill:#66cac8;}.cls-11{clip-path:url(#clip-path);}.cls-12,.cls-13{stroke-linecap:round;}.cls-12{stroke-width:8px;}.cls-13{stroke:#fff;stroke-width:6px;}</style><clipPath id="clip-path"><path class="cls-1" d="M178.89,152.08,191.1,93.89A3.56,3.56,0,0,0,187,89.66L126.46,101a3.56,3.56,0,0,0-1.83,6l48.3,46.84A3.56,3.56,0,0,0,178.89,152.08Z"/></clipPath></defs><title>customer-winback-1</title><g id="Layer_13" data-name="Layer 13"><circle class="cls-2" cx="135.01" cy="142.2" r="135"/><path class="cls-3" d="M67.78,220.29A98.56,98.56,0,0,1,31.3,165.85h0a98.7,98.7,0,0,1-.38-47.79l1.26-5.22a98.78,98.78,0,0,1,96-75.64h5.6"/><path class="cls-4" d="M65.12,209.07l-1.74,7a2.32,2.32,0,0,1-1.11,1.47l-6.21,3.58a2.36,2.36,0,0,0,.6,4.34l21.07,5.32a2.36,2.36,0,0,0,2.62-3.48l-10.89-18.8A2.36,2.36,0,0,0,65.12,209.07Z"/><path class="cls-5" d="M197.34,63.89a98.71,98.71,0,0,1,39.44,57.22l.65,2.61a98.86,98.86,0,0,1,0,47.74l-.65,2.61A98.77,98.77,0,0,1,140.93,249h-7.12"/><path class="cls-6" d="M202.93,77.21l1.75-6.95a2.36,2.36,0,0,1,1.11-1.47L212,65.22a2.36,2.36,0,0,0-.59-4.34l-21-5.36A2.37,2.37,0,0,0,187.73,59l10.86,18.82A2.36,2.36,0,0,0,202.93,77.21Z"/><path class="cls-6" d="M166.72,251.51c16.61-26.36-14.28-49.39-30.85-27.67-.48.77-1,1.38-2.07,1.17-19.89-25-47.94,2.68-32,26.5l-.07,0c3.52,3.57,21.69,26.78,26,29.36,11.73,5.44,15.61-2.06,22.84-10.32,8.33-9.77,13.81-16.18,16.24-19Z"/><circle class="cls-4" cx="134.26" cy="37.2" r="37.2"/><circle class="cls-7" cx="122.97" cy="29.22" r="5.59"/><circle class="cls-7" cx="145.55" cy="29.22" r="5.59"/><path class="cls-8" d="M118.28,154.93l.61,0,28,3a5.72,5.72,0,0,1,5.09,6.3l-1.63,15.49a5.73,5.73,0,0,1-5.69,5.12l-.61,0-28-3a5.71,5.71,0,0,1-5.09-6.3l1.63-15.49a5.73,5.73,0,0,1,5.69-5.12m0-9.92h0a15.61,15.61,0,0,0-15.55,14l-1.64,15.49A15.65,15.65,0,0,0,115,191.7l28,3a15.2,15.2,0,0,0,1.65.09,15.61,15.61,0,0,0,15.55-14l1.64-15.49a15.64,15.64,0,0,0-13.91-17.2l-28-3a15.2,15.2,0,0,0-1.65-.09Z"/><circle class="cls-9" cx="94.06" cy="122.25" r="18.67"/><path class="cls-10" d="M178.87,152l12.21-58.19A3.55,3.55,0,0,0,187,89.56l-60.51,11.35a3.56,3.56,0,0,0-1.83,6l48.3,46.84A3.56,3.56,0,0,0,178.87,152Z"/><g class="cls-11"><line class="cls-12" x1="61.45" y1="424.24" x2="199.6" y2="266.24"/><line class="cls-12" x1="61.45" y1="399.24" x2="199.6" y2="241.24"/><line class="cls-12" x1="61.45" y1="374.24" x2="199.6" y2="216.24"/><line class="cls-12" x1="61.45" y1="349.24" x2="199.6" y2="191.24"/><line class="cls-12" x1="61.45" y1="324.24" x2="199.6" y2="166.24"/><line class="cls-12" x1="61.45" y1="299.24" x2="199.6" y2="141.24"/><line class="cls-12" x1="61.45" y1="274.24" x2="199.6" y2="116.24"/><line class="cls-12" x1="61.45" y1="249.24" x2="199.6" y2="91.24"/><line class="cls-12" x1="61.45" y1="224.24" x2="199.6" y2="66.24"/><line class="cls-12" x1="61.45" y1="199.24" x2="199.6" y2="41.24"/><line class="cls-12" x1="61.45" y1="174.24" x2="199.6" y2="16.24"/><line class="cls-12" x1="61.45" y1="149.24" x2="199.6" y2="-8.76"/></g><path class="cls-13" d="M122.58,55.23a34.06,34.06,0,0,0,23,0"/></g></svg>