<svg xmlns="http://www.w3.org/2000/svg" xmlns:xlink="http://www.w3.org/1999/xlink" viewBox="0 0 270 270"><defs><style>.cls-1,.cls-5,.cls-9{fill:none;}.cls-2{fill:#ebf9f9;}.cls-3{fill:#80d3d1;}.cls-4{clip-path:url(#clip-path);}.cls-5{stroke:#66b4c2;stroke-width:8px;}.cls-5,.cls-9{stroke-linecap:round;stroke-miterlimit:10;}.cls-6{fill:#00829a;}.cls-7{fill:#0a3942;}.cls-8{fill:#fff;}.cls-9{stroke:#00db6a;stroke-width:12px;}</style><clipPath id="clip-path"><rect class="cls-1" x="64.09" y="107.5" width="192.84" height="112.22" rx="6.95"/></clipPath></defs><title>product-review-1</title><g id="Layer_9" data-name="Layer 9"><circle class="cls-2" cx="135" cy="135" r="135"/><rect class="cls-3" x="64.09" y="107.5" width="192.84" height="112.22" rx="6.95"/><g class="cls-4"><line class="cls-5" x1="269.4" y1="341.54" x2="449.89" y2="-73.15"/><line class="cls-5" x1="244.4" y1="341.54" x2="424.89" y2="-73.15"/><line class="cls-5" x1="219.4" y1="341.54" x2="399.89" y2="-73.15"/><line class="cls-5" x1="194.4" y1="341.54" x2="374.89" y2="-73.15"/><line class="cls-5" x1="169.4" y1="341.54" x2="349.89" y2="-73.15"/><line class="cls-5" x1="144.4" y1="341.54" x2="324.89" y2="-73.15"/><line class="cls-5" x1="119.4" y1="341.54" x2="299.89" y2="-73.15"/><line class="cls-5" x1="94.4" y1="341.54" x2="274.89" y2="-73.15"/><line class="cls-5" x1="69.4" y1="341.54" x2="249.89" y2="-73.15"/><line class="cls-5" x1="44.4" y1="341.54" x2="224.89" y2="-73.15"/><line class="cls-5" x1="19.4" y1="341.54" x2="199.89" y2="-73.15"/><line class="cls-5" x1="-5.6" y1="341.54" x2="174.89" y2="-73.15"/><line class="cls-5" x1="-30.6" y1="341.54" x2="149.89" y2="-73.15"/><line class="cls-5" x1="-55.6" y1="341.54" x2="124.89" y2="-73.15"/><line class="cls-5" x1="-80.6" y1="341.54" x2="99.89" y2="-73.15"/><line class="cls-5" x1="-105.6" y1="341.54" x2="74.89" y2="-73.15"/><line class="cls-5" x1="-130.6" y1="341.54" x2="49.89" y2="-73.15"/><line class="cls-5" x1="-155.6" y1="341.54" x2="24.89" y2="-73.15"/></g><rect class="cls-6" x="8.46" y="43.84" width="207.07" height="147.18" rx="12.26"/><path class="cls-7" d="M203.26,48.28a7.83,7.83,0,0,1,7.82,7.83V178.76a7.83,7.83,0,0,1-7.82,7.83H20.72a7.83,7.83,0,0,1-7.82-7.83V56.11a7.83,7.83,0,0,1,7.82-7.83H203.26m0-8.88H20.72A16.73,16.73,0,0,0,4,56.11V178.76a16.73,16.73,0,0,0,16.7,16.71H203.26A16.73,16.73,0,0,0,220,178.76V56.11a16.73,16.73,0,0,0-16.7-16.71Z"/><path class="cls-8" d="M53.35,83.42l4.18,8.48a1.41,1.41,0,0,0,1,.76L67.93,94a1.39,1.39,0,0,1,.77,2.37L61.94,103a1.38,1.38,0,0,0-.4,1.23l1.59,9.31a1.39,1.39,0,0,1-2,1.47l-8.36-4.4a1.42,1.42,0,0,0-1.3,0L43.09,115a1.4,1.4,0,0,1-2-1.47l1.6-9.31a1.38,1.38,0,0,0-.4-1.23l-6.77-6.6A1.39,1.39,0,0,1,36.27,94l9.35-1.36a1.39,1.39,0,0,0,1.05-.76l4.18-8.48A1.4,1.4,0,0,1,53.35,83.42Z"/><path class="cls-8" d="M105.24,83.42l4.18,8.48a1.42,1.42,0,0,0,1,.76L119.82,94a1.39,1.39,0,0,1,.77,2.37l-6.76,6.6a1.38,1.38,0,0,0-.4,1.23l1.6,9.31a1.4,1.4,0,0,1-2,1.47l-8.37-4.4a1.4,1.4,0,0,0-1.29,0L95,115a1.4,1.4,0,0,1-2-1.47l1.6-9.31a1.38,1.38,0,0,0-.4-1.23l-6.76-6.6A1.39,1.39,0,0,1,88.17,94l9.35-1.36a1.42,1.42,0,0,0,1-.76l4.18-8.48A1.39,1.39,0,0,1,105.24,83.42Z"/><path class="cls-8" d="M157.14,83.42l4.18,8.48a1.39,1.39,0,0,0,1.05.76L171.72,94a1.39,1.39,0,0,1,.77,2.37l-6.77,6.6a1.4,1.4,0,0,0-.4,1.23l1.6,9.31a1.4,1.4,0,0,1-2,1.47l-8.36-4.4a1.42,1.42,0,0,0-1.3,0l-8.36,4.4a1.39,1.39,0,0,1-2-1.47l1.59-9.31a1.38,1.38,0,0,0-.4-1.23l-6.76-6.6a1.39,1.39,0,0,1,.77-2.37l9.35-1.36a1.41,1.41,0,0,0,1.05-.76l4.18-8.48A1.4,1.4,0,0,1,157.14,83.42Z"/><line class="cls-9" x1="36.9" y1="146.22" x2="181.65" y2="146.22"/><path class="cls-7" d="M268.26,19.51l-10.66-8.1a3.32,3.32,0,0,0-2-.71,2.05,2.05,0,0,0-1.63.76l-2.44,3.21h0l-63.7,83.81h0l-.54,12.14a3.21,3.21,0,0,0,1.35,2.57,3.5,3.5,0,0,0,2.1.73,2.24,2.24,0,0,0,.73-.12L203,110v0l.79-1,5.36-6.86-.09-.07,57.64-75.83h0L269.19,23C269.94,22.05,269.52,20.47,268.26,19.51Z"/></g></svg>