<svg xmlns="http://www.w3.org/2000/svg" xmlns:xlink="http://www.w3.org/1999/xlink" viewBox="0 0 272.65 270.02"><defs><style>.cls-1,.cls-12,.cls-3,.cls-5{fill:none;}.cls-2{clip-path:url(#clip-path);}.cls-3{stroke:#00a7a4;}.cls-3,.cls-5{stroke-linecap:round;}.cls-12,.cls-3,.cls-5{stroke-miterlimit:10;stroke-width:8px;}.cls-4{clip-path:url(#clip-path-2);}.cls-12,.cls-5{stroke:#cceded;}.cls-6{fill:#ebf9f9;}.cls-7{fill:#00829a;}.cls-8{clip-path:url(#clip-path-3);}.cls-9{fill:#80d3d1;}.cls-10{fill:#0a3942;}.cls-11{fill:#00db6a;}.cls-13{fill:#fff;}</style><clipPath id="clip-path"><rect class="cls-1" x="461.28" y="45.26" width="193.98" height="138.73" rx="7.75"/></clipPath><clipPath id="clip-path-2"><path class="cls-1" d="M194.24,512.72c37.44,0,84,8.21,84,61.68,0,37.16-27,53.79-56.25,59.65a75.69,75.69,0,0,0,7.11,19.34c.68,1.27-.43,2.79-1.62,2.24L222,653.08a60.85,60.85,0,0,1-21.2-16.53c-2.19.09-4.37.14-6.51.14-35.67,0-80.55-13.32-80.55-62.48C113.69,521.06,158.57,512.72,194.24,512.72Z"/></clipPath><clipPath id="clip-path-3"><rect class="cls-1" x="70.67" y="45.26" width="193.98" height="138.73" rx="7.75"/></clipPath></defs><title>browse-abandonment-1</title><g id="Layer_4" data-name="Layer 4"><g class="cls-2"><line class="cls-3" x1="274.06" y1="325.79" x2="526.99" y2="-49.14"/><line class="cls-3" x1="246.06" y1="325.79" x2="498.99" y2="-49.14"/><line class="cls-3" x1="218.06" y1="325.79" x2="470.99" y2="-49.14"/><line class="cls-3" x1="190.06" y1="325.79" x2="442.99" y2="-49.14"/><line class="cls-3" x1="162.06" y1="325.79" x2="414.99" y2="-49.14"/></g></g><g id="Layer_12" data-name="Layer 12"><g class="cls-4"><line class="cls-5" x1="272.64" y1="766.53" x2="475.45" y2="232.23"/><line class="cls-5" x1="245.64" y1="766.53" x2="448.45" y2="232.23"/><line class="cls-5" x1="218.64" y1="766.53" x2="421.45" y2="232.23"/><line class="cls-5" x1="191.64" y1="766.53" x2="394.45" y2="232.23"/><line class="cls-5" x1="164.64" y1="766.53" x2="367.45" y2="232.23"/><line class="cls-5" x1="137.64" y1="766.53" x2="340.45" y2="232.23"/><line class="cls-5" x1="110.64" y1="766.53" x2="313.45" y2="232.23"/><line class="cls-5" x1="83.64" y1="766.53" x2="286.45" y2="232.23"/><line class="cls-5" x1="56.64" y1="766.53" x2="259.45" y2="232.23"/><line class="cls-5" x1="29.64" y1="766.53" x2="232.45" y2="232.23"/><line class="cls-5" x1="2.64" y1="766.53" x2="205.45" y2="232.23"/><line class="cls-5" x1="-24.36" y1="766.53" x2="178.45" y2="232.23"/><line class="cls-5" x1="-51.36" y1="766.53" x2="151.45" y2="232.23"/><line class="cls-5" x1="-78.36" y1="766.53" x2="124.45" y2="232.23"/><line class="cls-5" x1="-105.36" y1="766.53" x2="97.45" y2="232.23"/><line class="cls-5" x1="-132.36" y1="766.53" x2="70.45" y2="232.23"/><line class="cls-5" x1="-159.36" y1="766.53" x2="43.45" y2="232.23"/></g></g><g id="Layer_10" data-name="Layer 10"><circle class="cls-6" cx="137.08" cy="135.01" r="135"/><rect class="cls-7" x="66.67" y="41.26" width="201.98" height="146.73" rx="11.75"/><path class="cls-7" d="M256.9,45.26A7.75,7.75,0,0,1,264.65,53V176.24A7.75,7.75,0,0,1,256.9,184H78.43a7.75,7.75,0,0,1-7.76-7.75V53a7.75,7.75,0,0,1,7.76-7.75H256.9m0-8H78.43A15.78,15.78,0,0,0,62.67,53V176.24A15.77,15.77,0,0,0,78.43,192H256.9a15.77,15.77,0,0,0,15.75-15.75V53A15.77,15.77,0,0,0,256.9,37.26Z"/><g class="cls-8"><line class="cls-3" x1="275.46" y1="325.79" x2="528.39" y2="-49.14"/><line class="cls-3" x1="247.46" y1="325.79" x2="500.39" y2="-49.14"/><line class="cls-3" x1="219.46" y1="325.79" x2="472.39" y2="-49.14"/><line class="cls-3" x1="191.46" y1="325.79" x2="444.39" y2="-49.14"/><line class="cls-3" x1="163.46" y1="325.79" x2="416.39" y2="-49.14"/><line class="cls-3" x1="135.46" y1="325.79" x2="388.39" y2="-49.14"/><line class="cls-3" x1="107.46" y1="325.79" x2="360.39" y2="-49.14"/><line class="cls-3" x1="79.46" y1="325.79" x2="332.39" y2="-49.14"/><line class="cls-3" x1="51.46" y1="325.79" x2="304.39" y2="-49.14"/><line class="cls-3" x1="23.46" y1="325.79" x2="276.39" y2="-49.14"/><line class="cls-3" x1="-4.54" y1="325.79" x2="248.39" y2="-49.14"/><line class="cls-3" x1="-32.54" y1="325.79" x2="220.39" y2="-49.14"/><line class="cls-3" x1="-60.54" y1="325.79" x2="192.39" y2="-49.14"/><line class="cls-3" x1="-88.54" y1="325.79" x2="164.39" y2="-49.14"/><line class="cls-3" x1="-116.54" y1="325.79" x2="136.39" y2="-49.14"/><line class="cls-3" x1="-144.54" y1="325.79" x2="108.39" y2="-49.14"/><line class="cls-3" x1="-172.54" y1="325.79" x2="80.39" y2="-49.14"/><line class="cls-3" x1="-200.54" y1="325.79" x2="52.39" y2="-49.14"/><line class="cls-3" x1="-228.54" y1="325.79" x2="24.39" y2="-49.14"/></g><g class="cls-8"><rect class="cls-9" x="46.44" y="28.19" width="259.83" height="41.41"/></g><circle class="cls-10" cx="84.28" cy="56.52" r="4.52"/><circle class="cls-10" cx="98.65" cy="56.52" r="4.52"/><circle class="cls-10" cx="113.02" cy="56.52" r="4.52"/><path class="cls-11" d="M168.8,88.69l-2.23,41.54a2.49,2.49,0,0,0,3.31,2.48l40.63-14.31a2.49,2.49,0,0,0,.61-4.38l-38.4-27.23A2.49,2.49,0,0,0,168.8,88.69Z"/><circle class="cls-12" cx="217.71" cy="149.21" r="11.5"/><path class="cls-10" d="M2.4,264.4h0a7.88,7.88,0,0,1-.19-11.13L85.8,166.75l11.33,10.94L13.54,264.21A7.87,7.87,0,0,1,2.4,264.4Z"/><circle class="cls-10" cx="97.3" cy="166.18" r="64.8"/><circle class="cls-13" cx="97.3" cy="166.18" r="50.04"/></g></svg>