<svg xmlns="http://www.w3.org/2000/svg" xmlns:xlink="http://www.w3.org/1999/xlink" viewBox="0 0 270 270"><defs><style>.cls-1,.cls-10,.cls-6,.cls-8,.cls-9{fill:none;}.cls-2{fill:#ebf9f9;}.cls-3{fill:#00db6a;}.cls-4{fill:#66cac8;}.cls-5{clip-path:url(#clip-path);}.cls-6{stroke:#00a7a4;stroke-width:8.69px;}.cls-10,.cls-11,.cls-6,.cls-8{stroke-linecap:round;}.cls-10,.cls-11,.cls-6,.cls-8,.cls-9{stroke-miterlimit:10;}.cls-11,.cls-7{fill:#0a3942;}.cls-8{stroke:#00829a;}.cls-10,.cls-11,.cls-8,.cls-9{stroke-width:8px;}.cls-10,.cls-11,.cls-9{stroke:#0a3942;}.cls-12{fill:#80d3d1;}</style><clipPath id="clip-path"><path class="cls-1" d="M189.32,153.92l48.89-87.45a6,6,0,0,0-4.53-8.88l-103-12.16a6,6,0,0,0-6,8.82l54.14,99.61A6,6,0,0,0,189.32,153.92Z"/></clipPath></defs><title>Artboard 3</title><g id="Layer_2" data-name="Layer 2"><circle class="cls-2" cx="135" cy="135" r="135"/><circle class="cls-3" cx="97.64" cy="122.24" r="39.66"/><path class="cls-4" d="M189.34,153.76,238.23,66.3a6,6,0,0,0-4.53-8.88l-103-12.16a6,6,0,0,0-6,8.82l54.14,99.61A6,6,0,0,0,189.34,153.76Z"/><g class="cls-5"><line class="cls-6" x1="-36.32" y1="457.41" x2="265.28" y2="272.7"/><line class="cls-6" x1="-38.28" y1="434.89" x2="263.32" y2="250.18"/><line class="cls-6" x1="-40.24" y1="412.38" x2="261.37" y2="227.67"/><line class="cls-6" x1="-42.2" y1="389.87" x2="259.41" y2="205.16"/><line class="cls-6" x1="-44.15" y1="367.36" x2="257.45" y2="182.64"/><line class="cls-6" x1="-46.11" y1="344.84" x2="255.49" y2="160.13"/><line class="cls-6" x1="-48.07" y1="322.33" x2="253.54" y2="137.62"/><line class="cls-6" x1="-50.03" y1="299.82" x2="251.58" y2="115.11"/><line class="cls-6" x1="-51.99" y1="277.31" x2="249.62" y2="92.59"/><line class="cls-6" x1="-53.94" y1="254.79" x2="247.66" y2="70.08"/><line class="cls-6" x1="-55.9" y1="232.28" x2="245.71" y2="47.57"/><line class="cls-6" x1="-57.86" y1="209.77" x2="243.75" y2="25.05"/><line class="cls-6" x1="-59.82" y1="187.25" x2="241.79" y2="2.54"/><line class="cls-6" x1="-61.77" y1="164.74" x2="239.83" y2="-19.97"/><line class="cls-6" x1="-63.73" y1="142.23" x2="237.88" y2="-42.48"/></g><circle class="cls-7" cx="47.37" cy="226.34" r="6"/><circle class="cls-7" cx="221.41" cy="226.34" r="6"/><line class="cls-8" x1="47.37" y1="102.65" x2="245.59" y2="110.35"/><line class="cls-8" x1="47.37" y1="139.53" x2="245.59" y2="139.53"/><line class="cls-8" x1="203.15" y1="82.58" x2="203.15" y2="170.29"/><line class="cls-8" x1="150.39" y1="78.59" x2="150.39" y2="170.29"/><line class="cls-8" x1="97.64" y1="74.33" x2="97.64" y2="170.29"/><line class="cls-9" x1="47.37" y1="211.3" x2="47.37" y2="55.14"/><path class="cls-10" d="M47.37,68.91,230.63,81.54a16.07,16.07,0,0,1,15,16v56.65a16.06,16.06,0,0,1-16.07,16.07H47.37"/><line class="cls-10" x1="59.58" y1="215.86" x2="209.21" y2="215.86"/><path class="cls-11" d="M47.37,55.14a14.42,14.42,0,0,0-11-14l-23-5.68A4.8,4.8,0,0,0,7.5,40.1h0a4.79,4.79,0,0,0,3.63,4.65l36.24,9.06"/><rect class="cls-12" x="109.57" y="181.18" width="81.64" height="25.06" rx="3.24"/><circle class="cls-10" cx="47.37" cy="226.34" r="15.04"/><circle class="cls-10" cx="221.41" cy="226.34" r="15.04"/></g></svg>