<?xml version="1.0" encoding="UTF-8"?>
<svg width="271px" height="271px" viewBox="0 0 271 271" version="1.1" xmlns="http://www.w3.org/2000/svg" xmlns:xlink="http://www.w3.org/1999/xlink">
    <!-- Generator: Sketch 63 (92445) - https://sketch.com -->
    <title>email-1</title>
    <desc>Created with Sketch.</desc>
    <g id="&quot;Getting-Started&quot;-Experience" stroke="none" stroke-width="1" fill="none" fill-rule="evenodd">
        <g id="email-1" fill-rule="nonzero">
            <circle id="Oval" fill="#F2F4F5" cx="135.69" cy="135.56" r="135"></circle>
            <path d="M37.39,197.32 L70.82,257.46 C72.9486859,261.283616 76.8694702,263.768528 81.2358862,264.061373 C85.6023022,264.354218 89.8197938,262.41512 92.44,258.91 L230.59,73.91 L37.39,197.32 Z" id="Path" fill="#B4BBC3"></path>
            <path d="M4.6,174.88 L125.1,259.1 C130.63113,262.966321 137.547729,264.292482 144.116655,262.746179 C150.685581,261.199875 156.284336,256.927641 159.51,251 L257.61,70.7 C264.37,58.26 251.43,44.37 238.55,50.25 L6.29,156.27 C2.77698443,157.874332 0.393219639,161.238334 0.0439419064,165.084522 C-0.305335827,168.930711 1.43345217,172.669087 4.6,174.88 Z" id="Path" fill="#DFE3E6"></path>
            <path d="M189,161 C190.580089,160.992745 192.091532,161.645167 193.17,162.8 L212.47,183.3 C213.511724,184.404257 214.071757,185.877328 214.026741,187.394743 C213.981725,188.912157 213.335353,190.349439 212.23,191.39 L200.87,202 C199.765743,203.041724 198.292672,203.601757 196.775257,203.556741 C195.257843,203.511725 193.820561,202.865353 192.78,201.76 L173.47,181.25 C171.308824,178.945543 171.420657,175.326616 173.72,173.16 L185.06,162.48 C186.13751,161.503858 187.546302,160.974667 189,161 M189,151.07999 L189,151.07999 C185.014998,151.075461 181.179343,152.596126 178.28,155.33 L166.92,166 C160.633044,171.926101 160.333235,181.824256 166.25,188.12 L185.55,208.62 C188.512183,211.758494 192.634378,213.541162 196.95,213.550012 C200.93696,213.554893 204.773886,212.030145 207.67,209.29 L219,198.59 C225.281525,192.661457 225.581195,182.767852 219.67,176.47 L200.38,156 C197.416789,152.864206 193.294371,151.085058 188.98,151.07999 L189,151.07999 Z" id="Shape" fill="#B4BBC3"></path>
            <path d="M230,73.78 L52.9,210 L41.72,198.51 L229.2,72.7 C229.496882,72.5438823 229.863255,72.6275681 230.062911,72.8971031 C230.262566,73.1666382 230.235856,73.5414973 230,73.78 Z" id="Path" stroke="#B4BBC3" stroke-width="5.03" fill="#B4BBC3" stroke-linecap="round"></path>
            <path d="M30.24,98.33 C28.6750908,95.3834983 28.7649678,91.8331821 30.4769594,88.9696357 C32.1889511,86.1060894 35.2737525,84.3463102 38.61,84.3299228 C39.0143899,84.3283968 39.4184927,84.3517747 39.82,84.4 L134.73,96.2 C137.885659,96.596458 140.63556,98.5410123 142.06112,101.3841 C143.486679,104.227187 143.399986,107.594045 141.83,110.36 L113.08,161 L78.4,188.32 L30.24,98.33 Z" id="Path" fill="#B4BBC3"></path>
            <path d="M38.61,88.31 C38.8497762,88.2953423 39.0902238,88.2953423 39.33,88.31 L134.23,100.13 C136.060934,100.358038 137.657527,101.484206 138.486685,103.132484 C139.315843,104.780761 139.268326,106.733991 138.36,108.34 L109.99,158.34 L79.68,182.23 L33.77,96.44 C32.8540186,94.7330265 32.8998791,92.6708155 33.8908384,91.0062494 C34.8817978,89.3416834 36.6728088,88.3184058 38.61,88.31 M38.61,80.3099253 C33.8597284,80.318648 29.462489,82.819633 27.0269302,86.8980161 C24.5913715,90.9763992 24.4748526,96.0337763 26.72,100.22 L72.62,186 L77.13,194.41 L84.63,188.51 L114.94,164.64 L116.18,163.64 L116.95,162.28 L145.31,112.28 C147.54307,108.352642 147.666906,103.569426 145.640048,99.5317796 C143.613189,95.4941334 139.703519,92.7356973 135.22,92.18 L40.31,80.41 C39.7459484,80.341523 39.1781899,80.3081254 38.61,80.3099253 Z" id="Shape" fill="#B4BBC3"></path>
            <circle id="Oval" fill="#B4BBC3" cx="146.32" cy="48.86" r="21.76"></circle>
        </g>
    </g>
</svg>