<svg xmlns="http://www.w3.org/2000/svg" xmlns:xlink="http://www.w3.org/1999/xlink" viewBox="0 0 270.02 270.02"><defs><style>.cls-1,.cls-5,.cls-9{fill:none;}.cls-2{fill:#ebf9f9;}.cls-3{fill:#b2e5e4;}.cls-4{clip-path:url(#clip-path);}.cls-5{stroke:#80d3d1;}.cls-5,.cls-9{stroke-linecap:round;stroke-miterlimit:10;stroke-width:8px;}.cls-6{fill:#00a7a4;}.cls-7{fill:#0a3942;}.cls-8{clip-path:url(#clip-path-2);}.cls-9{stroke:#99dcdb;}</style><clipPath id="clip-path"><path class="cls-1" d="M226.49,187.84c40.2-35.16.74-88.13-37.12-60.57-1.16,1-2.25,1.79-4,.91C165,77.43,105.35,109.08,119.84,156l-.13,0c4,7.6,22.51,54.62,28.29,61,16.61,14.69,26.66,4.27,42.58-5.74,18.47-12,30.6-19.82,36-23.33Z"/></clipPath><clipPath id="clip-path-2"><path class="cls-1" d="M-166.09,186.84c40.2-35.16.74-88.13-37.12-60.57-1.16,1-2.25,1.79-4,.91-20.42-50.75-80.05-19.1-65.56,27.84l-.13,0c4,7.6,22.51,54.62,28.29,61,16.61,14.69,26.66,4.27,42.58-5.75,18.47-12,30.6-19.81,36-23.32Z"/></clipPath></defs><title>thank-you-3</title><g id="Layer_16" data-name="Layer 16"><circle class="cls-2" cx="135.01" cy="135.01" r="135"/><path class="cls-3" d="M226.49,187.84c40.2-35.16.74-88.13-37.12-60.57-1.16,1-2.25,1.79-4,.91C165,77.43,105.35,109.08,119.84,156l-.13,0c4,7.6,22.51,54.62,28.29,61,16.61,14.69,26.66,4.27,42.58-5.74,18.47-12,30.6-19.82,36-23.33Z"/><g class="cls-4"><line class="cls-5" x1="267.9" y1="265.03" x2="319.23" y2="61.53"/><line class="cls-5" x1="249.9" y1="265.03" x2="301.23" y2="61.53"/><line class="cls-5" x1="231.9" y1="265.03" x2="283.23" y2="61.53"/><line class="cls-5" x1="213.9" y1="265.03" x2="265.23" y2="61.53"/><line class="cls-5" x1="195.9" y1="265.03" x2="247.23" y2="61.53"/><line class="cls-5" x1="177.9" y1="265.03" x2="229.23" y2="61.53"/><line class="cls-5" x1="159.9" y1="265.03" x2="211.23" y2="61.53"/><line class="cls-5" x1="141.9" y1="265.03" x2="193.23" y2="61.53"/><line class="cls-5" x1="123.9" y1="265.03" x2="175.23" y2="61.53"/><line class="cls-5" x1="105.9" y1="265.03" x2="157.23" y2="61.53"/></g><path class="cls-6" d="M115.16,187.7a40.54,40.54,0,0,1-10.25-1.45,3.84,3.84,0,0,1-.41-.13c-5.76-2.18-21.13-14.86-40.61-31.2-7.27-6.1-13.55-11.36-15.92-13a3.93,3.93,0,0,1-1.22-1.38c-16.53-17.68-16.37-38.34-10.62-51.92,6.23-14.69,19.25-23.82,34-23.82,9.54,0,19.37,3.85,28.61,11.17,7.55-14.34,20-22.55,34.39-22.55,13,0,25.74,7,33.34,18.24,8.74,12.94,9.93,29.37,3.39,46.39a3.93,3.93,0,0,1-.52,1.58c-1.7,2.94-22.7,39.09-22.7,39.09-1.3,2.17-2.49,4.27-3.64,6.3-6.61,11.68-12.86,22.71-27.83,22.71Z"/><path class="cls-7" d="M133.13,57.39c23.55,0,46.6,25.36,32.6,60.16l.14,0c-3.4,5.87-11.05,19-22.7,39.08-8.61,14.38-13.13,27-28,27a37.09,37.09,0,0,1-9.24-1.32c-8.46-3.2-48.23-38.56-55.65-43.76l.11-.09c-27.74-28.65-9.81-69.76,19.74-69.76,8.79,0,18.62,3.64,28.57,12.34h0c2,0,2.67-1.23,3.26-2.74,7.47-14.65,19.37-21,31.15-21m0-8c-14.49,0-27.22,7.47-35.62,20.68-8.87-6.11-18.22-9.3-27.39-9.3h0c-16.36,0-30.8,10.06-37.66,26.26-7.89,18.62-3.64,39.89,11.07,55.88a8,8,0,0,0,2.16,2.26c2.22,1.56,8.74,7,15.64,12.81,24.14,20.25,35.9,29.66,41.77,31.88a6,6,0,0,0,.82.26,44.21,44.21,0,0,0,11.25,1.58c17.3,0,24.42-12.57,31.31-24.74,1.14-2,2.32-4.09,3.57-6.17a.47.47,0,0,1,.05-.1q8.63-14.87,14.31-24.62l8.39-14.46a8,8,0,0,0,1-2.56c6.85-18.13,5.46-35.71-4-49.66a44.43,44.43,0,0,0-36.64-20Z"/><path class="cls-6" d="M78.65,213.59l4.84,4.07a1,1,0,0,0,1.43-.22L92,206.06a2.24,2.24,0,0,0-3.4-2.85l-10,8.93A1,1,0,0,0,78.65,213.59Z"/><path class="cls-6" d="M65.15,196l2.45,5.82a1,1,0,0,0,1.38.45l11.5-6.89a2.24,2.24,0,0,0-1.73-4.09l-13,3.4A1,1,0,0,0,65.15,196Z"/><path class="cls-6" d="M96.94,226.8l6.15,1.42a1,1,0,0,0,1.18-.86L105.4,214a2.24,2.24,0,0,0-4.32-1l-4.83,12.5A1,1,0,0,0,96.94,226.8Z"/><path class="cls-6" d="M214.41,79.36l-4.28-4.65a1,1,0,0,0-1.45,0L200.2,85.13a2.25,2.25,0,0,0,3,3.27l11-7.6A1,1,0,0,0,214.41,79.36Z"/><path class="cls-6" d="M225.58,98.56l-1.7-6.09a1,1,0,0,0-1.31-.62L210.3,97.24a2.24,2.24,0,0,0,1.19,4.27l13.29-1.74A1,1,0,0,0,225.58,98.56Z"/><path class="cls-6" d="M198,64,192,61.76a1,1,0,0,0-1.28.7l-2.81,13.1a2.24,2.24,0,0,0,4.16,1.54l6.37-11.79A1,1,0,0,0,198,64Z"/></g><g id="Layer_15" data-name="Layer 15"><g class="cls-8"><line class="cls-9" x1="73.32" y1="264.03" x2="124.65" y2="60.53"/><line class="cls-9" x1="55.32" y1="264.03" x2="106.65" y2="60.53"/><line class="cls-9" x1="37.32" y1="264.03" x2="88.65" y2="60.53"/><line class="cls-9" x1="19.32" y1="264.03" x2="70.65" y2="60.53"/><line class="cls-9" x1="1.32" y1="264.03" x2="52.65" y2="60.53"/><line class="cls-9" x1="-16.68" y1="264.03" x2="34.65" y2="60.53"/><line class="cls-9" x1="-34.68" y1="264.03" x2="16.65" y2="60.53"/><line class="cls-9" x1="-52.68" y1="264.03" x2="-1.35" y2="60.53"/></g></g></svg>