<svg xmlns="http://www.w3.org/2000/svg" fill="none" viewBox="0 0 24 24"><path fill="currentColor" d="M12.833 12.833a.833.833 0 0 0 0 1.667h5a.833.833 0 1 0 0-1.667h-5ZM12 17c0-.46.373-.833.833-.833h3.334a.833.833 0 0 1 0 1.666h-3.334A.833.833 0 0 1 12 17Z"></path><path fill="currentColor" fill-rule="evenodd" d="M2 4.5A2.5 2.5 0 0 1 4.5 2h8.332a2.5 2.5 0 0 1 2.5 2.502l-.003 4.165h.004A6.667 6.667 0 0 1 22 15.333c0 1.055-.46 1.961-.81 2.65l-.023.048v3.136h-2.672c-.599.373-1.124.59-1.637.708-.55.125-1.046.125-1.494.125h-.03a6.667 6.667 0 0 1-6.457-8.333H4.5a2.5 2.5 0 0 1-2.5-2.5V4.5ZM9.559 12a6.68 6.68 0 0 1 4.104-3.122l.001-2.107-4.997 2.855-5-2.857v4.398c0 .46.373.833.833.833h5.059ZM3.667 4.85l5 2.857 4.998-2.857V4.5a.833.833 0 0 0-.833-.833H4.5a.833.833 0 0 0-.833.833v.35Zm11.666 5.483a5 5 0 0 0 0 10c.477 0 .802-.003 1.154-.083.338-.077.742-.238 1.3-.61l.21-.14H19.5v-1.862l.087-.176.099-.197c.373-.748.647-1.296.647-1.932a5 5 0 0 0-5-5Z" clip-rule="evenodd"></path></svg>