<svg width="48" height="48" viewBox="0 0 48 48" fill="none" xmlns="http://www.w3.org/2000/svg">
<path d="M40.5026 19.2427H8.27063C7.65208 19.2427 7.15063 19.7441 7.15063 20.3627V40.5667C7.15063 41.1852 7.65208 41.6867 8.27063 41.6867H40.5026C41.1212 41.6867 41.6226 41.1852 41.6226 40.5667V20.3627C41.6226 19.7441 41.1212 19.2427 40.5026 19.2427Z" fill="#EDEDEA"/>
<path d="M40.5026 19.2427H8.27063C7.65208 19.2427 7.15063 19.7441 7.15063 20.3627V40.5667C7.15063 41.1852 7.65208 41.6867 8.27063 41.6867H40.5026C41.1212 41.6867 41.6226 41.1852 41.6226 40.5667V20.3627C41.6226 19.7441 41.1212 19.2427 40.5026 19.2427Z" fill="#EDEDEA"/>
<path d="M40.5026 19.2427H8.27063C7.65208 19.2427 7.15063 19.7441 7.15063 20.3627V40.5667C7.15063 41.1852 7.65208 41.6867 8.27063 41.6867H40.5026C41.1212 41.6867 41.6226 41.1852 41.6226 40.5667V20.3627C41.6226 19.7441 41.1212 19.2427 40.5026 19.2427Z" fill="#EDEDEA"/>
<path d="M7.50269 19.2426L7.93069 20.184L24.3867 31.8786L40.6894 20.184L41.2694 19.2426L24.2947 4.23596L7.50269 19.2426Z" fill="#EDEDEA"/>
<path d="M41.6213 19.2427V40.5667C41.6206 40.8633 41.5025 41.1475 41.2929 41.3574C41.0833 41.5672 40.7992 41.6856 40.5026 41.6867H8.26662C7.97002 41.6856 7.6859 41.5672 7.47629 41.3574C7.26669 41.1475 7.14865 40.8633 7.14795 40.5667V19.2427" stroke="#333C44" stroke-width="1.57733" stroke-linecap="round" stroke-linejoin="round"/>
<path d="M41.6226 19.2426L24.2946 4.23596L7.15063 19.2426" stroke="#333C44" stroke-width="1.57733" stroke-linecap="round" stroke-linejoin="round"/>
<path d="M36.416 23.2761V8.99072H12.356V23.2761L24.34 31.3214L36.416 23.2761Z" fill="white"/>
<path d="M36.416 23.2761V8.99072H12.356V23.2761" stroke="#333C44" stroke-width="1.57733" stroke-linecap="round" stroke-linejoin="round"/>
<path d="M7.32007 19.8293L24.3867 31.8787L41.3601 19.944" stroke="#333C44" stroke-width="1.57733" stroke-linecap="round" stroke-linejoin="round"/>
<path d="M18.0281 18.9334C18.0281 15.048 20.3907 12.5547 24.4414 12.5547C28.2441 12.5547 30.4014 15.0334 30.3961 18.24C30.3961 20.4707 29.8001 22.3454 27.7014 22.4227C26.7161 22.4774 26.0721 22.076 25.9547 21.344H25.8961C25.6667 21.9254 24.8081 22.4187 23.7001 22.364C22.1081 22.2907 20.9374 21.0307 20.9374 18.8747C20.9374 16.7854 22.2454 15.668 23.6041 15.488C24.6641 15.3414 25.6041 15.736 25.7574 16.1654H25.8254V15.6187H27.1867V20.2667C27.1867 20.7507 27.4361 21.0827 27.8534 21.0827C28.6347 21.0827 28.9467 20.1747 28.9414 18.1587C28.9414 15.3867 27.0094 13.912 24.4081 13.912C21.2201 13.912 19.5507 15.9667 19.5507 18.9147C19.5507 22.0774 21.2987 23.8254 24.5294 23.8254C25.4497 23.8089 26.3612 23.6427 27.2281 23.3334L27.6441 24.572C27.0334 24.8894 25.7014 25.2067 24.4441 25.2067C20.3521 25.2 18.0334 22.9134 18.0281 18.9334ZM25.7841 18.8107C25.7841 17.484 25.3294 16.888 24.1147 16.888C23.0214 16.888 22.4014 17.704 22.3961 18.816C22.3907 19.928 22.8307 20.964 24.1054 20.964C25.3401 20.9667 25.7987 20.2387 25.7841 18.8134V18.8107Z" fill="#333C44"/>
</svg>
