<svg width="48" height="48" viewBox="0 0 48 48" fill="none" xmlns="http://www.w3.org/2000/svg">
<path d="M38.4866 41.3787C40.128 41.3787 41.4587 40.0481 41.4587 38.4067C41.4587 36.7653 40.128 35.4347 38.4866 35.4347C36.8453 35.4347 35.5146 36.7653 35.5146 38.4067C35.5146 40.0481 36.8453 41.3787 38.4866 41.3787Z" fill="#EDEDEA"/>
<path d="M19.2867 41.3787C20.9281 41.3787 22.2587 40.0481 22.2587 38.4067C22.2587 36.7653 20.9281 35.4347 19.2867 35.4347C17.6453 35.4347 16.3147 36.7653 16.3147 38.4067C16.3147 40.0481 17.6453 41.3787 19.2867 41.3787Z" fill="#EDEDEA"/>
<path d="M13.2466 15.4507H43.1746L41.6812 26.8C41.5661 27.6754 41.1366 28.479 40.4728 29.0611C39.809 29.6432 38.9561 29.9641 38.0732 29.964H14.8386" fill="#EDEDEA"/>
<path d="M3.54126 10.36H8.22659C9.34711 10.3599 10.4286 10.7713 11.2658 11.516C12.103 12.2608 12.6375 13.2871 12.7679 14.4L14.5773 30.956C14.7374 32.1996 15.3451 33.3423 16.2867 34.1703C17.2284 34.9983 18.4394 35.4549 19.6933 35.4547H38.5013" stroke="#333C44" stroke-width="1.57733" stroke-linecap="round" stroke-linejoin="round"/>
<path d="M13.2466 15.4507H43.1746L41.6812 26.8C41.5661 27.6754 41.1366 28.479 40.4728 29.0611C39.809 29.6432 38.9561 29.9641 38.0732 29.964H14.8386" stroke="#333C44" stroke-width="1.57733" stroke-linecap="round" stroke-linejoin="round"/>
<path d="M38.4866 41.3787C40.128 41.3787 41.4587 40.0481 41.4587 38.4067C41.4587 36.7653 40.128 35.4347 38.4866 35.4347C36.8453 35.4347 35.5146 36.7653 35.5146 38.4067C35.5146 40.0481 36.8453 41.3787 38.4866 41.3787Z" stroke="#333C44" stroke-width="1.57733" stroke-linecap="round" stroke-linejoin="round"/>
<path d="M19.2867 41.3787C20.9281 41.3787 22.2587 40.0481 22.2587 38.4067C22.2587 36.7653 20.9281 35.4347 19.2867 35.4347C17.6453 35.4347 16.3147 36.7653 16.3147 38.4067C16.3147 40.0481 17.6453 41.3787 19.2867 41.3787Z" stroke="#333C44" stroke-width="1.57733" stroke-linecap="round" stroke-linejoin="round"/>
<path d="M28.1213 23.8893C32.6449 23.8893 36.312 20.2222 36.312 15.6987C36.312 11.1751 32.6449 7.508 28.1213 7.508C23.5978 7.508 19.9307 11.1751 19.9307 15.6987C19.9307 20.2222 23.5978 23.8893 28.1213 23.8893Z" fill="white"/>
<path d="M28.1213 23.8893C32.6449 23.8893 36.312 20.2222 36.312 15.6987C36.312 11.1751 32.6449 7.508 28.1213 7.508C23.5978 7.508 19.9307 11.1751 19.9307 15.6987C19.9307 20.2222 23.5978 23.8893 28.1213 23.8893Z" stroke="#333C44" stroke-width="1.57733" stroke-linecap="round" stroke-linejoin="round"/>
<path d="M28.5334 10.4147V11.628C29.1785 11.6764 29.8032 11.8755 30.3574 12.2093L29.616 13.652C29.1885 13.3258 28.7676 13.1622 28.3534 13.1613C28.1337 13.1511 27.9164 13.2114 27.7334 13.3333C27.6632 13.3749 27.6045 13.4332 27.5624 13.503C27.5202 13.5728 27.4961 13.6519 27.492 13.7333C27.4954 13.8067 27.5141 13.8785 27.547 13.9442C27.5798 14.0099 27.626 14.068 27.6827 14.1147C27.8277 14.2454 27.9985 14.3444 28.184 14.4053L28.7747 14.6053C29.4369 14.8329 29.9147 15.112 30.208 15.4427C30.5121 15.8011 30.6697 16.2611 30.6494 16.7307C30.6543 17.0186 30.617 17.3056 30.5387 17.5827C30.4683 17.8283 30.3455 18.0557 30.1787 18.2493C29.9923 18.4578 29.7702 18.6312 29.5227 18.7613C29.207 18.9261 28.8761 19.0601 28.5347 19.1613V20.4H27.612V19.2C27.3878 19.1984 27.1644 19.1734 26.9454 19.1253C26.715 19.0771 26.4882 19.0129 26.2667 18.9333C26.0467 18.854 25.8335 18.7568 25.6294 18.6427C25.4541 18.5479 25.2911 18.4319 25.144 18.2973L25.956 16.784C26.5836 17.3387 27.1947 17.616 27.7894 17.616C28.0211 17.6209 28.2481 17.5503 28.436 17.4147C28.522 17.3578 28.5923 17.2803 28.6405 17.1892C28.6887 17.0981 28.7133 16.9964 28.712 16.8933C28.712 16.6 28.4947 16.3831 28.06 16.2427L27.4894 16.0613C27.1885 15.9715 26.8966 15.8542 26.6174 15.7107C26.3962 15.5991 26.196 15.4503 26.0254 15.2707C25.8745 15.1068 25.7584 14.914 25.684 14.704C25.6073 14.4696 25.5703 14.224 25.5747 13.9773C25.5736 13.6952 25.6159 13.4146 25.7 13.1453C25.7798 12.8842 25.9088 12.6407 26.08 12.428C26.2567 12.2114 26.473 12.0304 26.7174 11.8947C26.9956 11.7431 27.3028 11.6522 27.6187 11.628V10.4147H28.5334Z" fill="#333B43"/>
<path d="M28.5334 10.4147V11.628C29.1785 11.6764 29.8032 11.8755 30.3574 12.2093L29.616 13.652C29.1885 13.3258 28.7676 13.1622 28.3534 13.1613C28.1337 13.1511 27.9164 13.2114 27.7334 13.3333C27.6632 13.3749 27.6045 13.4332 27.5624 13.503C27.5202 13.5728 27.4961 13.6519 27.492 13.7333C27.4954 13.8067 27.5141 13.8785 27.547 13.9442C27.5798 14.0099 27.626 14.068 27.6827 14.1147C27.8277 14.2454 27.9985 14.3444 28.184 14.4053L28.7747 14.6053C29.4369 14.8329 29.9147 15.112 30.208 15.4427C30.5121 15.8011 30.6697 16.2611 30.6494 16.7307C30.6543 17.0186 30.617 17.3056 30.5387 17.5827C30.4683 17.8283 30.3455 18.0557 30.1787 18.2493C29.9923 18.4578 29.7702 18.6312 29.5227 18.7613C29.207 18.9261 28.8761 19.0601 28.5347 19.1613V20.4H27.612V19.2C27.3878 19.1984 27.1644 19.1734 26.9454 19.1253C26.715 19.0771 26.4882 19.0129 26.2667 18.9333C26.0467 18.854 25.8335 18.7568 25.6294 18.6427C25.4541 18.5479 25.2911 18.4319 25.144 18.2973L25.956 16.784C26.5836 17.3387 27.1947 17.616 27.7894 17.616C28.0211 17.6209 28.2481 17.5503 28.436 17.4147C28.522 17.3578 28.5923 17.2803 28.6405 17.1892C28.6887 17.0981 28.7133 16.9964 28.712 16.8933C28.712 16.6 28.4947 16.3831 28.06 16.2427L27.4894 16.0613C27.1885 15.9715 26.8966 15.8542 26.6174 15.7107C26.3962 15.5991 26.196 15.4503 26.0254 15.2707C25.8745 15.1068 25.7584 14.914 25.684 14.704C25.6073 14.4696 25.5703 14.224 25.5747 13.9773C25.5736 13.6952 25.6159 13.4146 25.7 13.1453C25.7798 12.8842 25.9088 12.6407 26.08 12.428C26.2567 12.2114 26.473 12.0304 26.7174 11.8947C26.9956 11.7431 27.3028 11.6522 27.6187 11.628V10.4147H28.5334Z" fill="#333B43"/>
</svg>
