<svg fill="none" xmlns="http://www.w3.org/2000/svg" viewBox="0 0 282 104"><g clip-path="url(#CartImage_svg__a)"><path fill="#F2F4F5" d="M0 0h282v104H0z"></path><path d="M6.177 97.127a3.535 3.535 0 0 1 3.64-3.487 3.6 3.6 0 0 1 3.505 3.528c.028 1.877-1.712 3.619-3.6 3.6a3.683 3.683 0 0 1-3.545-3.64zm43.886.063c-.027 1.92-1.723 3.612-3.615 3.576-1.89-.036-3.518-1.697-3.53-3.543a3.583 3.583 0 0 1 3.686-3.583 3.54 3.54 0 0 1 3.459 3.55zm36.737-.037a3.656 3.656 0 0 1-3.548 3.6c-1.773.022-3.544-1.716-3.58-3.51-.039-1.942 1.68-3.637 3.664-3.615a3.481 3.481 0 0 1 3.464 3.525zm-25.44-.004a3.477 3.477 0 0 1 3.578-3.51c1.874.027 3.535 1.68 3.533 3.507 0 1.896-1.68 3.583-3.588 3.6-1.908.017-3.523-1.586-3.523-3.597zm-36.742.014a3.502 3.502 0 1 1 7.004.041 3.502 3.502 0 0 1-7.004-.04zm228.96-11.043a3.55 3.55 0 0 1-3.401-3.6c.06-1.932 1.803-3.6 3.67-3.518 1.92.086 3.588 1.862 3.473 3.717a3.6 3.6 0 0 1-3.742 3.401zm.136-35.777a3.575 3.575 0 0 1-3.537-3.6c.019-1.92 1.745-3.6 3.641-3.538 1.848.049 3.504 1.736 3.504 3.572a3.671 3.671 0 0 1-3.608 3.566zm-36.806-.003a3.533 3.533 0 0 1-3.468-3.657 3.6 3.6 0 0 1 3.549-3.482c1.882-.015 3.617 1.735 3.581 3.612a3.688 3.688 0 0 1-3.662 3.528zm-3.468-39.294a3.539 3.539 0 0 1 3.499-3.63 3.685 3.685 0 0 1 3.631 3.562c0 1.839-1.642 3.533-3.494 3.581a3.599 3.599 0 0 1-3.636-3.513zM250.177 11a3.575 3.575 0 0 1 3.559-3.583 3.674 3.674 0 0 1 3.586 3.6c-.015 1.838-1.68 3.516-3.526 3.55-1.903.033-3.61-1.647-3.619-3.567zm3.552 50.16a3.566 3.566 0 0 1 3.321 2.184c.182.433.277.898.279 1.368 0 1.872-1.706 3.552-3.638 3.56-1.872 0-3.545-1.743-3.507-3.673a3.507 3.507 0 0 1 3.545-3.44zm-14.849-14.4a3.511 3.511 0 0 1-1.006 2.538 3.495 3.495 0 0 1-2.522 1.045c-1.881-.014-3.564-1.644-3.585-3.475-.024-1.92 1.651-3.655 3.53-3.667a3.56 3.56 0 0 1 3.583 3.559zm0-35.803a3.555 3.555 0 0 1-3.54 3.6c-1.87.019-3.555-1.695-3.571-3.627-.015-1.87 1.732-3.547 3.66-3.513a3.499 3.499 0 0 1 3.451 3.54zm29.736-.041a3.486 3.486 0 0 1 1.06-2.51 3.496 3.496 0 0 1 2.54-.99c1.972.06 3.444 1.657 3.405 3.697a3.513 3.513 0 0 1-1.067 2.505 3.505 3.505 0 0 1-5.941-2.702h.003zm-14.945 21.468a3.494 3.494 0 0 1-3.494-3.487c0-2.014 1.615-3.562 3.701-3.519a3.502 3.502 0 0 1 3.399 3.606 3.51 3.51 0 0 1-3.606 3.4zm14.945 14.309a3.506 3.506 0 1 1 3.451 3.65c-1.975-.033-3.475-1.617-3.451-3.65zm-51.66 14.467a3.571 3.571 0 0 1 3.612 3.53c.033 1.83-1.74 3.579-3.627 3.579-1.821.002-3.477-1.659-3.501-3.538a3.473 3.473 0 0 1 3.516-3.571zm.055 24.96a3.491 3.491 0 0 1-3.571-3.403 3.663 3.663 0 0 1 3.559-3.722c1.776-.015 3.543 1.727 3.569 3.52.029 1.899-1.634 3.584-3.557 3.605zm21.869-3.511a3.486 3.486 0 0 1-1.04 2.515 3.476 3.476 0 0 1-2.534.996c-1.877-.024-3.537-1.668-3.537-3.502 0-1.9 1.68-3.583 3.585-3.614 1.906-.031 3.526 1.596 3.526 3.605zm-3.626-50.227a3.499 3.499 0 0 1-2.508-1.061 3.503 3.503 0 0 1 2.695-5.943 3.437 3.437 0 0 1 2.466 1.042 3.431 3.431 0 0 1 .973 2.493c0 2.007-1.574 3.495-3.626 3.469zm.091 28.778a3.468 3.468 0 0 1 3.535 3.451 3.556 3.556 0 0 1-3.518 3.634c-1.884.04-3.6-1.695-3.6-3.6.024-1.858 1.689-3.485 3.583-3.485zm40.276 3.621a3.505 3.505 0 0 1-4.948 3.199 3.51 3.51 0 0 1-1.851-2 3.517 3.517 0 0 1-.204-1.376 3.44 3.44 0 0 1 3.53-3.444c2.012 0 3.5 1.57 3.473 3.621zM216.96 32.382a3.501 3.501 0 1 1 .046-7.003 3.501 3.501 0 0 1-.046 7.003zm51.659 50.098a3.493 3.493 0 0 1 1.065-2.505 3.491 3.491 0 0 1 2.536-.987 3.5 3.5 0 0 1 3.198 2.312c.159.44.228.907.204 1.374a3.456 3.456 0 0 1-1.047 2.464 3.459 3.459 0 0 1-2.491.982c-1.992-.014-3.494-1.594-3.465-3.64zM275.621 29c-.041 2.011-1.603 3.446-3.681 3.382-1.947-.063-3.36-1.606-3.322-3.622.038-2.016 1.603-3.447 3.682-3.382 1.946.063 3.362 1.606 3.321 3.622z" opacity="0.25" fill="#B4BBC3"></path><path d="M157.901 72.275a3.467 3.467 0 1 0 0-6.934 3.467 3.467 0 0 0 0 6.934zm-22.399 0a3.468 3.468 0 1 0-.001-6.935 3.468 3.468 0 0 0 .001 6.935zm-7.048-30.249h34.916l-1.742 13.24a4.246 4.246 0 0 1-4.209 3.692h-27.108" fill="#fff"></path><path d="M117.132 36.087h5.466a5.336 5.336 0 0 1 5.298 4.713l2.111 19.315a6.016 6.016 0 0 0 5.969 5.249h21.943" stroke="#333C44" stroke-width="2.208" stroke-linecap="round" stroke-linejoin="round"></path><path d="M128.454 42.026h34.916l-1.742 13.24a4.246 4.246 0 0 1-4.209 3.692h-27.108m27.59 13.317a3.467 3.467 0 1 0 0-6.934 3.467 3.467 0 0 0 0 6.934zm-22.399 0a3.468 3.468 0 1 0-.001-6.935 3.468 3.468 0 0 0 .001 6.935z" stroke="#333C44" stroke-width="2.208" stroke-linecap="round" stroke-linejoin="round"></path><path d="M145.809 51.87a9.554 9.554 0 0 0 9.555-9.555 9.556 9.556 0 0 0-19.111 0 9.556 9.556 0 0 0 9.556 9.556z" fill="#fff"></path><path d="M145.809 51.87a9.554 9.554 0 0 0 9.555-9.555 9.556 9.556 0 0 0-19.111 0 9.556 9.556 0 0 0 9.556 9.556z" fill="#9EEFC6" stroke="#333C44" stroke-width="2.208" stroke-linecap="round" stroke-linejoin="round"></path><path d="M146.289 36.15v1.416a4.82 4.82 0 0 1 2.128.678l-.865 1.683c-.499-.38-.99-.571-1.473-.572a1.202 1.202 0 0 0-.723.2.575.575 0 0 0-.282.467.619.619 0 0 0 .223.445c.169.153.368.268.585.34l.689.232c.772.266 1.33.592 1.672.977.355.419.539.955.515 1.503.006.336-.038.67-.129.994a2.068 2.068 0 0 1-.42.778 2.741 2.741 0 0 1-.766.597 6.456 6.456 0 0 1-1.152.467V47.8h-1.077v-1.4a3.747 3.747 0 0 1-.777-.087 5.917 5.917 0 0 1-.792-.224 4.97 4.97 0 0 1-.744-.34 2.836 2.836 0 0 1-.566-.402l.947-1.766c.732.647 1.445.97 2.139.97.271.007.535-.076.755-.234a.717.717 0 0 0 .322-.608c0-.342-.254-.595-.761-.76l-.666-.21a5.955 5.955 0 0 1-1.017-.41 2.516 2.516 0 0 1-.691-.513 1.928 1.928 0 0 1-.398-.661 2.569 2.569 0 0 1-.128-.848c-.001-.33.048-.657.147-.97a2.492 2.492 0 0 1 1.187-1.46 2.613 2.613 0 0 1 1.051-.311V36.15h1.067z" fill="#333B43"></path><path d="M146.289 36.15v1.416a4.82 4.82 0 0 1 2.128.678l-.865 1.683c-.499-.38-.99-.571-1.473-.572a1.202 1.202 0 0 0-.723.2.575.575 0 0 0-.282.467.619.619 0 0 0 .223.445c.169.153.368.268.585.34l.689.232c.772.266 1.33.592 1.672.977.355.419.539.955.515 1.503.006.336-.038.67-.129.994a2.068 2.068 0 0 1-.42.778 2.741 2.741 0 0 1-.766.597 6.456 6.456 0 0 1-1.152.467V47.8h-1.077v-1.4a3.747 3.747 0 0 1-.777-.087 5.917 5.917 0 0 1-.792-.224 4.97 4.97 0 0 1-.744-.34 2.836 2.836 0 0 1-.566-.402l.947-1.766c.732.647 1.445.97 2.139.97.271.007.535-.076.755-.234a.717.717 0 0 0 .322-.608c0-.342-.254-.595-.761-.76l-.666-.21a5.955 5.955 0 0 1-1.017-.41 2.516 2.516 0 0 1-.691-.513 1.928 1.928 0 0 1-.398-.661 2.569 2.569 0 0 1-.128-.848c-.001-.33.048-.657.147-.97a2.492 2.492 0 0 1 1.187-1.46 2.613 2.613 0 0 1 1.051-.311V36.15h1.067z" fill="#333B43"></path></g><defs><clipPath id="CartImage_svg__a"><path fill="#fff" d="M0 0h282v104H0z"></path></clipPath></defs></svg>