<svg width="48" height="48" viewBox="0 0 48 48" fill="none" xmlns="http://www.w3.org/2000/svg">
<path d="M29.3893 33.6001V40.5761H19.5813V37.5588V33.6001" fill="white"/>
<path d="M33.4252 37.1387H29.5879V40.5867H19.5172V37.1387H15.6452L11.6399 44.0227H37.4306L33.4252 37.1387Z" fill="#EDEDEA"/>
<path d="M45.4999 3.97729H3.46924V33.488H45.4999V3.97729Z" fill="#EDEDEA"/>
<path d="M45.4999 3.97729H3.46924V33.488H45.4999V3.97729Z" stroke="#333C44" stroke-width="1.57733" stroke-linecap="round" stroke-linejoin="round"/>
<path d="M29.3893 33.6001V40.5761H19.5813V37.5588V33.6001" stroke="#333C44" stroke-width="1.57733" stroke-linecap="round" stroke-linejoin="round"/>
<path d="M29.4252 37.1387H33.4252L37.4306 44.0227H11.6399L15.6452 37.1387H19.5666" stroke="#333C44" stroke-width="1.57733" stroke-linecap="round" stroke-linejoin="round"/>
<path d="M32.12 29.1267C33.243 29.1267 34.1533 28.2164 34.1533 27.0934C34.1533 25.9704 33.243 25.0601 32.12 25.0601C30.997 25.0601 30.0867 25.9704 30.0867 27.0934C30.0867 28.2164 30.997 29.1267 32.12 29.1267Z" fill="white"/>
<path d="M18.9801 29.1267C20.1031 29.1267 21.0134 28.2164 21.0134 27.0934C21.0134 25.9704 20.1031 25.0601 18.9801 25.0601C17.8571 25.0601 16.9468 25.9704 16.9468 27.0934C16.9468 28.2164 17.8571 29.1267 18.9801 29.1267Z" fill="white"/>
<path d="M14.8467 11.384H35.3333L34.312 19.148C34.2328 19.747 33.9387 20.2967 33.4845 20.695C33.0303 21.0933 32.4468 21.3131 31.8427 21.3134H15.936" fill="white"/>
<path d="M8.2041 7.89869H11.4041C12.1726 7.89715 12.9147 8.17842 13.4891 8.6889C14.0635 9.19938 14.43 9.90337 14.5188 10.6667L15.7574 22C15.8697 22.849 16.2868 23.6281 16.9309 24.1923C17.5751 24.7565 18.4024 25.0673 19.2588 25.0667H32.1334" stroke="#333C44" stroke-width="1.57733" stroke-linecap="round" stroke-linejoin="round"/>
<path d="M14.8467 11.384H35.3333L34.312 19.148C34.2328 19.747 33.9387 20.2967 33.4845 20.695C33.0303 21.0933 32.4468 21.3131 31.8427 21.3134H15.936" stroke="#333C44" stroke-width="1.57733" stroke-linecap="round" stroke-linejoin="round"/>
<path d="M32.12 29.1267C33.243 29.1267 34.1533 28.2164 34.1533 27.0934C34.1533 25.9704 33.243 25.0601 32.12 25.0601C30.997 25.0601 30.0867 25.9704 30.0867 27.0934C30.0867 28.2164 30.997 29.1267 32.12 29.1267Z" stroke="#333C44" stroke-width="1.57733" stroke-linecap="round" stroke-linejoin="round"/>
<path d="M18.9801 29.1267C20.1031 29.1267 21.0134 28.2164 21.0134 27.0934C21.0134 25.9704 20.1031 25.0601 18.9801 25.0601C17.8571 25.0601 16.9468 25.9704 16.9468 27.0934C16.9468 28.2164 17.8571 29.1267 18.9801 29.1267Z" stroke="#333C44" stroke-width="1.57733" stroke-linecap="round" stroke-linejoin="round"/>
</svg>
