<svg fill="none" xmlns="http://www.w3.org/2000/svg" viewBox="0 0 282 104"><g clip-path="url(#MessageImage_svg__a)"><path fill="#F2F4F5" d="M0 0h282v104H0z"></path><g opacity="0.25" clip-path="url(#MessageImage_svg__b)" fill="#B4BBC3"><path d="M119.364 42c-.453-.381-.932-.737-1.355-1.15-1.099-1.075-1.327-2.45-.695-3.951.508-1.21 1.74-1.888 3.134-2.007 1.919-.164 3.326 1.35 3.623 2.704a3.69 3.69 0 0 1-1.913 4.071 2.017 2.017 0 0 0-.385.333h-2.409zm-17.146 0a2.746 2.746 0 0 0-.449-.364c-1.251-.656-2.091-2.16-1.96-3.555.132-1.396 1.155-2.701 2.472-3.053 2.308-.615 4.411.654 4.632 2.89.157 1.592-.4 2.82-1.842 3.702a3.631 3.631 0 0 0-.444.38h-2.409zM83.459 2.466c2.057 0 3.6 1.558 3.598 3.632 0 1.956-1.678 3.593-3.684 3.595-1.82 0-3.597-1.782-3.535-3.63.073-2.104 1.787-3.627 3.62-3.597zm78.557 4.044c0 1.95-1.682 3.6-3.676 3.607-1.784 0-3.551-1.758-3.551-3.542a3.71 3.71 0 0 1 3.684-3.684c1.939 0 3.543 1.64 3.543 3.619zM87.29 36.048c-2.022.108-3.6-1.558-3.617-3.517-.017-1.772 1.452-3.662 3.647-3.585 2.021.073 3.543 1.56 3.568 3.585.02 1.892-1.706 3.724-3.599 3.517zm56.731-29.965c.256 1.832-1.473 3.56-3.526 3.604-1.883.04-3.564-1.708-3.559-3.648 0-2.043 1.58-3.573 3.662-3.573 1.936 0 3.423 1.578 3.423 3.617zm-48.427 8.569c1.952-.251 3.611 1.941 3.529 3.602-.097 1.954-1.597 3.436-3.6 3.498-1.925.061-3.658-1.682-3.624-3.648.03-1.725 1.454-3.607 3.695-3.452zM70.62 21.41c-.09-2.126 1.575-3.583 3.542-3.597a3.578 3.578 0 0 1 3.567 3.684c-.082 1.974-1.583 3.499-3.588 3.499s-3.521-1.52-3.521-3.586zm82.753.087c.248 1.937-1.939 3.605-3.612 3.522-1.961-.1-3.433-1.589-3.487-3.608-.054-2.02 1.7-3.628 3.58-3.598 1.994.031 3.651 1.523 3.519 3.684zM103.833.34c1.893-.272 3.614 1.842 3.517 3.493-.124 2.064-1.559 3.542-3.646 3.608-1.57.05-3.645-1.6-3.502-3.66.145-2.09 1.439-3.441 3.631-3.441zm19.924 3.574c.253 1.804-1.788 3.542-3.459 3.534-1.895 0-3.717-1.593-3.645-3.676.077-2.168 1.457-3.408 3.917-3.442 1.7-.023 3.397 1.742 3.187 3.584zM69.06 6.537c.253 1.792-1.47 3.542-3.542 3.575-1.85.025-3.542-1.72-3.542-3.604a3.632 3.632 0 0 1 3.55-3.617c1.758-.034 3.818 1.565 3.535 3.646zm59.421 8.115c2.154-.097 3.575 1.644 3.599 3.466.029 2.039-1.707 3.712-3.695 3.636-1.958-.075-3.496-1.586-3.494-3.585 0-2.03 1.523-3.517 3.59-3.517zm11.714 17.889c0 2.126-1.388 3.433-3.527 3.532-1.842.085-3.587-1.638-3.571-3.584.015-1.8 1.567-3.625 3.698-3.542 2.036.079 3.4 1.45 3.4 3.595zm-31.742-9.964c-.21-1.882 1.818-3.585 3.577-3.566 1.633.015 3.58 1.618 3.559 3.633-.02 1.743-1.622 3.6-3.625 3.57-2.041-.029-3.75-1.898-3.511-3.637z"></path></g><g opacity="0.25" clip-path="url(#MessageImage_svg__c)" fill="#B4BBC3"><path d="M283.773 14c.139.135.29.257.451.366 1.36.773 2.029 1.983 1.932 3.497-.092 1.445-.899 2.497-2.267 3.068-2.025.85-3.888-.445-4.48-1.627-.896-1.788-.387-3.642 1.275-4.76.245-.16.456-.361.68-.544h2.409zm-17.146 0c.469.398.964.77 1.403 1.199 1.01.992 1.165 2.192.782 3.498-.371 1.264-1.262 2.014-2.488 2.363-1.878.534-3.295-.508-3.951-1.568-.895-1.445-.745-3.068.398-4.36.301-.341.752-.547 1.127-.825.114-.095.221-.197.32-.307h2.409zM221 65.296c.381-.454.737-.933 1.151-1.355 1.055-1.08 2.448-1.338 3.888-.719 1.024.442 2.016 1.681 2.094 3.166.116 2.243-1.924 3.88-3.785 3.722-1.364-.116-2.37-.802-3.014-2.02a2.217 2.217 0 0 0-.334-.386v-2.408zm40.101 1.198c0 2.05-1.535 3.622-3.542 3.618-2.089 0-3.661-1.627-3.648-3.554.014-2.17 1.502-3.564 3.618-3.656 1.944-.085 3.572 1.608 3.572 3.592zm-15.642 12.972c2.057 0 3.601 1.559 3.598 3.632 0 1.956-1.678 3.593-3.684 3.594-1.82 0-3.597-1.78-3.534-3.63.072-2.103 1.786-3.626 3.62-3.596zm32.08-12.837c.141 1.887-1.786 3.528-3.571 3.499-1.786-.03-3.618-1.573-3.531-3.699.079-1.967 1.585-3.558 3.555-3.531 2.158.027 3.717 1.794 3.547 3.731zm-28.31-39.593c-2.068.097-3.534-1.714-3.555-3.517-.024-1.942 1.559-3.603 3.704-3.604 1.75 0 3.517 1.606 3.516 3.57 0 1.827-1.57 3.693-3.665 3.551zm20.09 25.166c.118 1.984-1.65 3.618-3.634 3.574-1.814-.041-3.434-1.455-3.495-3.684-.051-1.825 1.843-3.58 3.556-3.543 1.856.039 3.715 1.6 3.573 3.653zm16.438-.067c.088 2.23-1.655 3.641-3.632 3.641-1.778 0-3.542-1.594-3.472-3.613.076-2.063 1.552-3.543 3.629-3.604 1.647-.05 3.744 1.685 3.475 3.576zm-40.243-5.685c1.873-.344 3.633 1.894 3.568 3.475-.087 2.063-1.573 3.606-3.648 3.61a3.622 3.622 0 0 1-3.578-3.632c0-1.91 1.65-3.716 3.658-3.454zm11.981-5.102c-2.154.112-3.585-1.751-3.596-3.479-.015-1.956 1.708-3.712 3.721-3.626 1.951.085 3.484 1.597 3.481 3.602-.003 2.005-1.533 3.503-3.606 3.503zm.099 50.304c1.952-.251 3.611 1.941 3.529 3.602-.097 1.954-1.597 3.436-3.601 3.498-1.924.061-3.657-1.682-3.623-3.648.03-1.725 1.454-3.607 3.695-3.452zm-24.975-57.13c-.255-1.968 1.947-3.619 3.592-3.542 1.97.093 3.45 1.578 3.507 3.588.057 2.009-1.658 3.63-3.557 3.619-1.955-.012-3.664-1.472-3.542-3.665zm.001 63.888c-.091-2.126 1.575-3.583 3.542-3.597a3.582 3.582 0 0 1 3.567 3.684c-.082 1.974-1.583 3.499-3.588 3.499s-3.521-1.52-3.521-3.586zm33.213-21.07c1.893-.272 3.614 1.842 3.517 3.493-.124 2.064-1.559 3.542-3.646 3.608-1.57.05-3.645-1.6-3.502-3.66.145-2.09 1.439-3.441 3.631-3.441zm19.924 3.574c.253 1.803-1.788 3.542-3.459 3.534-1.895 0-3.717-1.593-3.645-3.676.077-2.168 1.457-3.408 3.917-3.442 1.7-.023 3.397 1.742 3.187 3.584zm-54.696 2.623c.252 1.792-1.471 3.542-3.543 3.575-1.849.025-3.542-1.72-3.542-3.604a3.63 3.63 0 0 1 3.551-3.618c1.757-.033 3.817 1.567 3.534 3.647zm13.603-17.048c0 1.924-1.682 3.624-3.599 3.624-1.889 0-3.646-1.676-3.619-3.527.028-1.998 1.397-3.634 3.592-3.657 2.166-.021 3.569 1.685 3.626 3.56zm32.875-33.029c.194 1.835-1.801 3.528-3.543 3.53-1.637 0-3.636-1.592-3.592-3.67.035-1.653 1.559-3.535 3.589-3.535 2.005.002 3.796 1.843 3.546 3.675zm-7.086 66.117c-.21-1.882 1.818-3.585 3.577-3.566 1.633.015 3.58 1.618 3.559 3.633-.02 1.743-1.622 3.599-3.625 3.571-2.041-.03-3.75-1.899-3.511-3.638zm-39.392-50.078c0 2.067-1.49 3.61-3.486 3.61a3.602 3.602 0 0 1-3.335-2.243 3.584 3.584 0 0 1-.264-1.387c0-1.994 1.568-3.455 3.702-3.455 2.035 0 3.383 1.383 3.383 3.475z"></path></g><path d="M155.426 29.682h-32.655v45.003h32.655V29.682z" fill="#F6F8F9" stroke="#333C44" stroke-width="1.488" stroke-miterlimit="10"></path><path d="M155.426 29.682h-32.655v45.003h32.655V29.682z" fill="#F6F8F9" stroke="#333C44" stroke-width="1.488" stroke-miterlimit="10"></path><path d="M155.426 29.682h-32.655v45.003h32.655V29.682z" fill="#F6F8F9" stroke="#333C44" stroke-width="2.208" stroke-linecap="round" stroke-linejoin="round"></path><path d="M155.426 29.682h-32.655v45.003h32.655V29.682z" stroke="#333C44" stroke-width="2.208" stroke-linecap="round" stroke-linejoin="round"></path><path d="M162.186 45.854h-32.704c-.627 0-1.135.508-1.135 1.136v20.5c0 .627.508 1.136 1.135 1.136h32.704c.627 0 1.136-.509 1.136-1.136v-20.5c0-.628-.509-1.136-1.136-1.136z" fill="#fff"></path><path d="M162.186 45.854h-32.704c-.627 0-1.135.508-1.135 1.136v20.5c0 .627.508 1.136 1.135 1.136h32.704c.627 0 1.136-.509 1.136-1.136v-20.5c0-.628-.509-1.136-1.136-1.136z" fill="#fff"></path><path d="M162.186 45.854h-32.704c-.627 0-1.135.508-1.135 1.136v20.5c0 .627.508 1.136 1.135 1.136h32.704c.627 0 1.136-.509 1.136-1.136v-20.5c0-.628-.509-1.136-1.136-1.136z" stroke="#333C44" stroke-width="2.208" stroke-linecap="round" stroke-linejoin="round"></path><path d="m128.517 46.81 17.318 11.865 17.318-11.866" stroke="#333C44" stroke-width="2.208" stroke-linecap="round" stroke-linejoin="round"></path><path d="M134.947 34.093h-6.165v6.782h6.165v-6.782z" fill="#fff"></path><path d="M134.947 34.093h-6.165v6.782h6.165v-6.782z" fill="#FFE388" stroke="#333C44" stroke-width="2.208" stroke-linecap="round" stroke-linejoin="round"></path><path d="M140.129 40.142h9.57m-9.57-5.166h9.57" stroke="#333C44" stroke-width="2.208" stroke-linecap="round" stroke-linejoin="round"></path></g><defs><clipPath id="MessageImage_svg__a"><path fill="#fff" d="M0 0h282v104H0z"></path></clipPath><clipPath id="MessageImage_svg__b"><path fill="#fff" transform="translate(59 -63)" d="M0 0h105.992v105H0z"></path></clipPath><clipPath id="MessageImage_svg__c"><path fill="#fff" transform="translate(221 14)" d="M0 0h105.992v105H0z"></path></clipPath></defs></svg>