<svg width="48" height="48" viewBox="0 0 48 48" fill="none" xmlns="http://www.w3.org/2000/svg">
<path d="M38.7613 35.2507H36.9586V42.476L24.5973 35.2507H9.70794C8.13795 35.2507 6.63216 34.6275 5.52139 33.518C4.41062 32.4084 3.7857 30.9034 3.78394 29.3334V9.27203C3.78394 8.49414 3.93717 7.72388 4.2349 7.00522C4.53262 6.28656 4.969 5.63359 5.51912 5.0836C6.06923 4.53361 6.7223 4.09738 7.44102 3.79982C8.15975 3.50226 8.93005 3.34919 9.70794 3.34937H38.7613C40.3321 3.34937 41.8385 3.97336 42.9492 5.08407C44.0599 6.19479 44.6839 7.70124 44.6839 9.27203V29.3334C44.6822 30.9031 44.0574 32.408 42.947 33.5175C41.8365 34.627 40.331 35.2503 38.7613 35.2507Z" fill="#EDEDEA"/>
<path d="M38.7613 35.2507H36.9586V42.476L24.5973 35.2507H9.70794C8.13795 35.2507 6.63216 34.6275 5.52139 33.518C4.41062 32.4084 3.7857 30.9034 3.78394 29.3334V9.27203C3.78394 8.49414 3.93717 7.72388 4.2349 7.00522C4.53262 6.28656 4.969 5.63359 5.51912 5.0836C6.06923 4.53361 6.7223 4.09738 7.44102 3.79982C8.15975 3.50226 8.93005 3.34919 9.70794 3.34937H38.7613C40.3321 3.34937 41.8385 3.97336 42.9492 5.08407C44.0599 6.19479 44.6839 7.70124 44.6839 9.27203V29.3334C44.6822 30.9031 44.0574 32.408 42.947 33.5175C41.8365 34.627 40.331 35.2503 38.7613 35.2507V35.2507Z" stroke="#333C44" stroke-width="1.57733" stroke-linecap="round" stroke-linejoin="round"/>
<path d="M11.3452 26.4094C11.3452 26.0719 11.4453 25.7419 11.6328 25.4613C11.8204 25.1806 12.0869 24.9618 12.3988 24.8327C12.7106 24.7035 13.0538 24.6697 13.3848 24.7356C13.7159 24.8014 14.02 24.964 14.2587 25.2026C14.4974 25.4413 14.6599 25.7454 14.7258 26.0765C14.7916 26.4075 14.7578 26.7507 14.6286 27.0625C14.4995 27.3744 14.2807 27.6409 14.0001 27.8285C13.7194 28.016 13.3894 28.1161 13.0519 28.1161C12.5996 28.115 12.1661 27.9349 11.8463 27.6151C11.5264 27.2952 11.3463 26.8617 11.3452 26.4094ZM14.2372 22.9334H11.8745L11.6519 10.4788H14.4599L14.2372 22.9334Z" fill="#333C44"/>
<path d="M21.072 12.9719H37.9907" stroke="#333C44" stroke-width="1.57733" stroke-linecap="round" stroke-linejoin="round"/>
<path d="M21.072 18.8386H37.9907" stroke="#333C44" stroke-width="1.57733" stroke-linecap="round" stroke-linejoin="round"/>
<path d="M21.072 24.7053H37.9907" stroke="#333C44" stroke-width="1.57733" stroke-linecap="round" stroke-linejoin="round"/>
</svg>
