<svg xmlns="http://www.w3.org/2000/svg" fill="none" viewBox="0 0 24 24" height="100%" width="100%" alt="Shopify"><path fill="#95BF47" d="M18.618 5.853a.188.188 0 0 0-.177-.162c-.08 0-1.499-.032-1.499-.032S15.75 4.5 15.637 4.386c-.113-.113-.355-.08-.435-.048 0 0-.226.064-.597.177a4.712 4.712 0 0 0-.29-.709c-.418-.806-1.047-1.24-1.788-1.24-.049 0-.097 0-.161.015-.017-.032-.049-.048-.065-.08-.322-.355-.741-.516-1.24-.5-.968.032-1.935.725-2.708 1.966-.548.87-.967 1.966-1.096 2.82-1.112.339-1.885.58-1.901.597-.565.177-.58.193-.645.725-.048.403-1.531 11.764-1.531 11.764L15.492 22l5.334-1.321c-.016-.017-2.192-14.73-2.208-14.826Zm-4.625-1.145c-.29.081-.612.194-.95.29 0-.483-.065-1.176-.29-1.756.724.145 1.079.967 1.24 1.466Zm-1.611.5c-.645.193-1.354.419-2.063.628.193-.757.58-1.514 1.031-2.014a2.59 2.59 0 0 1 .693-.516c.29.564.355 1.354.339 1.902Zm-1.306-2.562c.226 0 .42.048.58.145a3.154 3.154 0 0 0-.757.596c-.612.66-1.08 1.692-1.273 2.675-.58.177-1.16.355-1.692.516.338-1.547 1.644-3.884 3.142-3.932Z"></path><path fill="#5E8E3E" d="M18.44 5.691c-.08 0-1.498-.032-1.498-.032S15.75 4.5 15.637 4.386a.309.309 0 0 0-.162-.08v17.678l5.334-1.322-2.191-14.826a.188.188 0 0 0-.177-.145Z"></path><path fill="#fff" d="m12.51 8.43-.612 2.322s-.693-.323-1.515-.258c-1.209.08-1.209.838-1.209 1.031.065 1.031 2.788 1.257 2.95 3.69.112 1.918-1.016 3.223-2.643 3.32-1.966.129-3.046-1.031-3.046-1.031l.419-1.773s1.08.822 1.95.757c.564-.032.773-.5.757-.821-.08-1.354-2.304-1.274-2.45-3.497C7 10.3 8.225 8.399 10.932 8.238c1.048-.081 1.58.193 1.58.193Z"></path></svg>